<svg width="970" height="554" viewBox="0 0 970 554" fill="none" xmlns="http://www.w3.org/2000/svg">
<path d="M138 51H117.5C111.839 51 107.25 55.4772 107.25 61V81C107.25 86.5229 111.839 91 117.5 91H138C143.661 91 148.25 86.5229 148.25 81V61C148.25 55.4772 143.661 51 138 51Z" fill="white" fill-opacity="0.1"/>
<path d="M138 51H117.5C111.839 51 107.25 55.4772 107.25 61V81C107.25 86.5229 111.839 91 117.5 91H138C143.661 91 148.25 86.5229 148.25 81V61C148.25 55.4772 143.661 51 138 51Z" stroke="#4952D9"/>
<path d="M330.45 146H310.05C304.085 146 299.25 150.835 299.25 156.8V177.2C299.25 183.165 304.085 188 310.05 188H330.45C336.415 188 341.25 183.165 341.25 177.2V156.8C341.25 150.835 336.415 146 330.45 146Z" fill="white" fill-opacity="0.3"/>
<path d="M522.45 242H502.05C496.085 242 491.25 246.835 491.25 252.8V273.2C491.25 279.165 496.085 284 502.05 284H522.45C528.415 284 533.25 279.165 533.25 273.2V252.8C533.25 246.835 528.415 242 522.45 242Z" fill="white" fill-opacity="0.3"/>
<path d="M282 51H261.5C255.839 51 251.25 55.4772 251.25 61V81C251.25 86.5229 255.839 91 261.5 91H282C287.661 91 292.25 86.5229 292.25 81V61C292.25 55.4772 287.661 51 282 51Z" fill="white" fill-opacity="0.1"/>
<path d="M282 51H261.5C255.839 51 251.25 55.4772 251.25 61V81C251.25 86.5229 255.839 91 261.5 91H282C287.661 91 292.25 86.5229 292.25 81V61C292.25 55.4772 287.661 51 282 51Z" stroke="#4952D9"/>
<path d="M474.25 147H454.25C448.727 147 444.25 151.589 444.25 157.25V177.75C444.25 183.411 448.727 188 454.25 188H474.25C479.773 188 484.25 183.411 484.25 177.75V157.25C484.25 151.589 479.773 147 474.25 147Z" fill="white" fill-opacity="0.1"/>
<path d="M474.25 147H454.25C448.727 147 444.25 151.589 444.25 157.25V177.75C444.25 183.411 448.727 188 454.25 188H474.25C479.773 188 484.25 183.411 484.25 177.75V157.25C484.25 151.589 479.773 147 474.25 147Z" stroke="#4952D9"/>
<path d="M667 243H646.5C640.839 243 636.25 247.589 636.25 253.25V273.75C636.25 279.411 640.839 284 646.5 284H667C672.661 284 677.25 279.411 677.25 273.75V253.25C677.25 247.589 672.661 243 667 243Z" fill="white" fill-opacity="0.1"/>
<path d="M667 243H646.5C640.839 243 636.25 247.589 636.25 253.25V273.75C636.25 279.411 640.839 284 646.5 284H667C672.661 284 677.25 279.411 677.25 273.75V253.25C677.25 247.589 672.661 243 667 243Z" stroke="#4952D9"/>
<path d="M186 51H165.5C159.839 51 155.25 55.4772 155.25 61V81C155.25 86.5229 159.839 91 165.5 91H186C191.661 91 196.25 86.5229 196.25 81V61C196.25 55.4772 191.661 51 186 51Z" fill="white" fill-opacity="0.1"/>
<path d="M186 51H165.5C159.839 51 155.25 55.4772 155.25 61V81C155.25 86.5229 159.839 91 165.5 91H186C191.661 91 196.25 86.5229 196.25 81V61C196.25 55.4772 191.661 51 186 51Z" stroke="#4952D9"/>
<path d="M378.45 146H358.05C352.085 146 347.25 150.835 347.25 156.8V177.2C347.25 183.165 352.085 188 358.05 188H378.45C384.415 188 389.25 183.165 389.25 177.2V156.8C389.25 150.835 384.415 146 378.45 146Z" fill="white" fill-opacity="0.3"/>
<path d="M570.45 242H550.05C544.085 242 539.25 246.835 539.25 252.8V273.2C539.25 279.165 544.085 284 550.05 284H570.45C576.415 284 581.25 279.165 581.25 273.2V252.8C581.25 246.835 576.415 242 570.45 242Z" fill="white" fill-opacity="0.3"/>
<path d="M330.45 50H310.05C304.085 50 299.25 54.8353 299.25 60.8V81.2C299.25 87.1647 304.085 92 310.05 92H330.45C336.415 92 341.25 87.1647 341.25 81.2V60.8C341.25 54.8353 336.415 50 330.45 50Z" fill="#4952D9"/>
<path d="M522.45 146H502.05C496.085 146 491.25 150.835 491.25 156.8V177.2C491.25 183.165 496.085 188 502.05 188H522.45C528.415 188 533.25 183.165 533.25 177.2V156.8C533.25 150.835 528.415 146 522.45 146Z" fill="#4952D9"/>
<path d="M714.45 242H694.05C688.085 242 683.25 246.835 683.25 252.8V273.2C683.25 279.165 688.085 284 694.05 284H714.45C720.415 284 725.25 279.165 725.25 273.2V252.8C725.25 246.835 720.415 242 714.45 242Z" fill="#4952D9"/>
<path d="M474.45 50H454.05C448.085 50 443.25 54.8353 443.25 60.8V81.2C443.25 87.1647 448.085 92 454.05 92H474.45C480.415 92 485.25 87.1647 485.25 81.2V60.8C485.25 54.8353 480.415 50 474.45 50Z" fill="white" fill-opacity="0.3"/>
<path d="M666.45 146H646.05C640.085 146 635.25 150.835 635.25 156.8V177.2C635.25 183.165 640.085 188 646.05 188H666.45C672.415 188 677.25 183.165 677.25 177.2V156.8C677.25 150.835 672.415 146 666.45 146Z" fill="white" fill-opacity="0.3"/>
<path d="M858.45 242H838.05C832.085 242 827.25 246.835 827.25 252.8V273.2C827.25 279.165 832.085 284 838.05 284H858.45C864.415 284 869.25 279.165 869.25 273.2V252.8C869.25 246.835 864.415 242 858.45 242Z" fill="white" fill-opacity="0.3"/>
<path d="M234 51H213.5C207.839 51 203.25 55.4772 203.25 61V81C203.25 86.5229 207.839 91 213.5 91H234C239.661 91 244.25 86.5229 244.25 81V61C244.25 55.4772 239.661 51 234 51Z" fill="white" fill-opacity="0.1"/>
<path d="M234 51H213.5C207.839 51 203.25 55.4772 203.25 61V81C203.25 86.5229 207.839 91 213.5 91H234C239.661 91 244.25 86.5229 244.25 81V61C244.25 55.4772 239.661 51 234 51Z" stroke="#4952D9"/>
<path d="M426.45 146H406.05C400.085 146 395.25 150.835 395.25 156.8V177.2C395.25 183.165 400.085 188 406.05 188H426.45C432.415 188 437.25 183.165 437.25 177.2V156.8C437.25 150.835 432.415 146 426.45 146Z" fill="white" fill-opacity="0.3"/>
<path d="M618.45 242H598.05C592.085 242 587.25 246.835 587.25 252.8V273.2C587.25 279.165 592.085 284 598.05 284H618.45C624.415 284 629.25 279.165 629.25 273.2V252.8C629.25 246.835 624.415 242 618.45 242Z" fill="white" fill-opacity="0.3"/>
<path d="M378.45 50H358.05C352.085 50 347.25 54.8353 347.25 60.8V81.2C347.25 87.1647 352.085 92 358.05 92H378.45C384.415 92 389.25 87.1647 389.25 81.2V60.8C389.25 54.8353 384.415 50 378.45 50Z" fill="#4952D9"/>
<path d="M570.45 146H550.05C544.085 146 539.25 150.835 539.25 156.8V177.2C539.25 183.165 544.085 188 550.05 188H570.45C576.415 188 581.25 183.165 581.25 177.2V156.8C581.25 150.835 576.415 146 570.45 146Z" fill="#4952D9"/>
<path d="M762.45 242H742.05C736.085 242 731.25 246.835 731.25 252.8V273.2C731.25 279.165 736.085 284 742.05 284H762.45C768.415 284 773.25 279.165 773.25 273.2V252.8C773.25 246.835 768.415 242 762.45 242Z" fill="#4952D9"/>
<path d="M810.45 242H790.05C784.085 242 779.25 246.835 779.25 252.8V273.2C779.25 279.165 784.085 284 790.05 284H810.45C816.415 284 821.25 279.165 821.25 273.2V252.8C821.25 246.835 816.415 242 810.45 242Z" fill="#4952D9"/>
<path d="M522.45 50H502.05C496.085 50 491.25 54.8353 491.25 60.8V81.2C491.25 87.1647 496.085 92 502.05 92H522.45C528.415 92 533.25 87.1647 533.25 81.2V60.8C533.25 54.8353 528.415 50 522.45 50Z" fill="white" fill-opacity="0.3"/>
<path d="M714.45 146H694.05C688.085 146 683.25 150.835 683.25 156.8V177.2C683.25 183.165 688.085 188 694.05 188H714.45C720.415 188 725.25 183.165 725.25 177.2V156.8C725.25 150.835 720.415 146 714.45 146Z" fill="white" fill-opacity="0.3"/>
<path d="M906.45 242H886.05C880.085 242 875.25 246.835 875.25 252.8V273.2C875.25 279.165 880.085 284 886.05 284H906.45C912.415 284 917.25 279.165 917.25 273.2V252.8C917.25 246.835 912.415 242 906.45 242Z" fill="white" fill-opacity="0.3"/>
<path d="M426.45 50H406.05C400.085 50 395.25 54.8353 395.25 60.8V81.2C395.25 87.1647 400.085 92 406.05 92H426.45C432.415 92 437.25 87.1647 437.25 81.2V60.8C437.25 54.8353 432.415 50 426.45 50Z" fill="#4952D9"/>
<path d="M618.45 146H598.05C592.085 146 587.25 150.835 587.25 156.8V177.2C587.25 183.165 592.085 188 598.05 188H618.45C624.415 188 629.25 183.165 629.25 177.2V156.8C629.25 150.835 624.415 146 618.45 146Z" fill="#4952D9"/>
<path d="M111 463H90.5C84.8391 463 80.25 467.477 80.25 473V493C80.25 498.523 84.8391 503 90.5 503H111C116.661 503 121.25 498.523 121.25 493V473C121.25 467.477 116.661 463 111 463Z" fill="white" fill-opacity="0.1"/>
<path d="M111 463H90.5C84.8391 463 80.25 467.477 80.25 473V493C80.25 498.523 84.8391 503 90.5 503H111C116.661 503 121.25 498.523 121.25 493V473C121.25 467.477 116.661 463 111 463Z" stroke="#4952D9"/>
<path d="M254.45 462H234.05C228.085 462 223.25 466.835 223.25 472.8V493.2C223.25 499.165 228.085 504 234.05 504H254.45C260.415 504 265.25 499.165 265.25 493.2V472.8C265.25 466.835 260.415 462 254.45 462Z" fill="#4952D9"/>
<path d="M446.45 462H426.05C420.085 462 415.25 466.835 415.25 472.8V493.2C415.25 499.165 420.085 504 426.05 504H446.45C452.415 504 457.25 499.165 457.25 493.2V472.8C457.25 466.835 452.415 462 446.45 462Z" fill="white" fill-opacity="0.6"/>
<path d="M570.45 50H550.05C544.085 50 539.25 54.8353 539.25 60.8V81.2C539.25 87.1647 544.085 92 550.05 92H570.45C576.415 92 581.25 87.1647 581.25 81.2V60.8C581.25 54.8353 576.415 50 570.45 50Z" fill="white" fill-opacity="0.3"/>
<path d="M762.45 146H742.05C736.085 146 731.25 150.835 731.25 156.8V177.2C731.25 183.165 736.085 188 742.05 188H762.45C768.415 188 773.25 183.165 773.25 177.2V156.8C773.25 150.835 768.415 146 762.45 146Z" fill="white" fill-opacity="0.3"/>
<path d="M954.45 242H934.05C928.085 242 923.25 246.835 923.25 252.8V273.2C923.25 279.165 928.085 284 934.05 284H954.45C960.415 284 965.25 279.165 965.25 273.2V252.8C965.25 246.835 960.415 242 954.45 242Z" fill="white" fill-opacity="0.3"/>
<path d="M426.035 99H309.465C303.823 99 299.25 103.477 299.25 109V129C299.25 134.523 303.823 139 309.465 139H426.035C431.677 139 436.25 134.523 436.25 129V109C436.25 103.477 431.677 99 426.035 99Z" fill="white" fill-opacity="0.1"/>
<path d="M426.035 99H309.465C303.823 99 299.25 103.477 299.25 109V129C299.25 134.523 303.823 139 309.465 139H426.035C431.677 139 436.25 134.523 436.25 129V109C436.25 103.477 431.677 99 426.035 99Z" stroke="#FF8633"/>
<path d="M332.363 123.902L329.25 115.283H330.747L333.19 122.104L335.632 115.283H337.093L333.968 123.902H332.363ZM338.067 123.902V115.283H339.48V122.658H343.539V123.902H338.067ZM343.863 123.902L347.144 115.283H348.725L351.994 123.902H350.485L349.719 121.87H346.103L345.324 123.902H343.863ZM346.546 120.639H349.276L347.911 117.007L346.546 120.639ZM355.127 123.902V117.696H356.433V123.902H355.127ZM355.786 116.761C355.283 116.761 354.912 116.391 354.912 115.886C354.912 115.382 355.283 115.012 355.786 115.012C356.289 115.012 356.672 115.382 356.672 115.886C356.672 116.391 356.289 116.761 355.786 116.761ZM357.997 123.902V117.696H359.302V118.62C359.649 118.078 360.379 117.598 361.337 117.598C362.631 117.598 363.577 118.447 363.577 119.876V123.902H362.271V120.171C362.271 119.285 361.768 118.78 361.002 118.78C359.948 118.78 359.302 119.703 359.302 121.218V123.902H357.997ZM365.449 123.902V118.804H364.455V117.696H365.449V117.167C365.449 115.788 366.204 115 367.365 115C367.724 115 368.096 115.062 368.263 115.135V116.305C368.084 116.219 367.844 116.17 367.641 116.17C367.114 116.17 366.766 116.527 366.766 117.216V117.696H368.239V118.804H366.766V123.902H365.449ZM371.681 124C369.837 124 368.627 122.67 368.627 120.799C368.627 118.927 369.885 117.598 371.633 117.598C373.549 117.598 374.722 119.124 374.483 121.045H369.944C370.04 122.215 370.747 122.867 371.681 122.867C372.519 122.867 373.034 122.424 373.154 121.895H374.471C374.243 123.101 373.357 124 371.681 124ZM370.004 120.023H373.13C373.106 119.198 372.507 118.681 371.633 118.681C370.783 118.681 370.208 119.149 370.004 120.023ZM375.727 123.902V117.696H377.032V118.644C377.379 117.967 378.062 117.598 378.852 117.598C379.104 117.598 379.331 117.635 379.535 117.733V119.014C379.223 118.891 378.996 118.866 378.732 118.866C377.798 118.866 377.032 119.715 377.032 121.501V123.902H375.727ZM382.893 124C381.049 124 379.84 122.67 379.84 120.799C379.84 118.927 381.097 117.598 382.845 117.598C384.761 117.598 385.935 119.124 385.695 121.045H381.157C381.253 122.215 381.959 122.867 382.893 122.867C383.732 122.867 384.246 122.424 384.366 121.895H385.683C385.456 123.101 384.57 124 382.893 124ZM381.217 120.023H384.342C384.318 119.198 383.72 118.681 382.845 118.681C381.995 118.681 381.421 119.149 381.217 120.023ZM386.938 123.902V117.696H388.243V118.62C388.591 118.078 389.321 117.598 390.279 117.598C391.572 117.598 392.518 118.447 392.518 119.876V123.902H391.213V120.171C391.213 119.285 390.71 118.78 389.944 118.78C388.89 118.78 388.243 119.703 388.243 121.218V123.902H386.938ZM396.701 124C394.941 124 393.659 122.658 393.659 120.787C393.659 118.927 394.941 117.598 396.701 117.598C398.269 117.598 399.323 118.46 399.515 119.9H398.186C398.066 119.211 397.479 118.755 396.713 118.755C395.731 118.755 394.989 119.592 394.989 120.787C394.989 121.993 395.719 122.843 396.713 122.843C397.563 122.843 398.102 122.313 398.21 121.698H399.575C399.371 123.003 398.317 124 396.701 124ZM403.417 124C401.573 124 400.364 122.67 400.364 120.799C400.364 118.927 401.621 117.598 403.369 117.598C405.285 117.598 406.459 119.124 406.219 121.045H401.681C401.777 122.215 402.483 122.867 403.417 122.867C404.255 122.867 404.77 122.424 404.89 121.895H406.207C405.98 123.101 405.094 124 403.417 124ZM401.741 120.023H404.866C404.842 119.198 404.243 118.681 403.369 118.681C402.519 118.681 401.944 119.149 401.741 120.023Z" fill="white"/>
<path d="M619.035 195H502.465C496.823 195 492.25 199.589 492.25 205.25V225.75C492.25 231.411 496.823 236 502.465 236H619.035C624.677 236 629.25 231.411 629.25 225.75V205.25C629.25 199.589 624.677 195 619.035 195Z" fill="white" fill-opacity="0.1"/>
<path d="M619.035 195H502.465C496.823 195 492.25 199.589 492.25 205.25V225.75C492.25 231.411 496.823 236 502.465 236H619.035C624.677 236 629.25 231.411 629.25 225.75V205.25C629.25 199.589 624.677 195 619.035 195Z" stroke="#FF8633"/>
<path d="M524.404 219.902L521.25 211.283H522.766L525.241 218.104L527.715 211.283H529.195L526.029 219.902H524.404ZM530.181 219.902V211.283H531.612V218.658H535.724V219.902H530.181ZM536.053 219.902L539.377 211.283H540.978L544.289 219.902H542.761L541.985 217.87H538.321L537.533 219.902H536.053ZM538.77 216.639H541.536L540.153 213.007L538.77 216.639ZM547.464 219.902V213.696H548.786V219.902H547.464ZM548.131 212.761C547.621 212.761 547.245 212.391 547.245 211.886C547.245 211.382 547.621 211.012 548.131 211.012C548.64 211.012 549.028 211.382 549.028 211.886C549.028 212.391 548.64 212.761 548.131 212.761ZM550.37 219.902V213.696H551.692V214.62C552.044 214.078 552.784 213.598 553.754 213.598C555.064 213.598 556.022 214.447 556.022 215.876V219.902H554.7V216.171C554.7 215.285 554.191 214.78 553.414 214.78C552.347 214.78 551.692 215.703 551.692 217.218V219.902H550.37ZM557.919 219.902V214.804H556.913V213.696H557.919V213.167C557.919 211.788 558.684 211 559.86 211C560.224 211 560.6 211.062 560.77 211.135V212.305C560.588 212.219 560.345 212.17 560.139 212.17C559.605 212.17 559.254 212.527 559.254 213.216V213.696H560.746V214.804H559.254V219.902H557.919ZM564.232 220C562.364 220 561.139 218.67 561.139 216.799C561.139 214.927 562.412 213.598 564.183 213.598C566.124 213.598 567.313 215.124 567.07 217.045H562.473C562.57 218.215 563.286 218.867 564.232 218.867C565.081 218.867 565.602 218.424 565.724 217.895H567.058C566.827 219.101 565.93 220 564.232 220ZM562.534 216.023H565.699C565.675 215.198 565.069 214.681 564.183 214.681C563.322 214.681 562.74 215.149 562.534 216.023ZM568.33 219.902V213.696H569.653V214.644C570.004 213.967 570.696 213.598 571.496 213.598C571.751 213.598 571.981 213.635 572.188 213.733V215.014C571.872 214.891 571.642 214.866 571.375 214.866C570.429 214.866 569.653 215.715 569.653 217.501V219.902H568.33ZM575.59 220C573.722 220 572.497 218.67 572.497 216.799C572.497 214.927 573.771 213.598 575.541 213.598C577.482 213.598 578.671 215.124 578.428 217.045H573.831C573.928 218.215 574.644 218.867 575.59 218.867C576.439 218.867 576.961 218.424 577.082 217.895H578.416C578.186 219.101 577.288 220 575.59 220ZM573.892 216.023H577.058C577.033 215.198 576.427 214.681 575.541 214.681C574.68 214.681 574.098 215.149 573.892 216.023ZM579.687 219.902V213.696H581.01V214.62C581.361 214.078 582.101 213.598 583.072 213.598C584.382 213.598 585.34 214.447 585.34 215.876V219.902H584.018V216.171C584.018 215.285 583.508 214.78 582.732 214.78C581.665 214.78 581.01 215.703 581.01 217.218V219.902H579.687ZM589.577 220C587.794 220 586.496 218.658 586.496 216.787C586.496 214.927 587.794 213.598 589.577 213.598C591.166 213.598 592.233 214.46 592.427 215.9H591.081C590.96 215.211 590.365 214.755 589.589 214.755C588.594 214.755 587.842 215.592 587.842 216.787C587.842 217.993 588.582 218.843 589.589 218.843C590.45 218.843 590.996 218.313 591.105 217.698H592.488C592.282 219.003 591.214 220 589.577 220ZM596.38 220C594.512 220 593.287 218.67 593.287 216.799C593.287 214.927 594.561 213.598 596.332 213.598C598.273 213.598 599.461 215.124 599.219 217.045H594.622C594.719 218.215 595.434 218.867 596.38 218.867C597.229 218.867 597.751 218.424 597.872 217.895H599.207C598.976 219.101 598.079 220 596.38 220ZM594.682 216.023H597.848C597.824 215.198 597.217 214.681 596.332 214.681C595.471 214.681 594.888 215.149 594.682 216.023Z" fill="white"/>
<path d="M811.035 291H694.465C688.823 291 684.25 295.589 684.25 301.25V321.75C684.25 327.411 688.823 332 694.465 332H811.035C816.677 332 821.25 327.411 821.25 321.75V301.25C821.25 295.589 816.677 291 811.035 291Z" fill="white" fill-opacity="0.1"/>
<path d="M811.035 291H694.465C688.823 291 684.25 295.589 684.25 301.25V321.75C684.25 327.411 688.823 332 694.465 332H811.035C816.677 332 821.25 327.411 821.25 321.75V301.25C821.25 295.589 816.677 291 811.035 291Z" stroke="#FF8633"/>
<path d="M716.404 315.902L713.25 307.283H714.766L717.241 314.104L719.715 307.283H721.195L718.029 315.902H716.404ZM722.181 315.902V307.283H723.612V314.658H727.724V315.902H722.181ZM728.053 315.902L731.377 307.283H732.978L736.289 315.902H734.761L733.985 313.87H730.321L729.533 315.902H728.053ZM730.77 312.639H733.536L732.153 309.007L730.77 312.639ZM739.464 315.902V309.696H740.786V315.902H739.464ZM740.131 308.761C739.621 308.761 739.245 308.391 739.245 307.886C739.245 307.382 739.621 307.012 740.131 307.012C740.64 307.012 741.028 307.382 741.028 307.886C741.028 308.391 740.64 308.761 740.131 308.761ZM742.37 315.902V309.696H743.692V310.62C744.044 310.078 744.784 309.598 745.754 309.598C747.064 309.598 748.022 310.447 748.022 311.876V315.902H746.7V312.171C746.7 311.285 746.191 310.78 745.414 310.78C744.347 310.78 743.692 311.703 743.692 313.218V315.902H742.37ZM749.919 315.902V310.804H748.913V309.696H749.919V309.167C749.919 307.788 750.684 307 751.86 307C752.224 307 752.6 307.062 752.77 307.135V308.305C752.588 308.219 752.345 308.17 752.139 308.17C751.605 308.17 751.254 308.527 751.254 309.216V309.696H752.746V310.804H751.254V315.902H749.919ZM756.232 316C754.364 316 753.139 314.67 753.139 312.799C753.139 310.928 754.412 309.598 756.183 309.598C758.124 309.598 759.313 311.124 759.07 313.045H754.473C754.57 314.215 755.286 314.867 756.232 314.867C757.081 314.867 757.602 314.424 757.724 313.895H759.058C758.827 315.101 757.93 316 756.232 316ZM754.534 312.023H757.699C757.675 311.198 757.069 310.681 756.183 310.681C755.322 310.681 754.74 311.149 754.534 312.023ZM760.33 315.902V309.696H761.653V310.644C762.004 309.967 762.696 309.598 763.496 309.598C763.751 309.598 763.981 309.635 764.188 309.733V311.014C763.872 310.891 763.642 310.866 763.375 310.866C762.429 310.866 761.653 311.715 761.653 313.501V315.902H760.33ZM767.59 316C765.722 316 764.497 314.67 764.497 312.799C764.497 310.928 765.771 309.598 767.541 309.598C769.482 309.598 770.671 311.124 770.428 313.045H765.831C765.928 314.215 766.644 314.867 767.59 314.867C768.439 314.867 768.961 314.424 769.082 313.895H770.416C770.186 315.101 769.288 316 767.59 316ZM765.892 312.023H769.058C769.033 311.198 768.427 310.681 767.541 310.681C766.68 310.681 766.098 311.149 765.892 312.023ZM771.687 315.902V309.696H773.01V310.62C773.361 310.078 774.101 309.598 775.072 309.598C776.382 309.598 777.34 310.447 777.34 311.876V315.902H776.018V312.171C776.018 311.285 775.508 310.78 774.732 310.78C773.665 310.78 773.01 311.703 773.01 313.218V315.902H771.687ZM781.577 316C779.794 316 778.496 314.658 778.496 312.787C778.496 310.928 779.794 309.598 781.577 309.598C783.166 309.598 784.233 310.46 784.427 311.9H783.081C782.96 311.211 782.365 310.755 781.589 310.755C780.594 310.755 779.842 311.592 779.842 312.787C779.842 313.993 780.582 314.843 781.589 314.843C782.45 314.843 782.996 314.313 783.105 313.698H784.488C784.282 315.003 783.214 316 781.577 316ZM788.38 316C786.512 316 785.287 314.67 785.287 312.799C785.287 310.928 786.561 309.598 788.332 309.598C790.273 309.598 791.461 311.124 791.219 313.045H786.622C786.719 314.215 787.434 314.867 788.38 314.867C789.229 314.867 789.751 314.424 789.872 313.895H791.207C790.976 315.101 790.079 316 788.38 316ZM786.682 312.023H789.848C789.824 311.198 789.217 310.681 788.332 310.681C787.471 310.681 786.888 311.149 786.682 312.023Z" fill="white"/>
<path d="M4.25 74.9218L7.12282 68.0782H7.92194L10.7745 74.9218H10.0462L9.25719 73.0251H5.7471L4.95809 74.9218H4.25ZM5.97976 72.4477H9.03465L7.51732 68.7913L5.97976 72.4477ZM13.6986 75C12.2723 75 11.2203 73.9246 11.2203 72.4581C11.2203 70.9916 12.2723 69.9162 13.6986 69.9162C14.9226 69.9162 15.7723 70.5614 15.9241 71.5587H15.2767C15.1452 70.9134 14.518 70.4637 13.7087 70.4637C12.6567 70.4637 11.8778 71.2941 11.8778 72.4581C11.8778 73.6117 12.6567 74.4525 13.7087 74.4525C14.6495 74.4525 15.2058 73.9142 15.3171 73.3081H15.9847C15.8229 74.2179 15.0035 75 13.6986 75ZM18.713 75C17.8936 75 17.3676 74.4916 17.3676 73.5623V70.512H16.4774V69.9944H17.3676V68.7131H18.0049V69.9944H19.3502V70.512H18.0049V73.5232C18.0049 74.1489 18.3185 74.4422 18.7838 74.4422C18.9861 74.4422 19.1985 74.4031 19.3604 74.3444V74.8827C19.2187 74.9517 18.9659 75 18.713 75ZM20.3932 74.9218V69.9944H21.0406V74.9218H20.3932ZM20.727 69.026C20.4337 69.026 20.2111 68.8212 20.2111 68.5371C20.2111 68.2634 20.4337 68.0587 20.727 68.0587C21.0305 68.0587 21.2429 68.2634 21.2429 68.5371C21.2429 68.8212 21.0305 69.026 20.727 69.026ZM24.8101 75C23.3428 75 22.2708 73.9441 22.2708 72.4581C22.2708 70.9721 23.3428 69.9162 24.8101 69.9162C26.2763 69.9162 27.339 70.9721 27.339 72.4581C27.339 73.9441 26.2668 75 24.8101 75ZM24.8101 74.4525C25.9026 74.4525 26.6916 73.6313 26.6916 72.4581C26.6916 71.2849 25.9026 70.4637 24.8101 70.4637C23.7177 70.4637 22.9283 71.2849 22.9283 72.4581C22.9283 73.6313 23.7177 74.4525 24.8101 74.4525ZM28.5898 74.9218V69.9944H29.2277V71.0986C29.5311 70.4246 30.2392 69.9162 31.1698 69.9162C32.2314 69.9162 33.0002 70.5419 33.0002 71.676V74.9218H32.3635V71.8025C32.3635 70.9226 31.8577 70.4729 31.058 70.4729C29.9453 70.4729 29.2277 71.4022 29.2277 72.8193V74.9218H28.5898ZM40.0501 75C38.0472 75 36.6513 73.6508 36.6513 71.5C36.6513 69.3492 38.0377 68 40.0501 68C41.6793 68 42.7611 68.9477 42.9229 70.2383H42.2458C42.053 69.2606 41.214 68.5762 40.0501 68.5762C38.4221 68.5762 37.3391 69.7103 37.3391 71.5C37.3391 73.2885 38.4316 74.4226 40.0501 74.4226C41.2437 74.4226 42.1244 73.6117 42.2755 72.6341H42.9634C42.7813 73.9441 41.6793 75 40.0501 75ZM44.1951 74.9218V68H44.8318V71.0986C45.1352 70.4246 45.8433 69.9162 46.7739 69.9162C47.8367 69.9162 48.615 70.5419 48.615 71.676V74.9218H47.9676V71.8025C47.9676 70.9226 47.4618 70.4729 46.6633 70.4729C45.5506 70.4729 44.8318 71.4022 44.8318 72.8193V74.9218H44.1951ZM51.9103 75C50.8583 75 50.0799 74.3743 50.0799 73.2402V69.9944H50.7166V73.1126C50.7166 73.9924 51.2331 74.4422 52.0221 74.4422C53.1348 74.4422 53.8525 73.514 53.8525 72.0958V69.9944H54.4903V74.9218H53.8525V73.836C53.5395 74.5008 52.8409 75 51.9103 75ZM56.0862 74.9218V69.9944H56.7229V71.0986C57.0264 70.4246 57.7344 69.9162 58.6651 69.9162C59.7278 69.9162 60.4966 70.5419 60.4966 71.676V74.9218H59.8587V71.8025C59.8587 70.9226 59.3529 70.4729 58.5544 70.4729C57.4417 70.4729 56.7229 71.4022 56.7229 72.8193V74.9218H56.0862ZM62.0211 74.9218V68H62.6684V72.1844L65.289 69.9944H66.1684L63.9335 71.9003L66.3612 74.9218H65.5817L63.4479 72.3017L62.6684 72.9665V74.9218H62.0211ZM70.5621 74.9218V68.8891C70.2384 69.3193 69.6018 69.6517 68.833 69.7989V69.2215C69.5506 69.095 70.1885 68.6936 70.6538 68.0782H71.25V74.9218H70.5621Z" fill="white"/>
<path d="M4.25 170.922L7.14436 164.078H7.94948L10.8235 170.922H10.0897L9.29474 169.025H5.75833L4.9634 170.922H4.25ZM5.99273 168.448H9.07054L7.54182 164.791L5.99273 168.448ZM13.7695 171C12.3325 171 11.2726 169.925 11.2726 168.458C11.2726 166.992 12.3325 165.916 13.7695 165.916C15.0027 165.916 15.8587 166.561 16.0116 167.559H15.3594C15.2269 166.913 14.595 166.464 13.7797 166.464C12.7198 166.464 11.935 167.294 11.935 168.458C11.935 169.612 12.7198 170.453 13.7797 170.453C14.7275 170.453 15.288 169.914 15.4001 169.308H16.0728C15.9097 170.218 15.0842 171 13.7695 171ZM18.8214 171C17.9959 171 17.466 170.492 17.466 169.562V166.512H16.5691V165.994H17.466V164.713H18.108V165.994H19.4635V166.512H18.108V169.523C18.108 170.149 18.424 170.442 18.8928 170.442C19.0966 170.442 19.3106 170.403 19.4737 170.344V170.883C19.331 170.952 19.0762 171 18.8214 171ZM20.5143 170.922V165.994H21.1665V170.922H20.5143ZM20.8506 165.026C20.5551 165.026 20.3308 164.821 20.3308 164.537C20.3308 164.263 20.5551 164.059 20.8506 164.059C21.1563 164.059 21.3704 164.263 21.3704 164.537C21.3704 164.821 21.1563 165.026 20.8506 165.026ZM24.9643 171C23.486 171 22.4059 169.944 22.4059 168.458C22.4059 166.972 23.486 165.916 24.9643 165.916C26.4415 165.916 27.5122 166.972 27.5122 168.458C27.5122 169.944 26.4319 171 24.9643 171ZM24.9643 170.453C26.065 170.453 26.8599 169.631 26.8599 168.458C26.8599 167.285 26.065 166.464 24.9643 166.464C23.8637 166.464 23.0684 167.285 23.0684 168.458C23.0684 169.631 23.8637 170.453 24.9643 170.453ZM28.7723 170.922V165.994H29.415V167.099C29.7207 166.425 30.4341 165.916 31.3717 165.916C32.4412 165.916 33.2158 166.542 33.2158 167.676V170.922H32.5743V167.802C32.5743 166.923 32.0648 166.473 31.259 166.473C30.138 166.473 29.415 167.402 29.415 168.819V170.922H28.7723ZM40.3186 171C38.3007 171 36.8943 169.651 36.8943 167.5C36.8943 165.349 38.2911 164 40.3186 164C41.96 164 43.0499 164.948 43.213 166.238H42.5307C42.3365 165.261 41.4912 164.576 40.3186 164.576C38.6784 164.576 37.5873 165.71 37.5873 167.5C37.5873 169.289 38.688 170.423 40.3186 170.423C41.5212 170.423 42.4084 169.612 42.5607 168.634H43.2537C43.0703 169.944 41.96 171 40.3186 171ZM44.4947 170.922V164H45.1361V167.099C45.4419 166.425 46.1553 165.916 47.0929 165.916C48.1636 165.916 48.9477 166.542 48.9477 167.676V170.922H48.2955V167.802C48.2955 166.923 47.7859 166.473 46.9814 166.473C45.8603 166.473 45.1361 167.402 45.1361 168.819V170.922H44.4947ZM52.2677 171C51.2078 171 50.4237 170.374 50.4237 169.24V165.994H51.0651V169.113C51.0651 169.992 51.5855 170.442 52.3804 170.442C53.5015 170.442 54.2245 169.514 54.2245 168.096V165.994H54.8671V170.922H54.2245V169.836C53.9091 170.501 53.2053 171 52.2677 171ZM56.475 170.922V165.994H57.1164V167.099C57.4222 166.425 58.1356 165.916 59.0732 165.916C60.1439 165.916 60.9184 166.542 60.9184 167.676V170.922H60.2758V167.802C60.2758 166.923 59.7662 166.473 58.9617 166.473C57.8406 166.473 57.1164 167.402 57.1164 168.819V170.922H56.475ZM62.4543 170.922V164H63.1066V168.184L65.7468 165.994H66.6328L64.3811 167.9L66.8271 170.922H66.0417L63.8919 168.302L63.1066 168.966V170.922H62.4543ZM69.5008 170.922V170.384L72.2824 167.92C73.1086 167.187 73.5366 166.629 73.5366 165.994C73.5366 165.134 72.864 164.576 71.936 164.576C70.8557 164.576 70.2034 165.28 70.2849 166.375H69.6027C69.5212 164.967 70.4588 164 71.9467 164C73.2812 164 74.2188 164.772 74.2188 165.994C74.2188 166.825 73.6997 167.529 72.6805 168.37L70.448 170.344H74.25V170.922H69.5008Z" fill="white"/>
<path d="M4.25 266.922L7.1368 260.078H7.93982L10.8063 266.922H10.0744L9.28156 265.025H5.75439L4.96154 266.922H4.25ZM5.98817 264.448H9.05794L7.53322 260.791L5.98817 264.448ZM13.7446 267C12.3114 267 11.2542 265.925 11.2542 264.458C11.2542 262.992 12.3114 261.916 13.7446 261.916C14.9745 261.916 15.8284 262.561 15.9809 263.559H15.3303C15.1982 262.913 14.568 262.464 13.7548 262.464C12.6976 262.464 11.915 263.294 11.915 264.458C11.915 265.612 12.6976 266.453 13.7548 266.453C14.7001 266.453 15.2592 265.914 15.371 265.308H16.0419C15.8792 266.218 15.0559 267 13.7446 267ZM18.7834 267C17.96 267 17.4314 266.492 17.4314 265.562V262.512H16.5369V261.994H17.4314V260.713H18.0718V261.994H19.4237V262.512H18.0718V265.523C18.0718 266.149 18.3869 266.442 18.8545 266.442C19.0578 266.442 19.2713 266.403 19.4339 266.344V266.883C19.2916 266.952 19.0375 267 18.7834 267ZM20.4718 266.922V261.994H21.1223V266.922H20.4718ZM20.8072 261.026C20.5124 261.026 20.2888 260.821 20.2888 260.537C20.2888 260.263 20.5124 260.059 20.8072 260.059C21.1122 260.059 21.3256 260.263 21.3256 260.537C21.3256 260.821 21.1122 261.026 20.8072 261.026ZM24.9102 267C23.4357 267 22.3585 265.944 22.3585 264.458C22.3585 262.972 23.4357 261.916 24.9102 261.916C26.3835 261.916 27.4514 262.972 27.4514 264.458C27.4514 265.944 26.3739 267 24.9102 267ZM24.9102 266.453C26.008 266.453 26.8008 265.631 26.8008 264.458C26.8008 263.285 26.008 262.464 24.9102 262.464C23.8124 262.464 23.0192 263.285 23.0192 264.458C23.0192 265.631 23.8124 266.453 24.9102 266.453ZM28.7082 266.922V261.994H29.3492V263.099C29.6542 262.425 30.3657 261.916 31.3008 261.916C32.3676 261.916 33.1401 262.542 33.1401 263.676V266.922H32.5003V263.802C32.5003 262.923 31.9921 262.473 31.1884 262.473C30.0703 262.473 29.3492 263.402 29.3492 264.819V266.922H28.7082ZM40.2243 267C38.2117 267 36.809 265.651 36.809 263.5C36.809 261.349 38.2021 260 40.2243 260C41.8614 260 42.9485 260.948 43.1111 262.238H42.4307C42.2369 261.261 41.3939 260.576 40.2243 260.576C38.5884 260.576 37.5002 261.71 37.5002 263.5C37.5002 265.289 38.598 266.423 40.2243 266.423C41.4238 266.423 42.3087 265.612 42.4606 264.634H43.1518C42.9688 265.944 41.8614 267 40.2243 267ZM44.3895 266.922V260H45.0293V263.099C45.3342 262.425 46.0457 261.916 46.9809 261.916C48.0488 261.916 48.8309 262.542 48.8309 263.676V266.922H48.1803V263.802C48.1803 262.923 47.6721 262.473 46.8697 262.473C45.7516 262.473 45.0293 263.402 45.0293 264.819V266.922H44.3895ZM52.1422 267C51.0851 267 50.303 266.374 50.303 265.24V261.994H50.9428V265.113C50.9428 265.992 51.4618 266.442 52.2546 266.442C53.3728 266.442 54.0939 265.514 54.0939 264.096V261.994H54.7348V266.922H54.0939V265.836C53.7793 266.501 53.0774 267 52.1422 267ZM56.3385 266.922V261.994H56.9783V263.099C57.2832 262.425 57.9947 261.916 58.9299 261.916C59.9978 261.916 60.7703 262.542 60.7703 263.676V266.922H60.1293V263.802C60.1293 262.923 59.6211 262.473 58.8187 262.473C57.7005 262.473 56.9783 263.402 56.9783 264.819V266.922H56.3385ZM62.3022 266.922V260H62.9527V264.184L65.586 261.994H66.4698L64.2239 263.9L66.6635 266.922H65.8802L63.736 264.302L62.9527 264.966V266.922H62.3022ZM71.7495 267C70.2857 267 69.3506 266.14 69.2693 264.937H69.9198C70.031 265.827 70.7019 266.423 71.7387 266.423C72.8066 266.423 73.5684 265.719 73.5684 264.771C73.5684 263.832 72.8772 263.216 71.9324 263.216C71.5354 263.216 71.2006 263.265 70.8849 263.363V262.894L73.1115 260.654H69.4821V260.078H73.9247V260.626L71.7495 262.766C71.8511 262.747 71.9623 262.737 72.0951 262.737C73.4057 262.737 74.25 263.578 74.25 264.791C74.25 266.061 73.2132 267 71.7495 267Z" fill="white"/>
<path d="M130.25 486.922V480.078H134.694V480.654H130.933V483.02H134.042V483.598H130.933V486.344H134.714V486.922H130.25ZM138.866 486.922L137.409 484.869L135.951 486.922H135.217L137.042 484.35L135.37 481.994H136.124L137.418 483.822L138.713 481.994H139.436L137.785 484.33L139.62 486.922H138.866ZM142.479 487C141.011 487 139.982 485.944 139.982 484.458C139.982 482.972 141.022 481.916 142.458 481.916C143.967 481.916 144.915 483.031 144.752 484.458H140.634C140.634 485.67 141.398 486.453 142.479 486.453C143.416 486.453 143.977 485.953 144.089 485.377H144.741C144.569 486.257 143.844 487 142.479 487ZM140.675 483.95H144.1C144.1 483.05 143.416 482.464 142.458 482.464C141.52 482.464 140.848 483.02 140.675 483.95ZM148.161 487C146.723 487 145.663 485.925 145.663 484.458C145.663 482.992 146.723 481.916 148.161 481.916C149.394 481.916 150.25 482.561 150.403 483.559H149.751C149.618 482.913 148.986 482.464 148.171 482.464C147.111 482.464 146.326 483.294 146.326 484.458C146.326 485.612 147.111 486.453 148.171 486.453C149.119 486.453 149.679 485.914 149.792 485.308H150.465C150.302 486.218 149.475 487 148.161 487ZM153.437 487C152.377 487 151.592 486.374 151.592 485.24V481.994H152.234V485.113C152.234 485.992 152.754 486.442 153.549 486.442C154.67 486.442 155.394 485.514 155.394 484.096V481.994H156.036V486.922H155.394V485.836C155.078 486.501 154.375 487 153.437 487ZM159.244 487C158.418 487 157.888 486.492 157.888 485.562V482.512H156.991V481.994H157.888V480.713H158.531V481.994H159.886V482.512H158.531V485.523C158.531 486.149 158.846 486.442 159.315 486.442C159.519 486.442 159.734 486.403 159.897 486.344V486.883C159.754 486.952 159.499 487 159.244 487ZM162.949 487C161.481 487 160.452 485.944 160.452 484.458C160.452 482.972 161.492 481.916 162.928 481.916C164.437 481.916 165.385 483.031 165.222 484.458H161.104C161.104 485.67 161.868 486.453 162.949 486.453C163.886 486.453 164.447 485.953 164.559 485.377H165.211C165.039 486.257 164.314 487 162.949 487ZM161.145 483.95H164.57C164.57 483.05 163.886 482.464 162.928 482.464C161.99 482.464 161.318 483.02 161.145 483.95ZM168.672 487C167.163 487 166.144 485.973 166.144 484.458C166.144 482.942 167.163 481.916 168.672 481.916C169.508 481.916 170.292 482.346 170.608 482.992V480H171.25V486.922H170.608V485.925C170.292 486.559 169.508 487 168.672 487ZM168.702 486.453C169.803 486.453 170.608 485.621 170.608 484.458C170.608 483.285 169.803 482.464 168.702 482.464C167.601 482.464 166.796 483.285 166.796 484.458C166.796 485.631 167.601 486.453 168.702 486.453Z" fill="white"/>
<path d="M275.004 475.245V468.201H279.445V468.794H275.687V471.229H278.793V471.823H275.687V474.65H279.466V475.245H275.004ZM283.615 475.245L282.159 473.132L280.701 475.245H279.968L281.792 472.598L280.121 470.173H280.875L282.168 472.054L283.462 470.173H284.185L282.535 472.578L284.368 475.245H283.615ZM287.226 475.325C285.759 475.325 284.73 474.238 284.73 472.709C284.73 471.18 285.769 470.093 287.205 470.093C288.713 470.093 289.661 471.24 289.498 472.709H285.382C285.382 473.957 286.146 474.762 287.226 474.762C288.163 474.762 288.724 474.248 288.835 473.655H289.487C289.314 474.56 288.591 475.325 287.226 475.325ZM285.423 472.186H288.846C288.846 471.26 288.163 470.656 287.205 470.656C286.268 470.656 285.596 471.229 285.423 472.186ZM292.905 475.325C291.468 475.325 290.409 474.218 290.409 472.709C290.409 471.2 291.468 470.093 292.905 470.093C294.137 470.093 294.993 470.757 295.146 471.783H294.494C294.361 471.119 293.729 470.656 292.915 470.656C291.855 470.656 291.071 471.511 291.071 472.709C291.071 473.896 291.855 474.762 292.915 474.762C293.863 474.762 294.422 474.208 294.535 473.584H295.207C295.044 474.52 294.218 475.325 292.905 475.325ZM298.178 475.325C297.119 475.325 296.334 474.681 296.334 473.514V470.173H296.976V473.383C296.976 474.288 297.495 474.751 298.29 474.751C299.41 474.751 300.134 473.796 300.134 472.336V470.173H300.775V475.245H300.134V474.127C299.818 474.811 299.115 475.325 298.178 475.325ZM303.982 475.325C303.156 475.325 302.627 474.802 302.627 473.845V470.706H301.73V470.173H302.627V468.855H303.269V470.173H304.623V470.706H303.269V473.805C303.269 474.449 303.584 474.751 304.053 474.751C304.257 474.751 304.471 474.711 304.634 474.65V475.204C304.491 475.275 304.236 475.325 303.982 475.325ZM307.684 475.325C306.217 475.325 305.189 474.238 305.189 472.709C305.189 471.18 306.228 470.093 307.664 470.093C309.171 470.093 310.119 471.24 309.956 472.709H305.841C305.841 473.957 306.604 474.762 307.684 474.762C308.621 474.762 309.182 474.248 309.294 473.655H309.946C309.773 474.56 309.049 475.325 307.684 475.325ZM305.882 472.186H309.304C309.304 471.26 308.621 470.656 307.664 470.656C306.727 470.656 306.054 471.229 305.882 472.186ZM313.404 475.325C311.897 475.325 310.878 474.268 310.878 472.709C310.878 471.149 311.897 470.093 313.404 470.093C314.24 470.093 315.023 470.536 315.34 471.2V468.121H315.981V475.245H315.34V474.218C315.023 474.872 314.24 475.325 313.404 475.325ZM313.434 474.762C314.534 474.762 315.34 473.906 315.34 472.709C315.34 471.502 314.534 470.656 313.434 470.656C312.334 470.656 311.53 471.502 311.53 472.709C311.53 473.916 312.334 474.762 313.434 474.762ZM317.233 476.472L317.641 475.265C317.426 475.204 317.284 475.033 317.284 474.811C317.284 474.52 317.498 474.308 317.783 474.308C318.078 474.308 318.293 474.52 318.293 474.791C318.293 474.952 318.241 475.084 318.18 475.214L317.559 476.472H317.233ZM321.736 477.076V470.173H322.377V471.189C322.693 470.525 323.477 470.093 324.313 470.093C325.82 470.093 326.839 471.149 326.839 472.709C326.839 474.268 325.82 475.325 324.313 475.325C323.477 475.325 322.693 474.872 322.377 474.218V477.076H321.736ZM324.283 474.762C325.383 474.762 326.177 473.916 326.177 472.709C326.177 471.502 325.383 470.656 324.283 470.656C323.182 470.656 322.377 471.502 322.377 472.709C322.377 473.906 323.182 474.762 324.283 474.762ZM328.101 475.245V470.173H328.743V471.31C329.008 470.525 329.64 470.093 330.383 470.093C330.597 470.093 330.821 470.133 330.994 470.214V470.817C330.709 470.717 330.516 470.697 330.312 470.697C329.395 470.697 328.743 471.632 328.743 473.212V475.245H328.101ZM333.741 475.325C332.274 475.325 331.246 474.238 331.246 472.709C331.246 471.18 332.285 470.093 333.72 470.093C335.228 470.093 336.176 471.24 336.013 472.709H331.897C331.897 473.957 332.661 474.762 333.741 474.762C334.678 474.762 335.239 474.248 335.35 473.655H336.002C335.83 474.56 335.106 475.325 333.741 475.325ZM331.938 472.186H335.361C335.361 471.26 334.678 470.656 333.72 470.656C332.783 470.656 332.111 471.229 331.938 472.186ZM337.506 475.245V470.706H336.61V470.173H337.506V469.478C337.506 468.492 338.016 468 338.82 468C339.044 468 339.309 468.04 339.472 468.11V468.674C339.309 468.604 339.116 468.553 338.901 468.553C338.443 468.553 338.147 468.875 338.147 469.509V470.173H340.949V475.245H340.297V470.706H338.147V475.245H337.506ZM340.623 469.177C340.327 469.177 340.114 468.966 340.114 468.674C340.114 468.392 340.327 468.181 340.623 468.181C340.929 468.181 341.142 468.392 341.142 468.674C341.142 468.966 340.929 469.177 340.623 469.177ZM345.496 475.245L344.039 473.132L342.583 475.245H341.849L343.672 472.598L342.002 470.173H342.755L344.05 472.054L345.343 470.173H346.067L344.416 472.578L346.25 475.245H345.496ZM277.041 487.163C275.605 487.163 274.546 486.056 274.546 484.546C274.546 483.037 275.605 481.93 277.041 481.93C278.274 481.93 279.13 482.594 279.282 483.621H278.63C278.498 482.957 277.867 482.494 277.052 482.494C275.993 482.494 275.208 483.348 275.208 484.546C275.208 485.734 275.993 486.599 277.052 486.599C277.999 486.599 278.56 486.045 278.671 485.421H279.343C279.18 486.358 278.356 487.163 277.041 487.163ZM282.731 487.163C281.255 487.163 280.175 486.076 280.175 484.546C280.175 483.017 281.255 481.93 282.731 481.93C284.209 481.93 285.278 483.017 285.278 484.546C285.278 486.076 284.198 487.163 282.731 487.163ZM282.731 486.599C283.832 486.599 284.626 485.754 284.626 484.546C284.626 483.339 283.832 482.494 282.731 482.494C281.631 482.494 280.837 483.339 280.837 484.546C280.837 485.754 281.631 486.599 282.731 486.599ZM286.539 487.082V482.011H287.18V483.147C287.486 482.454 288.199 481.93 289.136 481.93C290.206 481.93 290.98 482.574 290.98 483.741V487.082H290.338V483.872C290.338 482.966 289.829 482.503 289.024 482.503C287.904 482.503 287.18 483.46 287.18 484.918V487.082H286.539ZM294.115 487.163C292.832 487.163 292.18 486.378 292.13 485.441H292.782C292.832 486.045 293.209 486.599 294.115 486.599C294.788 486.599 295.287 486.257 295.287 485.663C295.287 484.265 292.272 485.09 292.272 483.248C292.272 482.483 292.924 481.93 293.943 481.93C295.114 481.93 295.725 482.523 295.797 483.399H295.154C295.063 482.836 294.686 482.494 293.943 482.494C293.362 482.494 292.913 482.755 292.913 483.218C292.913 484.516 295.939 483.67 295.939 485.643C295.939 486.579 295.165 487.163 294.115 487.163ZM298.74 487.163C297.916 487.163 297.386 486.639 297.386 485.683V482.544H296.489V482.011H297.386V480.692H298.027V482.011H299.383V482.544H298.027V485.643C298.027 486.287 298.343 486.588 298.812 486.588C299.016 486.588 299.229 486.548 299.392 486.488V487.042C299.25 487.113 298.995 487.163 298.74 487.163ZM300.443 487.082V482.011H301.084V483.147C301.349 482.362 301.981 481.93 302.725 481.93C302.938 481.93 303.162 481.971 303.336 482.051V482.655C303.051 482.554 302.857 482.534 302.653 482.534C301.736 482.534 301.084 483.469 301.084 485.05V487.082H300.443ZM305.57 487.163C304.47 487.163 303.798 486.579 303.798 485.743C303.798 484.707 304.521 484.224 306.192 484.053L307.353 483.932V483.711C307.353 482.966 306.783 482.494 305.957 482.494C305.142 482.494 304.572 482.916 304.46 483.681H303.818C303.971 482.655 304.816 481.93 305.957 481.93C307.139 481.93 307.995 482.644 307.995 483.762V487.082H307.353V486.036C307.159 486.669 306.405 487.163 305.57 487.163ZM307.353 484.446L306.233 484.567C304.979 484.707 304.45 484.989 304.45 485.723C304.45 486.287 304.898 486.629 305.601 486.629C306.64 486.629 307.353 485.825 307.353 484.707V484.446ZM309.513 487.082V482.011H310.165V487.082H309.513ZM309.849 481.014C309.554 481.014 309.33 480.803 309.33 480.511C309.33 480.229 309.554 480.019 309.849 480.019C310.154 480.019 310.369 480.229 310.369 480.511C310.369 480.803 310.154 481.014 309.849 481.014ZM311.76 487.082V482.011H312.401V483.147C312.707 482.454 313.42 481.93 314.357 481.93C315.427 481.93 316.201 482.574 316.201 483.741V487.082H315.559V483.872C315.559 482.966 315.05 482.503 314.246 482.503C313.125 482.503 312.401 483.46 312.401 484.918V487.082H311.76ZM319.287 487.163C318.462 487.163 317.932 486.639 317.932 485.683V482.544H317.036V482.011H317.932V480.692H318.574V482.011H319.929V482.544H318.574V485.643C318.574 486.287 318.89 486.588 319.358 486.588C319.562 486.588 319.776 486.548 319.939 486.488V487.042C319.797 487.113 319.542 487.163 319.287 487.163ZM323.591 487.082V482.544H322.695V482.011H323.591V481.347C323.591 480.361 324.121 479.837 324.936 479.837C325.169 479.837 325.455 479.878 325.597 479.948V480.511C325.445 480.441 325.231 480.39 325.027 480.39C324.549 480.39 324.232 480.723 324.232 481.367V482.011H325.588V482.544H324.232V487.082H323.591ZM328.53 487.163C327.052 487.163 325.972 486.076 325.972 484.546C325.972 483.017 327.052 481.93 328.53 481.93C330.006 481.93 331.077 483.017 331.077 484.546C331.077 486.076 329.997 487.163 328.53 487.163ZM328.53 486.599C329.63 486.599 330.425 485.754 330.425 484.546C330.425 483.339 329.63 482.494 328.53 482.494C327.43 482.494 326.635 483.339 326.635 484.546C326.635 485.754 327.43 486.599 328.53 486.599ZM332.336 487.082V482.011H332.978V483.147C333.243 482.362 333.875 481.93 334.618 481.93C334.832 481.93 335.057 481.971 335.229 482.051V482.655C334.944 482.554 334.751 482.534 334.547 482.534C333.63 482.534 332.978 483.469 332.978 485.05V487.082H332.336ZM276.502 499C275.676 499 275.146 498.477 275.146 497.52V494.381H274.25V493.848H275.146V492.53H275.789V493.848H277.143V494.381H275.789V497.48C275.789 498.124 276.104 498.426 276.573 498.426C276.776 498.426 276.991 498.386 277.154 498.325V498.879C277.011 498.95 276.756 499 276.502 499ZM278.204 498.92V491.796H278.845V494.985C279.15 494.291 279.864 493.768 280.801 493.768C281.871 493.768 282.655 494.412 282.655 495.579V498.92H282.003V495.709C282.003 494.804 281.493 494.341 280.689 494.341C279.569 494.341 278.845 495.297 278.845 496.756V498.92H278.204ZM286.34 499C284.873 499 283.845 497.913 283.845 496.384C283.845 494.855 284.884 493.768 286.32 493.768C287.827 493.768 288.775 494.915 288.612 496.384H284.497C284.497 497.632 285.26 498.437 286.34 498.437C287.277 498.437 287.838 497.923 287.949 497.33H288.601C288.429 498.235 287.705 499 286.34 499ZM284.537 495.861H287.96C287.96 494.935 287.277 494.331 286.32 494.331C285.382 494.331 284.71 494.904 284.537 495.861ZM292.306 498.92V493.848H292.948V494.985C293.254 494.291 293.967 493.768 294.904 493.768C295.973 493.768 296.747 494.412 296.747 495.579V498.92H296.106V495.709C296.106 494.804 295.597 494.341 294.791 494.341C293.671 494.341 292.948 495.297 292.948 496.756V498.92H292.306ZM300.443 499C298.976 499 297.948 497.913 297.948 496.384C297.948 494.855 298.987 493.768 300.423 493.768C301.93 493.768 302.878 494.915 302.715 496.384H298.6C298.6 497.632 299.363 498.437 300.443 498.437C301.38 498.437 301.941 497.923 302.053 497.33H302.705C302.532 498.235 301.808 499 300.443 499ZM298.641 495.861H302.063C302.063 494.935 301.38 494.331 300.423 494.331C299.486 494.331 298.813 494.904 298.641 495.861ZM306.808 498.92L305.351 496.807L303.895 498.92H303.161L304.984 496.273L303.313 493.848H304.067L305.362 495.729L306.655 493.848H307.379L305.728 496.253L307.562 498.92H306.808ZM310.068 499C309.242 499 308.712 498.477 308.712 497.52V494.381H307.816V493.848H308.712V492.53H309.355V493.848H310.709V494.381H309.355V497.48C309.355 498.124 309.67 498.426 310.139 498.426C310.342 498.426 310.557 498.386 310.72 498.325V498.879C310.577 498.95 310.322 499 310.068 499ZM316.336 499C314.899 499 313.839 497.893 313.839 496.384C313.839 494.875 314.899 493.768 316.336 493.768C317.568 493.768 318.423 494.432 318.577 495.458H317.925C317.792 494.794 317.16 494.331 316.345 494.331C315.286 494.331 314.502 495.186 314.502 496.384C314.502 497.571 315.286 498.437 316.345 498.437C317.293 498.437 317.853 497.883 317.966 497.259H318.638C318.475 498.195 317.649 499 316.336 499ZM319.826 498.92V491.796H320.467V494.985C320.772 494.291 321.485 493.768 322.423 493.768C323.493 493.768 324.277 494.412 324.277 495.579V498.92H323.625V495.709C323.625 494.804 323.115 494.341 322.311 494.341C321.191 494.341 320.467 495.297 320.467 496.756V498.92H319.826ZM327.595 499C326.536 499 325.752 498.356 325.752 497.189V493.848H326.393V497.057C326.393 497.963 326.913 498.426 327.708 498.426C328.828 498.426 329.551 497.471 329.551 496.011V493.848H330.193V498.92H329.551V497.802C329.236 498.486 328.532 499 327.595 499ZM331.8 498.92V493.848H332.443V494.985C332.748 494.291 333.461 493.768 334.399 493.768C335.468 493.768 336.242 494.412 336.242 495.579V498.92H335.601V495.709C335.601 494.804 335.091 494.341 334.286 494.341C333.165 494.341 332.443 495.297 332.443 496.756V498.92H331.8ZM337.778 498.92V491.796H338.43V496.102L341.068 493.848H341.955L339.703 495.81L342.148 498.92H341.364L339.214 496.223L338.43 496.907V498.92H337.778Z" fill="white"/>
<path d="M467.25 486.922V480.078H469.928C471.247 480.078 472.109 480.841 472.109 481.994C472.109 483.148 471.247 483.911 469.928 483.911H467.93V486.922H467.25ZM467.93 483.344H469.878C470.821 483.344 471.429 482.805 471.429 481.994C471.429 481.193 470.821 480.654 469.878 480.654H467.93V483.344ZM473.161 486.922V481.994H473.799V483.099C474.063 482.336 474.692 481.916 475.433 481.916C475.645 481.916 475.868 481.955 476.041 482.034V482.62C475.757 482.522 475.564 482.503 475.361 482.503C474.448 482.503 473.799 483.411 473.799 484.947V486.922H473.161ZM478.777 487C477.316 487 476.291 485.944 476.291 484.458C476.291 482.972 477.325 481.916 478.756 481.916C480.258 481.916 481.2 483.031 481.038 484.458H476.94C476.94 485.67 477.701 486.453 478.777 486.453C479.71 486.453 480.267 485.953 480.379 485.377H481.028C480.855 486.257 480.136 487 478.777 487ZM476.981 483.95H480.389C480.389 483.05 479.71 482.464 478.756 482.464C477.823 482.464 477.154 483.02 476.981 483.95ZM484.471 487C482.97 487 481.956 485.973 481.956 484.458C481.956 482.942 482.97 481.916 484.471 481.916C485.303 481.916 486.085 482.346 486.399 482.992V480H487.038V486.922H486.399V485.925C486.085 486.559 485.303 487 484.471 487ZM484.502 486.453C485.598 486.453 486.399 485.621 486.399 484.458C486.399 483.285 485.598 482.464 484.502 482.464C483.407 482.464 482.605 483.285 482.605 484.458C482.605 485.631 483.407 486.453 484.502 486.453ZM488.619 486.922V481.994H489.269V486.922H488.619ZM488.954 481.026C488.66 481.026 488.437 480.821 488.437 480.537C488.437 480.263 488.66 480.059 488.954 480.059C489.258 480.059 489.471 480.263 489.471 480.537C489.471 480.821 489.258 481.026 488.954 481.026ZM492.987 487C491.557 487 490.502 485.925 490.502 484.458C490.502 482.992 491.557 481.916 492.987 481.916C494.215 481.916 495.067 482.561 495.219 483.559H494.569C494.438 482.913 493.809 482.464 492.998 482.464C491.943 482.464 491.161 483.294 491.161 484.458C491.161 485.612 491.943 486.453 492.998 486.453C493.941 486.453 494.499 485.914 494.61 485.308H495.279C495.117 486.218 494.296 487 492.987 487ZM498.016 487C497.194 487 496.666 486.492 496.666 485.562V482.512H495.774V481.994H496.666V480.713H497.306V481.994H498.654V482.512H497.306V485.523C497.306 486.149 497.62 486.442 498.086 486.442C498.289 486.442 498.503 486.403 498.665 486.344V486.883C498.523 486.952 498.269 487 498.016 487ZM501.702 487C500.241 487 499.218 485.944 499.218 484.458C499.218 482.972 500.252 481.916 501.682 481.916C503.183 481.916 504.127 483.031 503.965 484.458H499.867C499.867 485.67 500.627 486.453 501.702 486.453C502.635 486.453 503.194 485.953 503.305 485.377H503.954C503.782 486.257 503.061 487 501.702 487ZM499.907 483.95H503.316C503.316 483.05 502.635 482.464 501.682 482.464C500.749 482.464 500.079 483.02 499.907 483.95ZM507.398 487C505.897 487 504.882 485.973 504.882 484.458C504.882 482.942 505.897 481.916 507.398 481.916C508.23 481.916 509.01 482.346 509.325 482.992V480H509.964V486.922H509.325V485.925C509.01 486.559 508.23 487 507.398 487ZM507.428 486.453C508.523 486.453 509.325 485.621 509.325 484.458C509.325 483.285 508.523 482.464 507.428 482.464C506.332 482.464 505.532 483.285 505.532 484.458C505.532 485.631 506.332 486.453 507.428 486.453ZM516.538 487C515.706 487 514.924 486.559 514.611 485.925V486.922H513.971V480H514.611V482.992C514.924 482.346 515.706 481.916 516.538 481.916C518.039 481.916 519.053 482.942 519.053 484.458C519.053 485.973 518.039 487 516.538 487ZM516.507 486.453C517.602 486.453 518.404 485.631 518.404 484.458C518.404 483.285 517.602 482.464 516.507 482.464C515.411 482.464 514.62 483.285 514.62 484.458C514.62 485.621 515.411 486.453 516.507 486.453ZM522.085 487C521.03 487 520.249 486.374 520.249 485.24V481.994H520.888V485.113C520.888 485.992 521.406 486.442 522.197 486.442C523.313 486.442 524.032 485.514 524.032 484.096V481.994H524.672V486.922H524.032V485.836C523.718 486.501 523.018 487 522.085 487ZM527.864 487C527.043 487 526.515 486.492 526.515 485.562V482.512H525.623V481.994H526.515V480.713H527.154V481.994H528.504V482.512H527.154V485.523C527.154 486.149 527.469 486.442 527.936 486.442C528.138 486.442 528.351 486.403 528.513 486.344V486.883C528.371 486.952 528.118 487 527.864 487ZM531.975 486.922V481.994H532.615V483.099C532.919 482.425 533.629 481.916 534.562 481.916C535.627 481.916 536.398 482.542 536.398 483.676V486.922H535.759V483.802C535.759 482.923 535.252 482.473 534.45 482.473C533.334 482.473 532.615 483.402 532.615 484.819V486.922H531.975ZM540.128 487C538.658 487 537.583 485.944 537.583 484.458C537.583 482.972 538.658 481.916 540.128 481.916C541.599 481.916 542.664 482.972 542.664 484.458C542.664 485.944 541.589 487 540.128 487ZM540.128 486.453C541.224 486.453 542.015 485.631 542.015 484.458C542.015 483.285 541.224 482.464 540.128 482.464C539.033 482.464 538.241 483.285 538.241 484.458C538.241 485.631 539.033 486.453 540.128 486.453ZM545.432 487C544.611 487 544.084 486.492 544.084 485.562V482.512H543.191V481.994H544.084V480.713H544.722V481.994H546.072V482.512H544.722V485.523C544.722 486.149 545.037 486.442 545.504 486.442C545.707 486.442 545.919 486.403 546.082 486.344V486.883C545.94 486.952 545.687 487 545.432 487ZM551.683 487C550.223 487 549.199 485.944 549.199 484.458C549.199 482.972 550.233 481.916 551.663 481.916C553.164 481.916 554.108 483.031 553.946 484.458H549.848C549.848 485.67 550.608 486.453 551.683 486.453C552.616 486.453 553.175 485.953 553.286 485.377H553.935C553.763 486.257 553.042 487 551.683 487ZM549.888 483.95H553.297C553.297 483.05 552.616 482.464 551.663 482.464C550.73 482.464 550.06 483.02 549.888 483.95ZM558.021 486.922L556.571 484.869L555.12 486.922H554.39L556.206 484.35L554.543 481.994H555.293L556.581 483.822L557.87 481.994H558.589L556.946 484.33L558.772 486.922H558.021ZM561.617 487C560.156 487 559.132 485.944 559.132 484.458C559.132 482.972 560.167 481.916 561.596 481.916C563.098 481.916 564.042 483.031 563.879 484.458H559.781C559.781 485.67 560.542 486.453 561.617 486.453C562.55 486.453 563.108 485.953 563.219 485.377H563.869C563.697 486.257 562.976 487 561.617 487ZM559.822 483.95H563.23C563.23 483.05 562.55 482.464 561.596 482.464C560.663 482.464 559.994 483.02 559.822 483.95ZM567.272 487C565.841 487 564.786 485.925 564.786 484.458C564.786 482.992 565.841 481.916 567.272 481.916C568.499 481.916 569.351 482.561 569.504 483.559H568.854C568.722 482.913 568.093 482.464 567.282 482.464C566.227 482.464 565.446 483.294 565.446 484.458C565.446 485.612 566.227 486.453 567.282 486.453C568.226 486.453 568.783 485.914 568.895 485.308H569.564C569.402 486.218 568.58 487 567.272 487ZM572.522 487C571.467 487 570.686 486.374 570.686 485.24V481.994H571.325V485.113C571.325 485.992 571.843 486.442 572.634 486.442C573.75 486.442 574.469 485.514 574.469 484.096V481.994H575.109V486.922H574.469V485.836C574.155 486.501 573.455 487 572.522 487ZM578.302 487C577.48 487 576.953 486.492 576.953 485.562V482.512H576.06V481.994H576.953V480.713H577.592V481.994H578.941V482.512H577.592V485.523C577.592 486.149 577.906 486.442 578.373 486.442C578.575 486.442 578.789 486.403 578.951 486.344V486.883C578.809 486.952 578.555 487 578.302 487ZM581.988 487C580.528 487 579.503 485.944 579.503 484.458C579.503 482.972 580.537 481.916 581.968 481.916C583.469 481.916 584.412 483.031 584.25 484.458H580.152C580.152 485.67 580.913 486.453 581.988 486.453C582.922 486.453 583.479 485.953 583.591 485.377H584.24C584.067 486.257 583.348 487 581.988 487ZM580.192 483.95H583.601C583.601 483.05 582.922 482.464 581.968 482.464C581.035 482.464 580.365 483.02 580.192 483.95ZM587.684 487C586.183 487 585.169 485.973 585.169 484.458C585.169 482.942 586.183 481.916 587.684 481.916C588.516 481.916 589.297 482.346 589.612 482.992V480H590.25V486.922H589.612V485.925C589.297 486.559 588.516 487 587.684 487ZM587.714 486.453C588.81 486.453 589.612 485.621 589.612 484.458C589.612 483.285 588.81 482.464 587.714 482.464C586.619 482.464 585.818 483.285 585.818 484.458C585.818 485.631 586.619 486.453 587.714 486.453Z" fill="white"/>
<path d="M463.541 376.921V370.601H461.25V370.02H466.52V370.601H464.228V376.921H463.541ZM467.473 376.921V371.952H468.119V376.921H467.473ZM467.807 370.975C467.513 370.975 467.291 370.769 467.291 370.483C467.291 370.206 467.513 370 467.807 370C468.11 370 468.321 370.206 468.321 370.483C468.321 370.769 468.11 370.975 467.807 370.975ZM469.7 376.921V371.952H470.337V373.066C470.609 372.406 471.225 371.873 472.083 371.873C472.972 371.873 473.588 372.375 473.719 373.155C474.052 372.406 474.719 371.873 475.567 371.873C476.626 371.873 477.313 372.553 477.313 373.589V376.921H476.678V373.716C476.678 372.928 476.233 372.435 475.486 372.435C474.466 372.435 473.82 373.372 473.82 374.604V376.921H473.184V373.716C473.184 372.928 472.749 372.435 471.993 372.435C470.972 372.435 470.337 373.372 470.337 374.604V376.921H469.7ZM480.98 377C479.526 377 478.507 375.935 478.507 374.437C478.507 372.938 479.537 371.873 480.96 371.873C482.454 371.873 483.394 372.997 483.232 374.437H479.153C479.153 375.659 479.91 376.448 480.98 376.448C481.909 376.448 482.465 375.945 482.575 375.363H483.221C483.05 376.251 482.333 377 480.98 377ZM479.193 373.924H482.586C482.586 373.017 481.909 372.425 480.96 372.425C480.031 372.425 479.364 372.987 479.193 373.924Z" fill="white"/>
<path d="M4.25 487.096V480.08H4.94875V486.504H8.77622V487.096H4.25ZM11.4984 487.176C9.99666 487.176 8.94333 486.094 8.94333 484.57C8.94333 483.047 10.0071 481.964 11.4776 481.964C13.0211 481.964 13.991 483.107 13.8241 484.57H9.61079C9.61079 485.813 10.393 486.615 11.4984 486.615C12.4579 486.615 13.0315 486.103 13.1462 485.512H13.8137C13.6364 486.414 12.8959 487.176 11.4984 487.176ZM9.65251 484.049H13.1567C13.1567 483.127 12.4579 482.526 11.4776 482.526C10.5181 482.526 9.8298 483.096 9.65251 484.049ZM17.2916 489C16.0297 489 15.1954 488.399 15.0389 487.487H15.7064C15.8941 488.149 16.4781 488.439 17.2916 488.439C18.3762 488.439 19.1271 487.857 19.1271 486.875V485.893C18.8143 486.484 18.0425 486.885 17.2082 486.885C15.7898 486.885 14.7886 485.883 14.7886 484.43C14.7886 482.947 15.7794 481.964 17.229 481.964C18.0529 481.964 18.8143 482.355 19.1271 482.947V482.045H19.7946V486.825C19.7946 488.169 18.8038 489 17.2916 489ZM17.2916 486.323C18.3554 486.323 19.1376 485.532 19.1376 484.43C19.1376 483.297 18.3554 482.526 17.2916 482.526C16.2279 482.526 15.4457 483.297 15.4457 484.43C15.4457 485.542 16.2279 486.323 17.2916 486.323ZM23.626 487.176C22.1242 487.176 21.0709 486.094 21.0709 484.57C21.0709 483.047 22.1346 481.964 23.6051 481.964C25.1486 481.964 26.1179 483.107 25.9511 484.57H21.7383C21.7383 485.813 22.5205 486.615 23.626 486.615C24.5855 486.615 25.1584 486.103 25.2738 485.512H25.9412C25.7633 486.414 25.0235 487.176 23.626 487.176ZM21.78 484.049H25.2836C25.2836 483.127 24.5855 482.526 23.6051 482.526C22.6457 482.526 21.9573 483.096 21.78 484.049ZM27.2504 487.096V482.045H27.9068V483.176C28.2197 482.486 28.9497 481.964 29.9092 481.964C31.0049 481.964 31.7975 482.606 31.7975 483.768V487.096H31.1398V483.898C31.1398 482.996 30.6184 482.535 29.7951 482.535C28.6479 482.535 27.9068 483.488 27.9068 484.94V487.096H27.2504ZM35.6121 487.176C34.0686 487.176 33.0256 486.123 33.0256 484.57C33.0256 483.016 34.0686 481.964 35.6121 481.964C36.4672 481.964 37.2697 482.405 37.5936 483.067V480H38.25V487.096H37.5936V486.074C37.2697 486.724 36.4672 487.176 35.6121 487.176ZM35.6427 486.615C36.7691 486.615 37.5936 485.762 37.5936 484.57C37.5936 483.367 36.7691 482.526 35.6427 482.526C34.5164 482.526 33.6931 483.367 33.6931 484.57C33.6931 485.773 34.5164 486.615 35.6427 486.615Z" fill="white"/>
<path d="M966.074 362.933C966.309 362.693 966.309 362.307 966.074 362.067L962.251 358.179C962.016 357.94 961.636 357.94 961.4 358.179C961.166 358.418 961.166 358.804 961.4 359.044L964.8 362.5L961.4 365.956C961.166 366.196 961.166 366.582 961.4 366.821C961.636 367.06 962.016 367.06 962.251 366.821L966.074 362.933ZM965.649 362.5V361.889H3.25V362.5V363.111H965.649V362.5Z" fill="white"/>
</svg>
