<svg width="948" height="389" viewBox="11 129 948 389" fill="none" xmlns="http://www.w3.org/2000/svg">
<path d="M281.115 130H32.8848C21.3504 130 12 139.358 12 150.903V496.097C12 507.642 21.3504 517 32.8848 517H281.115C292.65 517 302 507.642 302 496.097V150.903C302 139.358 292.65 130 281.115 130Z" fill="#262626" stroke="#4952D9"/>
<path d="M146.8 193.943V191.82H143V191.185L146.659 186H147.486V191.151H148.545V191.82H147.486V193.943H146.8ZM143.716 191.151H146.8V186.84L143.716 191.151ZM150.655 193.943V186.941C150.333 187.44 149.697 187.826 148.931 187.997V187.327C149.648 187.18 150.282 186.714 150.746 186H151.341V193.943H150.655ZM156.415 193.943V191.82H152.614V191.185L156.274 186H157.1V191.151H158.158V191.82H157.1V193.943H156.415ZM153.331 191.151H156.415V186.84L153.331 191.151ZM159.235 194C158.952 194 158.741 193.761 158.741 193.443C158.741 193.126 158.952 192.887 159.235 192.887C159.517 192.887 159.739 193.126 159.739 193.443C159.739 193.761 159.517 194 159.235 194ZM161.264 193.943C161.465 191.593 162.695 188.779 164.438 186.669H160.305V186H165.164V186.669C163.349 188.927 162.09 191.741 161.938 193.943H161.264ZM167.315 193.943V186.941C166.992 187.44 166.356 187.826 165.59 187.997V187.327C166.307 187.18 166.941 186.714 167.405 186H168V193.943H167.315Z" fill="white"/>
<path d="M70.5401 194C69.041 194 68.0833 193.017 68 191.642H68.6662C68.7801 192.659 69.4672 193.34 70.5291 193.34C71.6228 193.34 72.4029 192.536 72.4029 191.453C72.4029 190.38 71.695 189.675 70.7275 189.675C70.3209 189.675 69.978 189.732 69.6546 189.844V189.307L71.9351 186.748H68.218V186.089H72.7679V186.715L70.5401 189.161C70.6442 189.139 70.7581 189.128 70.8941 189.128C72.2364 189.128 73.101 190.089 73.101 191.475C73.101 192.927 72.0392 194 70.5401 194ZM76.8389 194C75.1733 194 74.1531 192.503 74.1531 190C74.1531 187.497 75.1733 186 76.8389 186C78.5046 186 79.5358 187.497 79.5358 190C79.5358 192.503 78.5046 194 76.8389 194ZM76.8389 193.34C78.0992 193.34 78.8279 192.123 78.8279 190C78.8279 187.877 78.0992 186.659 76.8389 186.659C75.5799 186.659 74.8512 187.877 74.8512 190C74.8512 192.123 75.5799 193.34 76.8389 193.34ZM83.1255 194C81.6571 194 80.6785 193.072 80.5536 191.687H81.21C81.3558 192.704 82.0735 193.34 83.1145 193.34C84.1666 193.34 84.9369 192.503 84.9369 191.341C84.9369 190.156 84.1764 189.295 83.1145 189.295C82.3025 189.295 81.6889 189.709 81.3974 190.346H80.741L81.3239 186.089H85.1243V186.748H81.8555L81.4599 189.508C81.8445 189.039 82.4482 188.682 83.2603 188.682C84.6344 188.682 85.6338 189.787 85.6338 191.341C85.6338 192.883 84.5928 194 83.1255 194ZM87.0851 193.967C86.7936 193.967 86.5744 193.732 86.5744 193.419C86.5744 193.106 86.7936 192.871 87.0851 192.871C87.3766 192.871 87.6056 193.106 87.6056 193.419C87.6056 193.732 87.3766 193.967 87.0851 193.967ZM91.7746 193.911V191.821H87.8493V191.195L91.6289 186.089H92.4825V191.162H93.575V191.821H92.4825V193.911H91.7746ZM88.5891 191.162H91.7746V186.916L88.5891 191.162ZM98.1984 193.911V191.821H94.2743V191.195L98.0527 186.089H98.9063V191.162H100V191.821H98.9063V193.911H98.1984ZM95.0129 191.162H98.1984V186.916L95.0129 191.162Z" fill="white"/>
<path d="M62.3287 162.938C60.3434 162.938 59 161.749 59 159.993V154.918H60.3909V159.993C60.3909 161.058 61.1874 161.794 62.3287 161.794C63.458 161.794 64.2427 161.058 64.2427 159.993V154.918H65.6454V159.993C65.6454 161.749 64.3021 162.938 62.3287 162.938ZM67.33 162.848V154.918H70.6587C72.2873 154.918 73.3572 155.858 73.3572 157.274C73.3572 158.713 72.2873 159.642 70.6587 159.642H68.7209V162.848H67.33ZM68.7209 158.509H70.516C71.3957 158.509 71.9663 158.022 71.9663 157.274C71.9663 156.538 71.3957 156.062 70.516 156.062H68.7209V158.509ZM79.9183 162.848V159.268H75.9239V162.848H74.5211V154.918H75.9239V158.124H79.9183V154.918H81.3211V162.848H79.9183ZM86.792 164.581C85.8766 163.018 85.3654 161.092 85.3654 159.29C85.3654 157.546 85.8528 155.597 86.792 154H87.9808C87.0535 155.722 86.5899 157.501 86.5899 159.29C86.5899 161.205 87.113 162.984 87.9808 164.581H86.792ZM88.7547 162.848V157.138H90.0505V158.01C90.3953 157.387 91.0729 157.047 91.8575 157.047C92.1072 157.047 92.333 157.081 92.5351 157.172V158.35C92.226 158.237 92.0002 158.214 91.7386 158.214C90.8114 158.214 90.0505 158.996 90.0505 160.639V162.848H88.7547ZM93.4838 162.848V157.138H94.7796V162.848H93.4838ZM94.1376 156.277C93.6383 156.277 93.2698 155.937 93.2698 155.473C93.2698 155.008 93.6383 154.668 94.1376 154.668C94.6369 154.668 95.0174 155.008 95.0174 155.473C95.0174 155.937 94.6369 156.277 94.1376 156.277ZM96.3334 162.848V157.138H97.6292V157.988C97.9739 157.489 98.6991 157.047 99.6501 157.047C100.934 157.047 101.873 157.829 101.873 159.143V162.848H100.577V159.415C100.577 158.599 100.078 158.135 99.3173 158.135C98.2711 158.135 97.6292 158.985 97.6292 160.378V162.848H96.3334ZM106.025 165C104.432 165 103.433 164.196 103.302 163.165H104.598C104.764 163.754 105.287 164.003 106.025 164.003C106.999 164.003 107.713 163.527 107.713 162.598V161.771C107.392 162.259 106.631 162.576 105.811 162.576C104.194 162.576 103.029 161.477 103.029 159.812C103.029 158.124 104.182 157.047 105.834 157.047C106.655 157.047 107.368 157.353 107.713 157.84V157.138H109.02V162.474C109.02 164.082 107.867 165 106.025 165ZM106.036 161.511C106.999 161.511 107.725 160.808 107.725 159.812C107.725 158.803 106.999 158.112 106.036 158.112C105.062 158.112 104.348 158.803 104.348 159.812C104.348 160.82 105.062 161.511 106.036 161.511ZM112.609 162.938C111.1 162.938 110.244 162.1 110.172 160.956H111.397C111.444 161.488 111.801 161.941 112.609 161.941C113.204 161.941 113.62 161.658 113.62 161.194C113.62 159.97 110.315 160.763 110.315 158.656C110.315 157.75 111.1 157.047 112.395 157.047C113.858 157.047 114.654 157.761 114.761 158.815H113.537C113.442 158.339 113.073 158.01 112.395 158.01C111.908 158.01 111.528 158.214 111.528 158.577C111.528 159.721 114.868 158.905 114.868 161.148C114.868 162.225 113.917 162.938 112.609 162.938ZM115.373 162.848L119.106 154.918H120.45L116.705 162.848H115.373ZM121.428 162.848V154.827H122.724V157.988C123.069 157.489 123.794 157.047 124.745 157.047C126.029 157.047 126.98 157.829 126.98 159.143V162.848H125.672V159.415C125.672 158.599 125.173 158.135 124.412 158.135C123.366 158.135 122.724 158.985 122.724 160.378V162.848H121.428ZM131.202 162.938C129.407 162.938 128.111 161.703 128.111 159.981C128.111 158.26 129.407 157.047 131.202 157.047C132.997 157.047 134.293 158.26 134.293 159.981C134.293 161.715 132.997 162.938 131.202 162.938ZM131.202 161.873C132.248 161.873 132.974 161.103 132.974 159.981C132.974 158.883 132.248 158.112 131.202 158.112C130.168 158.112 129.431 158.871 129.431 159.981C129.431 161.103 130.168 161.873 131.202 161.873ZM137.648 162.938C136.364 162.938 135.425 162.157 135.425 160.876V157.138H136.733V160.559C136.733 161.375 137.22 161.851 137.993 161.851C139.027 161.851 139.681 160.99 139.681 159.596V157.138H140.977V162.848H139.681V161.998C139.336 162.496 138.611 162.938 137.648 162.938ZM142.525 162.848V157.138H143.82V158.01C144.165 157.387 144.843 157.047 145.627 157.047C145.877 157.047 146.103 157.081 146.305 157.172V158.35C145.996 158.237 145.77 158.214 145.508 158.214C144.581 158.214 143.82 158.996 143.82 160.639V162.848H142.525ZM146.385 164.581C147.252 162.984 147.776 161.205 147.776 159.29C147.776 157.501 147.324 155.722 146.385 154H147.573C148.513 155.597 149 157.546 149 159.29C149 161.092 148.489 163.018 147.573 164.581H146.385Z" fill="white"/>
<path d="M216.483 194C215.065 194 214.121 193.072 214 191.687H214.634C214.774 192.704 215.467 193.34 216.472 193.34C217.488 193.34 218.231 192.503 218.231 191.341C218.231 190.156 217.497 189.295 216.472 189.295C215.688 189.295 215.095 189.709 214.815 190.346H214.181L214.744 186.089H218.412V186.748H215.257L214.874 189.508C215.246 189.039 215.829 188.682 216.613 188.682C217.939 188.682 218.904 189.787 218.904 191.341C218.904 192.883 217.899 194 216.483 194ZM222.482 194C220.875 194 219.89 192.503 219.89 190C219.89 187.497 220.875 186 222.482 186C224.09 186 225.086 187.497 225.086 190C225.086 192.503 224.09 194 222.482 194ZM222.482 193.34C223.699 193.34 224.402 192.123 224.402 190C224.402 187.877 223.699 186.659 222.482 186.659C221.267 186.659 220.564 187.877 220.564 190C220.564 192.123 221.267 193.34 222.482 193.34ZM227.596 193.911V187.016C227.274 187.508 226.642 187.888 225.878 188.056V187.396C226.591 187.251 227.224 186.793 227.687 186.089H228.279V193.911H227.596ZM230.292 193.967C230.011 193.967 229.799 193.732 229.799 193.419C229.799 193.106 230.011 192.871 230.292 192.871C230.574 192.871 230.795 193.106 230.795 193.419C230.795 193.732 230.574 193.967 230.292 193.967ZM234.236 194C232.488 194 231.603 192.57 231.603 190.425C231.603 187.731 232.689 186 234.477 186C235.654 186 236.558 186.703 236.699 187.899H236.045C235.904 187.105 235.252 186.636 234.477 186.636C232.981 186.636 232.338 188.235 232.237 190.022C232.628 189.173 233.432 188.749 234.307 188.749C235.714 188.749 236.679 189.809 236.679 191.341C236.679 192.905 235.663 194 234.236 194ZM234.207 193.362C235.261 193.362 236.015 192.525 236.015 191.351C236.015 190.167 235.261 189.34 234.207 189.34C233.141 189.34 232.398 190.179 232.398 191.351C232.398 192.525 233.141 193.362 234.207 193.362ZM240.397 194C238.789 194 237.804 192.503 237.804 190C237.804 187.497 238.789 186 240.397 186C242.005 186 243 187.497 243 190C243 192.503 242.005 194 240.397 194ZM240.397 193.34C241.613 193.34 242.317 192.123 242.317 190C242.317 187.877 241.613 186.659 240.397 186.659C239.181 186.659 238.478 187.877 238.478 190C238.478 192.123 239.181 193.34 240.397 193.34Z" fill="white"/>
<path d="M247.939 255H210.061C204.505 255 200 259.557 200 265.178V426.822C200 432.443 204.505 437 210.061 437H247.939C253.495 437 258 432.443 258 426.822V265.178C258 259.557 253.495 255 247.939 255Z" fill="#77767D"/>
<path d="M247.939 255H210.061C204.505 255 200 259.557 200 265.178V426.822C200 432.443 204.505 437 210.061 437H247.939C253.495 437 258 432.443 258 426.822V265.178C258 259.557 253.495 255 247.939 255Z" stroke="#77767D"/>
<path d="M229 224.608V224H228V224.608H228.5H229ZM228.5 283H229V224.608H228.5H228V283H228.5Z" fill="white"/>
<path d="M220.593 224H220V225.198H220.593V224.599V224ZM220.593 281.802H220V283H220.593V282.401V281.802ZM237 224.599V224H220.593V224.599V225.198H237V224.599ZM237 282.401V281.802H220.593V282.401V283H237V282.401Z" fill="white"/>
<path d="M175.939 288H138.061C132.505 288 128 292.536 128 298.132V426.868C128 432.464 132.505 437 138.061 437H175.939C181.495 437 186 432.464 186 426.868V298.132C186 292.536 181.495 288 175.939 288Z" fill="#4952D9"/>
<path d="M175.939 288H138.061C132.505 288 128 292.536 128 298.132V426.868C128 432.464 132.505 437 138.061 437H175.939C181.495 437 186 432.464 186 426.868V298.132C186 292.536 181.495 288 175.939 288Z" stroke="#4952D9"/>
<path d="M158 252.599V252H157V252.599H157.5H158ZM157.5 314H158V252.599H157.5H157V314H157.5Z" fill="white"/>
<path d="M148.593 252H148V253.179H148.593V252.59V252ZM148.593 312.821H148V314H148.593V313.41V312.821ZM165 252.59V252H148.593V252.59V253.179H165V252.59ZM165 313.41V312.821H148.593V313.41V314H165V313.41Z" fill="white"/>
<path d="M103.939 321H66.0612C60.5046 321 56 325.551 56 331.165V426.835C56 432.449 60.5046 437 66.0612 437H103.939C109.495 437 114 432.449 114 426.835V331.165C114 325.551 109.495 321 103.939 321Z" fill="#FF8633"/>
<path d="M103.939 321H66.0612C60.5046 321 56 325.551 56 331.165V426.835C56 432.449 60.5046 437 66.0612 437H103.939C109.495 437 114 432.449 114 426.835V331.165C114 325.551 109.495 321 103.939 321Z" stroke="#FF8633"/>
<path d="M86 293.601V293H85V293.601H85.5H86ZM85.5 351H86V293.601H85.5H85V351H85.5Z" fill="white"/>
<path d="M76.5932 292H76V293.224H76.5932V292.612V292ZM76.5932 350.776H76V352H76.5932V351.388V350.776ZM93 292.612V292H76.5932V292.612V293.224H93V292.612ZM93 351.388V350.776H76.5932V351.388V352H93V351.388Z" fill="white"/>
<path d="M609.971 130H360.029C348.415 130 339 139.358 339 150.903V496.097C339 507.642 348.415 517 360.029 517H609.971C621.585 517 631 507.642 631 496.097V150.903C631 139.358 621.585 130 609.971 130Z" fill="#262626" stroke="#4952D9"/>
<path d="M470 193.911V193.295L472.739 190.48C473.553 189.642 473.974 189.005 473.974 188.279C473.974 187.296 473.312 186.659 472.398 186.659C471.334 186.659 470.692 187.463 470.772 188.714H470.1C470.02 187.105 470.943 186 472.409 186C473.723 186 474.646 186.882 474.646 188.279C474.646 189.228 474.135 190.033 473.131 190.994L470.933 193.251H474.677V193.911H470ZM478.073 194C476.658 194 475.714 193.072 475.594 191.687H476.227C476.367 192.704 477.059 193.34 478.063 193.34C479.077 193.34 479.819 192.503 479.819 191.341C479.819 190.156 479.086 189.295 478.063 189.295C477.28 189.295 476.688 189.709 476.407 190.346H475.774L476.336 186.089H480V186.748H476.849L476.468 189.508C476.838 189.039 477.42 188.682 478.203 188.682C479.528 188.682 480.491 189.787 480.491 191.341C480.491 192.883 479.488 194 478.073 194ZM482.03 193.911C482.23 191.597 483.455 188.826 485.191 186.748H481.077V186.089H485.914V186.748C484.107 188.972 482.852 191.743 482.702 193.911H482.03ZM486.23 193.967C485.949 193.967 485.739 193.732 485.739 193.419C485.739 193.106 485.949 192.871 486.23 192.871C486.511 192.871 486.732 193.106 486.732 193.419C486.732 193.732 486.511 193.967 486.23 193.967ZM490.1 194C488.495 194 487.511 192.503 487.511 190C487.511 187.497 488.495 186 490.1 186C491.706 186 492.699 187.497 492.699 190C492.699 192.503 491.706 194 490.1 194ZM490.1 193.34C491.314 193.34 492.017 192.123 492.017 190C492.017 187.877 491.314 186.659 490.1 186.659C488.885 186.659 488.183 187.877 488.183 190C488.183 192.123 488.885 193.34 490.1 193.34ZM496.4 194C494.795 194 493.811 192.503 493.811 190C493.811 187.497 494.795 186 496.4 186C498.006 186 499 187.497 499 190C499 192.503 498.006 194 496.4 194ZM496.4 193.34C497.615 193.34 498.318 192.123 498.318 190C498.318 187.877 497.615 186.659 496.4 186.659C495.187 186.659 494.484 187.877 494.484 190C494.484 192.123 495.187 193.34 496.4 193.34Z" fill="white"/>
<path d="M400.764 193.91V186.937C400.434 187.434 399.784 187.819 399 187.989V187.321C399.732 187.175 400.383 186.711 400.857 186H401.465V193.91H400.764ZM403.636 193.91C403.842 191.57 405.101 188.768 406.885 186.666H402.655V186H407.628V186.666C405.771 188.915 404.482 191.718 404.326 193.91H403.636ZM411.182 193.91V191.796H407.293V191.163L411.038 186H411.884V191.13H412.968V191.796H411.884V193.91H411.182ZM408.025 191.13H411.182V186.836L408.025 191.13ZM414.069 193.967C413.78 193.967 413.564 193.729 413.564 193.412C413.564 193.096 413.78 192.858 414.069 192.858C414.358 192.858 414.585 193.096 414.585 193.412C414.585 193.729 414.358 193.967 414.069 193.967ZM418.011 194C416.557 194 415.587 193.061 415.464 191.66H416.113C416.257 192.689 416.97 193.333 418.002 193.333C419.043 193.333 419.807 192.486 419.807 191.311C419.807 190.113 419.054 189.242 418.002 189.242C417.197 189.242 416.588 189.661 416.299 190.304H415.649L416.227 186H419.992V186.666H416.753L416.361 189.458C416.743 188.983 417.341 188.621 418.146 188.621C419.508 188.621 420.499 189.739 420.499 191.311C420.499 192.87 419.467 194 418.011 194ZM425.214 193.91V191.796H421.325V191.163L425.07 186H425.916V191.13H427V191.796H425.916V193.91H425.214ZM422.057 191.13H425.214V186.836L422.057 191.13Z" fill="white"/>
<path d="M387.596 161.912V155.357H385V154.252H391.616V155.357H389.02V161.912H387.596ZM391.408 161.912V156.397H392.724V157.239C393.075 156.637 393.763 156.309 394.56 156.309C394.813 156.309 395.042 156.342 395.248 156.43V157.568C394.934 157.458 394.704 157.436 394.439 157.436C393.497 157.436 392.724 158.192 392.724 159.778V161.912H391.408ZM397.858 162C396.554 162 395.733 161.311 395.733 160.402C395.733 159.308 396.554 158.739 398.437 158.553L399.681 158.443V158.301C399.681 157.655 399.162 157.272 398.389 157.272C397.665 157.272 397.146 157.59 397.049 158.235H395.745C395.926 157.108 397.001 156.309 398.389 156.309C399.91 156.309 400.997 157.086 400.997 158.443V161.912H399.681V161.114C399.415 161.606 398.679 162 397.858 162ZM399.681 159.33L398.498 159.461C397.484 159.57 397.049 159.8 397.049 160.347C397.049 160.818 397.447 161.081 398.075 161.081C399.029 161.081 399.681 160.358 399.681 159.483V159.33ZM402.488 161.912V156.397H403.804V157.218C404.154 156.736 404.891 156.309 405.856 156.309C407.16 156.309 408.114 157.064 408.114 158.334V161.912H406.798V158.596C406.798 157.808 406.291 157.36 405.518 157.36C404.456 157.36 403.804 158.181 403.804 159.527V161.912H402.488ZM411.704 162C410.17 162 409.301 161.19 409.228 160.085H410.472C410.52 160.599 410.883 161.037 411.704 161.037C412.307 161.037 412.73 160.763 412.73 160.315C412.73 159.133 409.373 159.899 409.373 157.863C409.373 156.988 410.17 156.309 411.486 156.309C412.971 156.309 413.78 156.999 413.889 158.016H412.645C412.549 157.557 412.174 157.239 411.486 157.239C410.991 157.239 410.605 157.436 410.605 157.787C410.605 158.892 413.997 158.104 413.997 160.271C413.997 161.311 413.032 162 411.704 162ZM415.631 161.912V157.382H414.629V156.397H415.631V155.926C415.631 154.7 416.392 154 417.563 154C417.925 154 418.299 154.055 418.468 154.12V155.16C418.287 155.083 418.046 155.04 417.84 155.04C417.309 155.04 416.959 155.357 416.959 155.97V156.397H418.444V157.382H416.959V161.912H415.631ZM421.914 162C420.055 162 418.835 160.818 418.835 159.155C418.835 157.491 420.103 156.309 421.866 156.309C423.797 156.309 424.98 157.666 424.739 159.373H420.163C420.26 160.413 420.972 160.993 421.914 160.993C422.759 160.993 423.278 160.599 423.399 160.129H424.727C424.497 161.201 423.604 162 421.914 162ZM420.224 158.465H423.375C423.351 157.732 422.747 157.272 421.866 157.272C421.008 157.272 420.429 157.688 420.224 158.465ZM425.993 161.912V156.397H427.309V157.239C427.659 156.637 428.348 156.309 429.144 156.309C429.398 156.309 429.627 156.342 429.833 156.43V157.568C429.519 157.458 429.289 157.436 429.024 157.436C428.082 157.436 427.309 158.192 427.309 159.778V161.912H425.993ZM432.78 162C431.246 162 430.377 161.19 430.305 160.085H431.548C431.597 160.599 431.959 161.037 432.78 161.037C433.383 161.037 433.806 160.763 433.806 160.315C433.806 159.133 430.45 159.899 430.45 157.863C430.45 156.988 431.246 156.309 432.562 156.309C434.047 156.309 434.856 156.999 434.965 158.016H433.721C433.625 157.557 433.251 157.239 432.562 157.239C432.067 157.239 431.681 157.436 431.681 157.787C431.681 158.892 435.074 158.104 435.074 160.271C435.074 161.311 434.108 162 432.78 162ZM435.587 161.912L439.378 154.252H440.742L436.939 161.912H435.587ZM441.736 161.912V154.164H443.052V157.218C443.402 156.736 444.138 156.309 445.104 156.309C446.408 156.309 447.374 157.064 447.374 158.334V161.912H446.046V158.596C446.046 157.808 445.539 157.36 444.766 157.36C443.704 157.36 443.052 158.181 443.052 159.527V161.912H441.736ZM451.662 162C449.839 162 448.523 160.807 448.523 159.144C448.523 157.48 449.839 156.309 451.662 156.309C453.485 156.309 454.801 157.48 454.801 159.144C454.801 160.818 453.485 162 451.662 162ZM451.662 160.971C452.725 160.971 453.461 160.227 453.461 159.144C453.461 158.082 452.725 157.338 451.662 157.338C450.612 157.338 449.863 158.071 449.863 159.144C449.863 160.227 450.612 160.971 451.662 160.971ZM458.208 162C456.904 162 455.951 161.245 455.951 160.008V156.397H457.279V159.702C457.279 160.49 457.774 160.949 458.558 160.949C459.609 160.949 460.273 160.118 460.273 158.772V156.397H461.589V161.912H460.273V161.092C459.923 161.573 459.186 162 458.208 162ZM463.161 161.912V156.397H464.477V157.239C464.827 156.637 465.515 156.309 466.312 156.309C466.565 156.309 466.795 156.342 467 156.43V157.568C466.686 157.458 466.457 157.436 466.191 157.436C465.249 157.436 464.477 158.192 464.477 159.778V161.912H463.161Z" fill="white"/>
<path d="M543.389 194C541.979 194 541.078 193.017 541 191.642H541.626C541.734 192.659 542.38 193.34 543.378 193.34C544.407 193.34 545.14 192.536 545.14 191.453C545.14 190.38 544.475 189.675 543.565 189.675C543.182 189.675 542.86 189.732 542.556 189.844V189.307L544.7 186.748H541.205V186.089H545.483V186.715L543.389 189.161C543.486 189.139 543.594 189.128 543.721 189.128C544.984 189.128 545.797 190.089 545.797 191.475C545.797 192.927 544.798 194 543.389 194ZM549.311 194C547.745 194 546.786 192.503 546.786 190C546.786 187.497 547.745 186 549.311 186C550.878 186 551.847 187.497 551.847 190C551.847 192.503 550.878 194 549.311 194ZM549.311 193.34C550.496 193.34 551.182 192.123 551.182 190C551.182 187.877 550.496 186.659 549.311 186.659C548.127 186.659 547.442 187.877 547.442 190C547.442 192.123 548.127 193.34 549.311 193.34ZM555.125 194C553.715 194 552.815 193.017 552.736 191.642H553.363C553.47 192.659 554.116 193.34 555.114 193.34C556.143 193.34 556.876 192.536 556.876 191.453C556.876 190.38 556.211 189.675 555.301 189.675C554.919 189.675 554.596 189.732 554.292 189.844V189.307L556.437 186.748H552.941V186.089H557.22V186.715L555.125 189.161C555.223 189.139 555.33 189.128 555.458 189.128C556.72 189.128 557.533 190.089 557.533 191.475C557.533 192.927 556.534 194 555.125 194ZM558.888 193.967C558.614 193.967 558.409 193.732 558.409 193.419C558.409 193.106 558.614 192.871 558.888 192.871C559.162 192.871 559.378 193.106 559.378 193.419C559.378 193.732 559.162 193.967 558.888 193.967ZM560.354 193.911V193.295L563.026 190.48C563.82 189.642 564.231 189.005 564.231 188.279C564.231 187.296 563.585 186.659 562.693 186.659C561.656 186.659 561.029 187.463 561.107 188.714H560.452C560.374 187.105 561.274 186 562.704 186C563.985 186 564.886 186.882 564.886 188.279C564.886 189.228 564.387 190.033 563.408 190.994L561.264 193.251H564.916V193.911H560.354ZM568.464 194C566.898 194 565.939 192.503 565.939 190C565.939 187.497 566.898 186 568.464 186C570.03 186 571 187.497 571 190C571 192.503 570.03 194 568.464 194ZM568.464 193.34C569.649 193.34 570.334 192.123 570.334 190C570.334 187.877 569.649 186.659 568.464 186.659C567.28 186.659 566.595 187.877 566.595 190C566.595 192.123 567.28 193.34 568.464 193.34Z" fill="white"/>
<path d="M937.115 130H688.885C677.35 130 668 139.358 668 150.903V496.097C668 507.642 677.35 517 688.885 517H937.115C948.65 517 958 507.642 958 496.097V150.903C958 139.358 948.65 130 937.115 130Z" fill="#262626" stroke="#4952D9"/>
<path d="M802.692 194C801.022 194 800 192.503 800 190C800 187.497 801.022 186 802.692 186C804.361 186 805.393 187.497 805.393 190C805.393 192.503 804.361 194 802.692 194ZM802.692 193.34C803.953 193.34 804.684 192.123 804.684 190C804.684 187.877 803.953 186.659 802.692 186.659C801.429 186.659 800.698 187.877 800.698 190C800.698 192.123 801.429 193.34 802.692 193.34ZM806.704 193.967C806.412 193.967 806.193 193.732 806.193 193.419C806.193 193.106 806.412 192.871 806.704 192.871C806.996 192.871 807.225 193.106 807.225 193.419C807.225 193.732 806.996 193.967 806.704 193.967ZM810.749 194C809.247 194 808.287 193.017 808.204 191.642H808.871C808.985 192.659 809.674 193.34 810.738 193.34C811.834 193.34 812.616 192.536 812.616 191.453C812.616 190.38 811.907 189.675 810.937 189.675C810.529 189.675 810.186 189.732 809.862 189.844V189.307L812.147 186.748H808.422V186.089H812.982V186.715L810.749 189.161C810.854 189.139 810.968 189.128 811.104 189.128C812.449 189.128 813.316 190.089 813.316 191.475C813.316 192.927 812.251 194 810.749 194ZM814.997 193.911C815.206 191.597 816.478 188.826 818.284 186.748H814.007V186.089H819.035V186.748C817.157 188.972 815.853 191.743 815.697 193.911H814.997ZM822.299 194C820.629 194 819.607 192.503 819.607 190C819.607 187.497 820.629 186 822.299 186C823.968 186 825 187.497 825 190C825 192.503 823.968 194 822.299 194ZM822.299 193.34C823.56 193.34 824.291 192.123 824.291 190C824.291 187.877 823.56 186.659 822.299 186.659C821.036 186.659 820.305 187.877 820.305 190C820.305 192.123 821.036 193.34 822.299 193.34Z" fill="white"/>
<path d="M732.522 194C730.958 194 730 192.503 730 190C730 187.497 730.958 186 732.522 186C734.085 186 735.052 187.497 735.052 190C735.052 192.503 734.085 194 732.522 194ZM732.522 193.34C733.704 193.34 734.388 192.123 734.388 190C734.388 187.877 733.704 186.659 732.522 186.659C731.338 186.659 730.654 187.877 730.654 190C730.654 192.123 731.338 193.34 732.522 193.34ZM736.281 193.967C736.007 193.967 735.802 193.732 735.802 193.419C735.802 193.106 736.007 192.871 736.281 192.871C736.554 192.871 736.769 193.106 736.769 193.419C736.769 193.732 736.554 193.967 736.281 193.967ZM738.248 193.911C738.443 191.597 739.636 188.826 741.327 186.748H737.32V186.089H742.031V186.748C740.272 188.972 739.049 191.743 738.903 193.911H738.248ZM744.116 193.911V187.016C743.803 187.508 743.188 187.888 742.445 188.056V187.396C743.138 187.251 743.755 186.793 744.204 186.089H744.78V193.911H744.116ZM748.586 194C747.188 194 746.182 193.084 746.182 191.788C746.182 190.872 746.729 190.045 747.696 189.821C746.895 189.598 746.436 188.816 746.436 188.066C746.436 186.86 747.335 186 748.586 186C749.847 186 750.746 186.86 750.746 188.066C750.746 188.816 750.287 189.598 749.475 189.821C750.443 190.045 751 190.872 751 191.788C751 193.084 749.994 194 748.586 194ZM748.586 193.33C749.603 193.33 750.316 192.682 750.316 191.776C750.316 190.86 749.603 190.212 748.586 190.212C747.57 190.212 746.856 190.86 746.856 191.776C746.856 192.682 747.57 193.33 748.586 193.33ZM748.586 189.497C749.456 189.497 750.092 188.916 750.092 188.078C750.092 187.262 749.475 186.659 748.586 186.659C747.707 186.659 747.081 187.262 747.081 188.078C747.081 188.916 747.726 189.497 748.586 189.497Z" fill="white"/>
<path d="M720 507.677V500.087H722.627C723.775 500.087 724.616 500.846 724.616 501.94C724.616 502.764 724.039 503.448 723.409 503.6C724.21 503.74 724.921 504.533 724.921 505.519C724.921 506.788 723.947 507.677 722.638 507.677H720ZM720.679 507.037H722.587C723.531 507.037 724.241 506.386 724.241 505.487C724.241 504.586 723.531 503.947 722.587 503.947H720.679V507.037ZM720.679 503.318H722.557C723.338 503.318 723.957 502.776 723.957 502.005C723.957 501.258 723.338 500.726 722.557 500.726H720.679V503.318ZM727.692 507.764C726.596 507.764 725.926 507.135 725.926 506.234C725.926 505.118 726.646 504.598 728.31 504.413L729.467 504.282V504.044C729.467 503.242 728.898 502.733 728.077 502.733C727.265 502.733 726.697 503.188 726.585 504.012H725.946C726.098 502.906 726.941 502.125 728.077 502.125C729.254 502.125 730.107 502.895 730.107 504.099V507.677H729.467V506.549C729.274 507.232 728.524 507.764 727.692 507.764ZM729.467 504.836L728.35 504.966C727.103 505.118 726.575 505.422 726.575 506.213C726.575 506.82 727.022 507.189 727.721 507.189C728.756 507.189 729.467 506.322 729.467 505.118V504.836ZM731.629 507.677V502.212H732.267V503.437C732.531 502.591 733.16 502.125 733.902 502.125C734.114 502.125 734.337 502.169 734.51 502.255V502.906C734.226 502.798 734.033 502.776 733.83 502.776C732.917 502.776 732.267 503.784 732.267 505.487V507.677H731.629ZM736.936 507.764C735.658 507.764 735.008 506.918 734.957 505.909H735.606C735.658 506.56 736.032 507.157 736.936 507.157C737.606 507.157 738.102 506.788 738.102 506.148C738.102 504.641 735.099 505.53 735.099 503.545C735.099 502.721 735.748 502.125 736.763 502.125C737.931 502.125 738.539 502.764 738.61 503.708H737.971C737.879 503.101 737.504 502.733 736.763 502.733C736.185 502.733 735.739 503.014 735.739 503.513C735.739 504.911 738.752 504.001 738.752 506.126C738.752 507.135 737.981 507.764 736.936 507.764ZM743.969 507.764C742.69 507.764 742.041 506.918 741.991 505.909H742.64C742.69 506.56 743.066 507.157 743.969 507.157C744.638 507.157 745.136 506.788 745.136 506.148C745.136 504.641 742.133 505.53 742.133 503.545C742.133 502.721 742.782 502.125 743.797 502.125C744.963 502.125 745.572 502.764 745.644 503.708H745.004C744.913 503.101 744.537 502.733 743.797 502.733C743.218 502.733 742.771 503.014 742.771 503.513C742.771 504.911 745.786 504.001 745.786 506.126C745.786 507.135 745.014 507.764 743.969 507.764ZM747.003 507.677V500H747.642V503.437C747.946 502.689 748.657 502.125 749.59 502.125C750.656 502.125 751.437 502.819 751.437 504.077V507.677H750.788V504.217C750.788 503.242 750.28 502.743 749.479 502.743C748.363 502.743 747.642 503.774 747.642 505.345V507.677H747.003ZM755.159 507.764C753.687 507.764 752.612 506.593 752.612 504.945C752.612 503.296 753.687 502.125 755.159 502.125C756.63 502.125 757.696 503.296 757.696 504.945C757.696 506.593 756.62 507.764 755.159 507.764ZM755.159 507.157C756.255 507.157 757.047 506.246 757.047 504.945C757.047 503.643 756.255 502.733 755.159 502.733C754.063 502.733 753.272 503.643 753.272 504.945C753.272 506.246 754.063 507.157 755.159 507.157ZM760.06 507.677L758.263 502.212H758.953L760.405 506.82L761.855 502.212H762.495L763.956 506.82L765.407 502.212H766.056L764.27 507.677H763.6L762.17 503.166L760.729 507.677H760.06ZM769.314 507.677V502.212H769.954V503.437C770.227 502.711 770.847 502.125 771.709 502.125C772.602 502.125 773.221 502.678 773.352 503.535C773.688 502.711 774.358 502.125 775.21 502.125C776.275 502.125 776.965 502.873 776.965 504.012V507.677H776.326V504.152C776.326 503.285 775.88 502.743 775.129 502.743C774.103 502.743 773.454 503.774 773.454 505.128V507.677H772.815V504.152C772.815 503.285 772.378 502.743 771.618 502.743C770.592 502.743 769.954 503.774 769.954 505.128V507.677H769.314ZM780.65 507.764C779.189 507.764 778.163 506.593 778.163 504.945C778.163 503.296 779.198 502.125 780.63 502.125C782.131 502.125 783.075 503.361 782.912 504.945H778.813C778.813 506.289 779.574 507.157 780.65 507.157C781.584 507.157 782.141 506.603 782.253 505.964H782.903C782.729 506.94 782.01 507.764 780.65 507.764ZM778.853 504.381H782.263C782.263 503.383 781.583 502.733 780.63 502.733C779.696 502.733 779.026 503.35 778.853 504.381ZM785.677 507.764C784.581 507.764 783.911 507.135 783.911 506.234C783.911 505.118 784.632 504.598 786.297 504.413L787.453 504.282V504.044C787.453 503.242 786.885 502.733 786.063 502.733C785.251 502.733 784.683 503.188 784.572 504.012H783.932C784.084 502.906 784.926 502.125 786.063 502.125C787.24 502.125 788.092 502.895 788.092 504.099V507.677H787.453V506.549C787.26 507.232 786.509 507.764 785.677 507.764ZM787.453 504.836L786.337 504.966C785.088 505.118 784.561 505.422 784.561 506.213C784.561 506.82 785.007 507.189 785.708 507.189C786.743 507.189 787.453 506.322 787.453 505.118V504.836ZM789.614 507.677V502.212H790.254V503.437C790.558 502.689 791.269 502.125 792.202 502.125C793.267 502.125 794.038 502.819 794.038 504.077V507.677H793.4V504.217C793.4 503.242 792.892 502.743 792.09 502.743C790.974 502.743 790.254 503.774 790.254 505.345V507.677H789.614ZM795.447 509L795.853 507.699C795.64 507.634 795.498 507.449 795.498 507.21C795.498 506.896 795.711 506.668 795.995 506.668C796.29 506.668 796.502 506.896 796.502 507.189C796.502 507.362 796.452 507.504 796.391 507.644L795.772 509H795.447ZM796.006 503.22C795.721 503.22 795.498 502.993 795.498 502.689C795.498 502.386 795.721 502.157 796.006 502.157C796.29 502.157 796.502 502.386 796.502 502.689C796.502 502.993 796.29 503.22 796.006 503.22ZM802.544 507.764C801.083 507.764 800.057 506.593 800.057 504.945C800.057 503.296 801.092 502.125 802.524 502.125C804.025 502.125 804.968 503.361 804.806 504.945H800.707C800.707 506.289 801.468 507.157 802.544 507.157C803.477 507.157 804.035 506.603 804.147 505.964H804.797C804.623 506.94 803.904 507.764 802.544 507.764ZM800.747 504.381H804.157C804.157 503.383 803.477 502.733 802.524 502.733C801.59 502.733 800.92 503.35 800.747 504.381ZM806.069 507.677V502.212H806.709V503.437C806.973 502.591 807.602 502.125 808.342 502.125C808.556 502.125 808.779 502.169 808.951 502.255V502.906C808.667 502.798 808.475 502.776 808.272 502.776C807.358 502.776 806.709 503.784 806.709 505.487V507.677H806.069ZM809.904 507.677V502.212H810.542V503.437C810.806 502.591 811.435 502.125 812.177 502.125C812.389 502.125 812.612 502.169 812.785 502.255V502.906C812.501 502.798 812.308 502.776 812.105 502.776C811.192 502.776 810.542 503.784 810.542 505.487V507.677H809.904ZM815.572 507.764C814.101 507.764 813.025 506.593 813.025 504.945C813.025 503.296 814.101 502.125 815.572 502.125C817.044 502.125 818.108 503.296 818.108 504.945C818.108 506.593 817.033 507.764 815.572 507.764ZM815.572 507.157C816.667 507.157 817.459 506.246 817.459 504.945C817.459 503.643 816.667 502.733 815.572 502.733C814.476 502.733 813.684 503.643 813.684 504.945C813.684 506.246 814.476 507.157 815.572 507.157ZM819.364 507.677V502.212H820.003V503.437C820.267 502.591 820.896 502.125 821.637 502.125C821.85 502.125 822.073 502.169 822.246 502.255V502.906C821.962 502.798 821.769 502.776 821.566 502.776C820.652 502.776 820.003 503.784 820.003 505.487V507.677H819.364ZM827.934 507.764C827.102 507.764 826.32 507.275 826.006 506.571V507.677H825.367V500H826.006V503.318C826.32 502.602 827.102 502.125 827.934 502.125C829.436 502.125 830.451 503.263 830.451 504.945C830.451 506.625 829.436 507.764 827.934 507.764ZM827.903 507.157C828.999 507.157 829.801 506.246 829.801 504.945C829.801 503.643 828.999 502.733 827.903 502.733C826.807 502.733 826.016 503.643 826.016 504.945C826.016 506.234 826.807 507.157 827.903 507.157ZM833.21 507.764C832.114 507.764 831.444 507.135 831.444 506.234C831.444 505.118 832.164 504.598 833.828 504.413L834.985 504.282V504.044C834.985 503.242 834.417 502.733 833.595 502.733C832.784 502.733 832.215 503.188 832.103 504.012H831.464C831.616 502.906 832.459 502.125 833.595 502.125C834.772 502.125 835.625 502.895 835.625 504.099V507.677H834.985V506.549C834.793 507.232 834.042 507.764 833.21 507.764ZM834.985 504.836L833.869 504.966C832.621 505.118 832.094 505.422 832.094 506.213C832.094 506.82 832.54 507.189 833.24 507.189C834.275 507.189 834.985 506.322 834.985 505.118V504.836ZM837.147 507.677V502.212H837.785V503.437C838.049 502.591 838.678 502.125 839.42 502.125C839.632 502.125 839.855 502.169 840.029 502.255V502.906C839.744 502.798 839.551 502.776 839.348 502.776C838.435 502.776 837.785 503.784 837.785 505.487V507.677H837.147ZM842.454 507.764C841.176 507.764 840.526 506.918 840.475 505.909H841.124C841.176 506.56 841.551 507.157 842.454 507.157C843.124 507.157 843.621 506.788 843.621 506.148C843.621 504.641 840.617 505.53 840.617 503.545C840.617 502.721 841.267 502.125 842.281 502.125C843.449 502.125 844.058 502.764 844.128 503.708H843.489C843.397 503.101 843.023 502.733 842.281 502.733C841.703 502.733 841.257 503.014 841.257 503.513C841.257 504.911 844.27 504.001 844.27 506.126C844.27 507.135 843.499 507.764 842.454 507.764ZM849.488 507.764C848.21 507.764 847.56 506.918 847.509 505.909H848.158C848.21 506.56 848.584 507.157 849.488 507.157C850.158 507.157 850.654 506.788 850.654 506.148C850.654 504.641 847.651 505.53 847.651 503.545C847.651 502.721 848.3 502.125 849.315 502.125C850.482 502.125 851.091 502.764 851.162 503.708H850.523C850.431 503.101 850.056 502.733 849.315 502.733C848.737 502.733 848.291 503.014 848.291 503.513C848.291 504.911 851.304 504.001 851.304 506.126C851.304 507.135 850.533 507.764 849.488 507.764ZM852.522 507.677V500H853.16V503.437C853.465 502.689 854.175 502.125 855.108 502.125C856.174 502.125 856.955 502.819 856.955 504.077V507.677H856.306V504.217C856.306 503.242 855.798 502.743 854.997 502.743C853.881 502.743 853.16 503.774 853.16 505.345V507.677H852.522ZM860.677 507.764C859.205 507.764 858.13 506.593 858.13 504.945C858.13 503.296 859.205 502.125 860.677 502.125C862.148 502.125 863.214 503.296 863.214 504.945C863.214 506.593 862.139 507.764 860.677 507.764ZM860.677 507.157C861.773 507.157 862.565 506.246 862.565 504.945C862.565 503.643 861.773 502.733 860.677 502.733C859.581 502.733 858.79 503.643 858.79 504.945C858.79 506.246 859.581 507.157 860.677 507.157ZM865.578 507.677L863.782 502.212H864.472L865.923 506.82L867.374 502.212H868.013L869.474 506.82L870.926 502.212H871.575L869.789 507.677H869.12L867.688 503.166L866.248 507.677H865.578ZM877.064 500C878.83 500 879.723 501.388 879.723 503.47C879.723 506.084 878.627 507.764 876.821 507.764C875.634 507.764 874.721 507.08 874.579 505.92H875.238C875.38 506.69 876.04 507.145 876.821 507.145C878.333 507.145 878.983 505.595 879.084 503.86C878.688 504.684 877.876 505.096 876.994 505.096C875.573 505.096 874.599 504.066 874.599 502.581C874.599 501.063 875.623 500 877.064 500ZM877.095 500.617C876.029 500.617 875.269 501.431 875.269 502.569C875.269 503.719 876.029 504.521 877.095 504.521C878.171 504.521 878.922 503.708 878.922 502.569C878.922 501.431 878.171 500.617 877.095 500.617ZM883.225 507.764C881.794 507.764 880.84 506.863 880.719 505.519H881.358C881.501 506.506 882.2 507.123 883.215 507.123C884.24 507.123 884.991 506.311 884.991 505.183C884.991 504.034 884.25 503.198 883.215 503.198C882.423 503.198 881.825 503.6 881.541 504.217H880.901L881.469 500.087H885.174V500.726H881.988L881.602 503.405C881.977 502.949 882.565 502.602 883.357 502.602C884.696 502.602 885.67 503.675 885.67 505.183C885.67 506.68 884.656 507.764 883.225 507.764ZM892.35 507.764C891.385 507.764 890.736 506.918 890.736 505.855C890.736 504.793 891.385 503.947 892.35 503.947C893.303 503.947 893.932 504.793 893.932 505.855C893.932 506.918 893.303 507.764 892.35 507.764ZM887.986 503.817C887.022 503.817 886.372 502.971 886.372 501.908C886.372 500.846 887.022 500 887.986 500C888.94 500 889.569 500.846 889.569 501.908C889.569 502.971 888.94 503.817 887.986 503.817ZM892.35 507.254C892.988 507.254 893.405 506.668 893.405 505.855C893.405 505.042 892.988 504.456 892.35 504.456C891.68 504.456 891.263 505.042 891.263 505.855C891.263 506.668 891.68 507.254 892.35 507.254ZM887.986 503.307C888.625 503.307 889.042 502.721 889.042 501.908C889.042 501.095 888.625 500.509 887.986 500.509C887.317 500.509 886.9 501.095 886.9 501.908C886.9 502.721 887.317 503.307 887.986 503.307ZM887.479 507.677L892.228 500.087H892.826L888.077 507.677H887.479ZM900.565 507.764C898.556 507.764 897.156 506.267 897.156 503.882C897.156 501.496 898.546 500 900.565 500C902.199 500 903.285 501.051 903.447 502.483H902.768C902.574 501.398 901.733 500.639 900.565 500.639C898.932 500.639 897.846 501.897 897.846 503.882C897.846 505.866 898.942 507.123 900.565 507.123C901.763 507.123 902.646 506.224 902.798 505.14H903.488C903.305 506.593 902.199 507.764 900.565 507.764ZM904.825 507.677V500.087H905.504V507.677H904.825ZM907.493 507.732C907.209 507.732 906.996 507.504 906.996 507.2C906.996 506.896 907.209 506.668 907.493 506.668C907.777 506.668 908 506.896 908 507.2C908 507.504 907.777 507.732 907.493 507.732Z" fill="white"/>
<path d="M390 507.677V500.087H392.641C393.795 500.087 394.641 500.846 394.641 501.94C394.641 502.764 394.06 503.448 393.428 503.6C394.233 503.74 394.947 504.533 394.947 505.519C394.947 506.788 393.968 507.677 392.652 507.677H390ZM390.683 507.037H392.601C393.55 507.037 394.264 506.386 394.264 505.487C394.264 504.586 393.55 503.947 392.601 503.947H390.683V507.037ZM390.683 503.318H392.571C393.356 503.318 393.978 502.776 393.978 502.005C393.978 501.258 393.356 500.726 392.571 500.726H390.683V503.318ZM397.732 507.764C396.631 507.764 395.957 507.135 395.957 506.234C395.957 505.118 396.681 504.598 398.354 504.413L399.517 504.282V504.044C399.517 503.242 398.946 502.733 398.12 502.733C397.304 502.733 396.733 503.188 396.62 504.012H395.978C396.13 502.906 396.978 502.125 398.12 502.125C399.303 502.125 400.16 502.895 400.16 504.099V507.677H399.517V506.549C399.324 507.232 398.569 507.764 397.732 507.764ZM399.517 504.836L398.395 504.966C397.141 505.118 396.61 505.422 396.61 506.213C396.61 506.82 397.059 507.189 397.762 507.189C398.803 507.189 399.517 506.322 399.517 505.118V504.836ZM401.69 507.677V502.212H402.332V503.437C402.598 502.591 403.23 502.125 403.975 502.125C404.189 502.125 404.414 502.169 404.588 502.255V502.906C404.302 502.798 404.108 502.776 403.903 502.776C402.985 502.776 402.332 503.784 402.332 505.487V507.677H401.69ZM407.026 507.764C405.741 507.764 405.088 506.918 405.036 505.909H405.689C405.741 506.56 406.118 507.157 407.026 507.157C407.699 507.157 408.199 506.788 408.199 506.148C408.199 504.641 405.179 505.53 405.179 503.545C405.179 502.721 405.832 502.125 406.852 502.125C408.026 502.125 408.638 502.764 408.709 503.708H408.067C407.974 503.101 407.597 502.733 406.852 502.733C406.271 502.733 405.822 503.014 405.822 503.513C405.822 504.911 408.852 504.001 408.852 506.126C408.852 507.135 408.076 507.764 407.026 507.764ZM414.096 507.764C412.811 507.764 412.158 506.918 412.108 505.909H412.76C412.811 506.56 413.189 507.157 414.096 507.157C414.769 507.157 415.27 506.788 415.27 506.148C415.27 504.641 412.25 505.53 412.25 503.545C412.25 502.721 412.903 502.125 413.923 502.125C415.096 502.125 415.708 502.764 415.78 503.708H415.137C415.045 503.101 414.667 502.733 413.923 502.733C413.341 502.733 412.892 503.014 412.892 503.513C412.892 504.911 415.923 504.001 415.923 506.126C415.923 507.135 415.147 507.764 414.096 507.764ZM417.147 507.677V500H417.789V503.437C418.095 502.689 418.809 502.125 419.748 502.125C420.819 502.125 421.604 502.819 421.604 504.077V507.677H420.951V504.217C420.951 503.242 420.441 502.743 419.636 502.743C418.514 502.743 417.789 503.774 417.789 505.345V507.677H417.147ZM425.346 507.764C423.866 507.764 422.785 506.593 422.785 504.945C422.785 503.296 423.866 502.125 425.346 502.125C426.825 502.125 427.896 503.296 427.896 504.945C427.896 506.593 426.815 507.764 425.346 507.764ZM425.346 507.157C426.448 507.157 427.244 506.246 427.244 504.945C427.244 503.643 426.448 502.733 425.346 502.733C424.244 502.733 423.449 503.643 423.449 504.945C423.449 506.246 424.244 507.157 425.346 507.157ZM430.273 507.677L428.467 502.212H429.16L430.62 506.82L432.078 502.212H432.721L434.19 506.82L435.648 502.212H436.301L434.506 507.677H433.832L432.395 503.166L430.946 507.677H430.273ZM439.576 507.677V502.212H440.219V503.437C440.494 502.711 441.117 502.125 441.984 502.125C442.881 502.125 443.504 502.678 443.636 503.535C443.973 502.711 444.647 502.125 445.504 502.125C446.574 502.125 447.268 502.873 447.268 504.012V507.677H446.626V504.152C446.626 503.285 446.177 502.743 445.422 502.743C444.391 502.743 443.738 503.774 443.738 505.128V507.677H443.096V504.152C443.096 503.285 442.657 502.743 441.892 502.743C440.861 502.743 440.219 503.774 440.219 505.128V507.677H439.576ZM450.973 507.764C449.504 507.764 448.473 506.593 448.473 504.945C448.473 503.296 449.513 502.125 450.952 502.125C452.462 502.125 453.41 503.361 453.247 504.945H449.126C449.126 506.289 449.891 507.157 450.973 507.157C451.911 507.157 452.472 506.603 452.584 505.964H453.237C453.063 506.94 452.34 507.764 450.973 507.764ZM449.166 504.381H452.594C452.594 503.383 451.911 502.733 450.952 502.733C450.014 502.733 449.34 503.35 449.166 504.381ZM456.026 507.764C454.925 507.764 454.251 507.135 454.251 506.234C454.251 505.118 454.976 504.598 456.649 504.413L457.812 504.282V504.044C457.812 503.242 457.241 502.733 456.414 502.733C455.598 502.733 455.027 503.188 454.915 504.012H454.272C454.425 502.906 455.271 502.125 456.414 502.125C457.597 502.125 458.454 502.895 458.454 504.099V507.677H457.812V506.549C457.618 507.232 456.863 507.764 456.026 507.764ZM457.812 504.836L456.69 504.966C455.435 505.118 454.904 505.422 454.904 506.213C454.904 506.82 455.353 507.189 456.058 507.189C457.098 507.189 457.812 506.322 457.812 505.118V504.836ZM459.984 507.677V502.212H460.628V503.437C460.934 502.689 461.648 502.125 462.586 502.125C463.657 502.125 464.432 502.819 464.432 504.077V507.677H463.79V504.217C463.79 503.242 463.28 502.743 462.473 502.743C461.351 502.743 460.628 503.774 460.628 505.345V507.677H459.984ZM465.848 509L466.256 507.699C466.043 507.634 465.9 507.449 465.9 507.21C465.9 506.896 466.113 506.668 466.399 506.668C466.695 506.668 466.909 506.896 466.909 507.189C466.909 507.362 466.859 507.504 466.797 507.644L466.175 509H465.848ZM466.41 503.22C466.124 503.22 465.9 502.993 465.9 502.689C465.9 502.386 466.124 502.157 466.41 502.157C466.695 502.157 466.909 502.386 466.909 502.689C466.909 502.993 466.695 503.22 466.41 503.22ZM472.983 507.764C471.514 507.764 470.483 506.593 470.483 504.945C470.483 503.296 471.524 502.125 472.963 502.125C474.472 502.125 475.42 503.361 475.257 504.945H471.136C471.136 506.289 471.902 507.157 472.983 507.157C473.921 507.157 474.482 506.603 474.595 505.964H475.248C475.074 506.94 474.35 507.764 472.983 507.764ZM471.177 504.381H474.604C474.604 503.383 473.921 502.733 472.963 502.733C472.024 502.733 471.351 503.35 471.177 504.381ZM476.527 507.677V502.212H477.17V503.437C477.435 502.591 478.068 502.125 478.812 502.125C479.027 502.125 479.251 502.169 479.424 502.255V502.906C479.138 502.798 478.945 502.776 478.741 502.776C477.823 502.776 477.17 503.784 477.17 505.487V507.677H476.527ZM480.382 507.677V502.212H481.024V503.437C481.289 502.591 481.922 502.125 482.667 502.125C482.88 502.125 483.105 502.169 483.279 502.255V502.906C482.993 502.798 482.799 502.776 482.595 502.776C481.677 502.776 481.024 503.784 481.024 505.487V507.677H480.382ZM486.08 507.764C484.601 507.764 483.52 506.593 483.52 504.945C483.52 503.296 484.601 502.125 486.08 502.125C487.56 502.125 488.63 503.296 488.63 504.945C488.63 506.593 487.549 507.764 486.08 507.764ZM486.08 507.157C487.182 507.157 487.977 506.246 487.977 504.945C487.977 503.643 487.182 502.733 486.08 502.733C484.978 502.733 484.183 503.643 484.183 504.945C484.183 506.246 484.978 507.157 486.08 507.157ZM489.893 507.677V502.212H490.535V503.437C490.8 502.591 491.433 502.125 492.178 502.125C492.391 502.125 492.616 502.169 492.79 502.255V502.906C492.504 502.798 492.31 502.776 492.106 502.776C491.188 502.776 490.535 503.784 490.535 505.487V507.677H489.893ZM498.508 507.764C497.672 507.764 496.886 507.275 496.57 506.571V507.677H495.927V500H496.57V503.318C496.886 502.602 497.672 502.125 498.508 502.125C500.018 502.125 501.038 503.263 501.038 504.945C501.038 506.625 500.018 507.764 498.508 507.764ZM498.477 507.157C499.579 507.157 500.386 506.246 500.386 504.945C500.386 503.643 499.579 502.733 498.477 502.733C497.376 502.733 496.58 503.643 496.58 504.945C496.58 506.234 497.376 507.157 498.477 507.157ZM503.812 507.764C502.71 507.764 502.037 507.135 502.037 506.234C502.037 505.118 502.761 504.598 504.434 504.413L505.596 504.282V504.044C505.596 503.242 505.025 502.733 504.2 502.733C503.383 502.733 502.812 503.188 502.699 504.012H502.057C502.21 502.906 503.057 502.125 504.2 502.125C505.383 502.125 506.24 502.895 506.24 504.099V507.677H505.596V506.549C505.403 507.232 504.648 507.764 503.812 507.764ZM505.596 504.836L504.474 504.966C503.22 505.118 502.69 505.422 502.69 506.213C502.69 506.82 503.139 507.189 503.842 507.189C504.882 507.189 505.596 506.322 505.596 505.118V504.836ZM507.77 507.677V502.212H508.412V503.437C508.677 502.591 509.31 502.125 510.055 502.125C510.269 502.125 510.493 502.169 510.667 502.255V502.906C510.381 502.798 510.187 502.776 509.983 502.776C509.065 502.776 508.412 503.784 508.412 505.487V507.677H507.77ZM513.106 507.764C511.82 507.764 511.167 506.918 511.116 505.909H511.769C511.82 506.56 512.197 507.157 513.106 507.157C513.779 507.157 514.278 506.788 514.278 506.148C514.278 504.641 511.259 505.53 511.259 503.545C511.259 502.721 511.912 502.125 512.932 502.125C514.105 502.125 514.717 502.764 514.788 503.708H514.146C514.054 503.101 513.677 502.733 512.932 502.733C512.351 502.733 511.902 503.014 511.902 503.513C511.902 504.911 514.931 504.001 514.931 506.126C514.931 507.135 514.156 507.764 513.106 507.764ZM520.177 507.764C518.892 507.764 518.239 506.918 518.187 505.909H518.84C518.892 506.56 519.268 507.157 520.177 507.157C520.85 507.157 521.349 506.788 521.349 506.148C521.349 504.641 518.33 505.53 518.33 503.545C518.33 502.721 518.983 502.125 520.003 502.125C521.177 502.125 521.789 502.764 521.859 503.708H521.217C521.125 503.101 520.748 502.733 520.003 502.733C519.422 502.733 518.973 503.014 518.973 503.513C518.973 504.911 522.002 504.001 522.002 506.126C522.002 507.135 521.227 507.764 520.177 507.764ZM523.226 507.677V500H523.868V503.437C524.174 502.689 524.889 502.125 525.827 502.125C526.899 502.125 527.684 502.819 527.684 504.077V507.677H527.031V504.217C527.031 503.242 526.521 502.743 525.715 502.743C524.593 502.743 523.868 503.774 523.868 505.345V507.677H523.226ZM531.426 507.764C529.946 507.764 528.865 506.593 528.865 504.945C528.865 503.296 529.946 502.125 531.426 502.125C532.904 502.125 533.976 503.296 533.976 504.945C533.976 506.593 532.895 507.764 531.426 507.764ZM531.426 507.157C532.527 507.157 533.323 506.246 533.323 504.945C533.323 503.643 532.527 502.733 531.426 502.733C530.324 502.733 529.528 503.643 529.528 504.945C529.528 506.246 530.324 507.157 531.426 507.157ZM536.352 507.677L534.547 502.212H535.241L536.699 506.82L538.158 502.212H538.8L540.269 506.82L541.729 502.212H542.382L540.586 507.677H539.913L538.474 503.166L537.025 507.677H536.352ZM547.9 500C549.675 500 550.573 501.388 550.573 503.47C550.573 506.084 549.471 507.764 547.655 507.764C546.462 507.764 545.544 507.08 545.401 505.92H546.064C546.206 506.69 546.87 507.145 547.655 507.145C549.176 507.145 549.828 505.595 549.93 503.86C549.532 504.684 548.716 505.096 547.829 505.096C546.401 505.096 545.422 504.066 545.422 502.581C545.422 501.063 546.451 500 547.9 500ZM547.931 500.617C546.859 500.617 546.095 501.431 546.095 502.569C546.095 503.719 546.859 504.521 547.931 504.521C549.012 504.521 549.767 503.708 549.767 502.569C549.767 501.431 549.012 500.617 547.931 500.617ZM554.094 507.764C552.655 507.764 551.696 506.863 551.573 505.519H552.217C552.36 506.506 553.063 507.123 554.083 507.123C555.114 507.123 555.869 506.311 555.869 505.183C555.869 504.034 555.123 503.198 554.083 503.198C553.287 503.198 552.686 503.6 552.4 504.217H551.757L552.328 500.087H556.052V500.726H552.849L552.462 503.405C552.838 502.949 553.43 502.602 554.226 502.602C555.572 502.602 556.552 503.675 556.552 505.183C556.552 506.68 555.531 507.764 554.094 507.764ZM563.266 507.764C562.297 507.764 561.644 506.918 561.644 505.855C561.644 504.793 562.297 503.947 563.266 503.947C564.225 503.947 564.858 504.793 564.858 505.855C564.858 506.918 564.225 507.764 563.266 507.764ZM558.88 503.817C557.91 503.817 557.257 502.971 557.257 501.908C557.257 500.846 557.91 500 558.88 500C559.839 500 560.471 500.846 560.471 501.908C560.471 502.971 559.839 503.817 558.88 503.817ZM563.266 507.254C563.908 507.254 564.327 506.668 564.327 505.855C564.327 505.042 563.908 504.456 563.266 504.456C562.593 504.456 562.174 505.042 562.174 505.855C562.174 506.668 562.593 507.254 563.266 507.254ZM558.88 503.307C559.522 503.307 559.941 502.721 559.941 501.908C559.941 501.095 559.522 500.509 558.88 500.509C558.207 500.509 557.788 501.095 557.788 501.908C557.788 502.721 558.207 503.307 558.88 503.307ZM558.37 507.677L563.144 500.087H563.745L558.971 507.677H558.37ZM571.526 507.764C569.506 507.764 568.098 506.267 568.098 503.882C568.098 501.496 569.496 500 571.526 500C573.169 500 574.26 501.051 574.423 502.483H573.74C573.545 501.398 572.699 500.639 571.526 500.639C569.884 500.639 568.792 501.897 568.792 503.882C568.792 505.866 569.893 507.123 571.526 507.123C572.729 507.123 573.617 506.224 573.77 505.14H574.464C574.28 506.593 573.169 507.764 571.526 507.764ZM575.808 507.677V500.087H576.491V507.677H575.808ZM578.49 507.732C578.204 507.732 577.991 507.504 577.991 507.2C577.991 506.896 578.204 506.668 578.49 506.668C578.776 506.668 579 506.896 579 507.2C579 507.504 578.776 507.732 578.49 507.732Z" fill="white"/>
<path d="M63 507.677V500.087H65.6135C66.7547 500.087 67.5918 500.846 67.5918 501.94C67.5918 502.764 67.0171 503.448 66.3913 503.6C67.1881 503.74 67.8946 504.533 67.8946 505.519C67.8946 506.788 66.9257 507.677 65.6242 507.677H63ZM63.6756 507.037H65.5732C66.5124 507.037 67.2189 506.386 67.2189 505.487C67.2189 504.586 66.5124 503.947 65.5732 503.947H63.6756V507.037ZM63.6756 503.318H65.5435C66.3201 503.318 66.9363 502.776 66.9363 502.005C66.9363 501.258 66.3201 500.726 65.5435 500.726H63.6756V503.318ZM70.6506 507.764C69.5605 507.764 68.8944 507.135 68.8944 506.234C68.8944 505.118 69.6104 504.598 71.2657 504.413L72.4163 504.282V504.044C72.4163 503.242 71.8511 502.733 71.0342 502.733C70.2267 502.733 69.6615 503.188 69.5499 504.012H68.9146C69.0654 502.906 69.9037 502.125 71.0342 502.125C72.205 502.125 73.0528 502.895 73.0528 504.099V507.677H72.4163V506.549C72.2252 507.232 71.4782 507.764 70.6506 507.764ZM72.4163 504.836L71.3061 504.966C70.0652 505.118 69.5404 505.422 69.5404 506.213C69.5404 506.82 69.9845 507.189 70.6803 507.189C71.7098 507.189 72.4163 506.322 72.4163 505.118V504.836ZM74.5668 507.677V502.212H75.202V503.437C75.4645 502.591 76.0902 502.125 76.8276 502.125C77.039 502.125 77.261 502.169 77.4332 502.255V502.906C77.1506 502.798 76.9582 502.776 76.7564 502.776C75.848 502.776 75.202 503.784 75.202 505.487V507.677H74.5668ZM79.8461 507.764C78.5743 507.764 77.9284 506.918 77.8773 505.909H78.5233C78.5743 506.56 78.9472 507.157 79.8461 507.157C80.5122 507.157 81.0062 506.788 81.0062 506.148C81.0062 504.641 78.0186 505.53 78.0186 503.545C78.0186 502.721 78.6646 502.125 79.6739 502.125C80.8352 502.125 81.4408 502.764 81.5109 503.708H80.8756C80.7841 503.101 80.4113 502.733 79.6739 502.733C79.0992 502.733 78.6551 503.014 78.6551 503.513C78.6551 504.911 81.6522 504.001 81.6522 506.126C81.6522 507.135 80.8851 507.764 79.8461 507.764ZM86.8412 507.764C85.5695 507.764 84.9235 506.918 84.8737 505.909H85.5196C85.5695 506.56 85.9435 507.157 86.8412 507.157C87.5074 507.157 88.0025 506.788 88.0025 506.148C88.0025 504.641 85.0149 505.53 85.0149 503.545C85.0149 502.721 85.6609 502.125 86.6702 502.125C87.8304 502.125 88.4359 502.764 88.5072 503.708H87.8707C87.7805 503.101 87.4064 502.733 86.6702 502.733C86.0943 502.733 85.6502 503.014 85.6502 503.513C85.6502 504.911 88.6485 504.001 88.6485 506.126C88.6485 507.135 87.8814 507.764 86.8412 507.764ZM89.8597 507.677V500H90.4949V503.437C90.7977 502.689 91.5043 502.125 92.4328 502.125C93.4932 502.125 94.2698 502.819 94.2698 504.077V507.677H93.6238V504.217C93.6238 503.242 93.1192 502.743 92.3224 502.743C91.2121 502.743 90.4949 503.774 90.4949 505.345V507.677H89.8597ZM97.9722 507.764C96.5081 507.764 95.4382 506.593 95.4382 504.945C95.4382 503.296 96.5081 502.125 97.9722 502.125C99.4351 502.125 100.495 503.296 100.495 504.945C100.495 506.593 99.4256 507.764 97.9722 507.764ZM97.9722 507.157C99.0622 507.157 99.8495 506.246 99.8495 504.945C99.8495 503.643 99.0622 502.733 97.9722 502.733C96.8821 502.733 96.0949 503.643 96.0949 504.945C96.0949 506.246 96.8821 507.157 97.9722 507.157ZM102.847 507.677L101.06 502.212H101.746L103.19 506.82L104.632 502.212H105.269L106.722 506.82L108.165 502.212H108.811L107.035 507.677H106.368L104.946 503.166L103.513 507.677H102.847ZM112.052 507.677V502.212H112.688V503.437C112.96 502.711 113.576 502.125 114.434 502.125C115.322 502.125 115.938 502.678 116.069 503.535C116.402 502.711 117.068 502.125 117.916 502.125C118.975 502.125 119.662 502.873 119.662 504.012V507.677H119.027V504.152C119.027 503.285 118.582 502.743 117.836 502.743C116.816 502.743 116.17 503.774 116.17 505.128V507.677H115.534V504.152C115.534 503.285 115.1 502.743 114.343 502.743C113.323 502.743 112.688 503.774 112.688 505.128V507.677H112.052ZM123.327 507.764C121.874 507.764 120.854 506.593 120.854 504.945C120.854 503.296 121.883 502.125 123.307 502.125C124.801 502.125 125.739 503.361 125.578 504.945H121.5C121.5 506.289 122.258 507.157 123.327 507.157C124.256 507.157 124.81 506.603 124.922 505.964H125.568C125.396 506.94 124.68 507.764 123.327 507.764ZM121.54 504.381H124.932C124.932 503.383 124.256 502.733 123.307 502.733C122.379 502.733 121.712 503.35 121.54 504.381ZM128.328 507.764C127.238 507.764 126.571 507.135 126.571 506.234C126.571 505.118 127.289 504.598 128.944 504.413L130.095 504.282V504.044C130.095 503.242 129.529 502.733 128.711 502.733C127.904 502.733 127.339 503.188 127.228 504.012H126.592C126.744 502.906 127.581 502.125 128.711 502.125C129.882 502.125 130.73 502.895 130.73 504.099V507.677H130.095V506.549C129.902 507.232 129.155 507.764 128.328 507.764ZM130.095 504.836L128.984 504.966C127.742 505.118 127.217 505.422 127.217 506.213C127.217 506.82 127.662 507.189 128.359 507.189C129.388 507.189 130.095 506.322 130.095 505.118V504.836ZM132.244 507.677V502.212H132.88V503.437C133.183 502.689 133.89 502.125 134.818 502.125C135.877 502.125 136.644 502.819 136.644 504.077V507.677H136.009V504.217C136.009 503.242 135.504 502.743 134.707 502.743C133.596 502.743 132.88 503.774 132.88 505.345V507.677H132.244ZM138.046 509L138.449 507.699C138.238 507.634 138.097 507.449 138.097 507.21C138.097 506.896 138.308 506.668 138.591 506.668C138.884 506.668 139.095 506.896 139.095 507.189C139.095 507.362 139.045 507.504 138.985 507.644L138.369 509H138.046ZM138.601 503.22C138.319 503.22 138.097 502.993 138.097 502.689C138.097 502.386 138.319 502.157 138.601 502.157C138.884 502.157 139.095 502.386 139.095 502.689C139.095 502.993 138.884 503.22 138.601 503.22ZM145.105 507.764C143.651 507.764 142.631 506.593 142.631 504.945C142.631 503.296 143.661 502.125 145.085 502.125C146.578 502.125 147.517 503.361 147.355 504.945H143.277C143.277 506.289 144.035 507.157 145.105 507.157C146.033 507.157 146.588 506.603 146.7 505.964H147.346C147.173 506.94 146.457 507.764 145.105 507.764ZM143.318 504.381H146.709C146.709 503.383 146.033 502.733 145.085 502.733C144.156 502.733 143.49 503.35 143.318 504.381ZM148.611 507.677V502.212H149.248V503.437C149.51 502.591 150.136 502.125 150.872 502.125C151.085 502.125 151.307 502.169 151.478 502.255V502.906C151.195 502.798 151.004 502.776 150.802 502.776C149.894 502.776 149.248 503.784 149.248 505.487V507.677H148.611ZM152.425 507.677V502.212H153.061V503.437C153.323 502.591 153.949 502.125 154.686 502.125C154.898 502.125 155.12 502.169 155.292 502.255V502.906C155.009 502.798 154.817 502.776 154.615 502.776C153.707 502.776 153.061 503.784 153.061 505.487V507.677H152.425ZM158.063 507.764C156.6 507.764 155.53 506.593 155.53 504.945C155.53 503.296 156.6 502.125 158.063 502.125C159.527 502.125 160.587 503.296 160.587 504.945C160.587 506.593 159.517 507.764 158.063 507.764ZM158.063 507.157C159.153 507.157 159.941 506.246 159.941 504.945C159.941 503.643 159.153 502.733 158.063 502.733C156.973 502.733 156.186 503.643 156.186 504.945C156.186 506.246 156.973 507.157 158.063 507.157ZM161.836 507.677V502.212H162.471V503.437C162.733 502.591 163.359 502.125 164.097 502.125C164.308 502.125 164.53 502.169 164.702 502.255V502.906C164.42 502.798 164.227 502.776 164.025 502.776C163.117 502.776 162.471 503.784 162.471 505.487V507.677H161.836ZM170.36 507.764C169.533 507.764 168.755 507.275 168.443 506.571V507.677H167.806V500H168.443V503.318C168.755 502.602 169.533 502.125 170.36 502.125C171.854 502.125 172.863 503.263 172.863 504.945C172.863 506.625 171.854 507.764 170.36 507.764ZM170.329 507.157C171.419 507.157 172.217 506.246 172.217 504.945C172.217 503.643 171.419 502.733 170.329 502.733C169.239 502.733 168.452 503.643 168.452 504.945C168.452 506.234 169.239 507.157 170.329 507.157ZM175.608 507.764C174.517 507.764 173.851 507.135 173.851 506.234C173.851 505.118 174.567 504.598 176.223 504.413L177.373 504.282V504.044C177.373 503.242 176.808 502.733 175.991 502.733C175.184 502.733 174.618 503.188 174.507 504.012H173.872C174.022 502.906 174.861 502.125 175.991 502.125C177.162 502.125 178.01 502.895 178.01 504.099V507.677H177.373V506.549C177.182 507.232 176.435 507.764 175.608 507.764ZM177.373 504.836L176.263 504.966C175.022 505.118 174.497 505.422 174.497 506.213C174.497 506.82 174.941 507.189 175.637 507.189C176.667 507.189 177.373 506.322 177.373 505.118V504.836ZM179.524 507.677V502.212H180.159V503.437C180.421 502.591 181.047 502.125 181.785 502.125C181.996 502.125 182.218 502.169 182.39 502.255V502.906C182.108 502.798 181.915 502.776 181.713 502.776C180.805 502.776 180.159 503.784 180.159 505.487V507.677H179.524ZM184.803 507.764C183.531 507.764 182.885 506.918 182.834 505.909H183.48C183.531 506.56 183.904 507.157 184.803 507.157C185.469 507.157 185.963 506.788 185.963 506.148C185.963 504.641 182.976 505.53 182.976 503.545C182.976 502.721 183.622 502.125 184.631 502.125C185.792 502.125 186.398 502.764 186.468 503.708H185.832C185.741 503.101 185.368 502.733 184.631 502.733C184.056 502.733 183.612 503.014 183.612 503.513C183.612 504.911 186.609 504.001 186.609 506.126C186.609 507.135 185.842 507.764 184.803 507.764ZM191.799 507.764C190.528 507.764 189.882 506.918 189.831 505.909H190.477C190.528 506.56 190.9 507.157 191.799 507.157C192.465 507.157 192.959 506.788 192.959 506.148C192.959 504.641 189.972 505.53 189.972 503.545C189.972 502.721 190.618 502.125 191.627 502.125C192.788 502.125 193.394 502.764 193.464 503.708H192.829C192.737 503.101 192.365 502.733 191.627 502.733C191.052 502.733 190.608 503.014 190.608 503.513C190.608 504.911 193.605 504.001 193.605 506.126C193.605 507.135 192.838 507.764 191.799 507.764ZM194.817 507.677V500H195.452V503.437C195.755 502.689 196.461 502.125 197.39 502.125C198.45 502.125 199.227 502.819 199.227 504.077V507.677H198.581V504.217C198.581 503.242 198.076 502.743 197.279 502.743C196.169 502.743 195.452 503.774 195.452 505.345V507.677H194.817ZM202.929 507.764C201.465 507.764 200.395 506.593 200.395 504.945C200.395 503.296 201.465 502.125 202.929 502.125C204.392 502.125 205.452 503.296 205.452 504.945C205.452 506.593 204.383 507.764 202.929 507.764ZM202.929 507.157C204.019 507.157 204.806 506.246 204.806 504.945C204.806 503.643 204.019 502.733 202.929 502.733C201.839 502.733 201.052 503.643 201.052 504.945C201.052 506.246 201.839 507.157 202.929 507.157ZM207.804 507.677L206.018 502.212H206.704L208.147 506.82L209.591 502.212H210.226L211.679 506.82L213.123 502.212H213.769L211.993 507.677H211.327L209.903 503.166L208.47 507.677H207.804ZM219.229 500C220.985 500 221.873 501.388 221.873 503.47C221.873 506.084 220.783 507.764 218.987 507.764C217.806 507.764 216.898 507.08 216.757 505.92H217.412C217.553 506.69 218.21 507.145 218.987 507.145C220.491 507.145 221.137 505.595 221.238 503.86C220.844 504.684 220.036 505.096 219.159 505.096C217.746 505.096 216.777 504.066 216.777 502.581C216.777 501.063 217.796 500 219.229 500ZM219.26 500.617C218.199 500.617 217.443 501.431 217.443 502.569C217.443 503.719 218.199 504.521 219.26 504.521C220.33 504.521 221.077 503.708 221.077 502.569C221.077 501.431 220.33 500.617 219.26 500.617ZM225.357 507.764C223.934 507.764 222.985 506.863 222.864 505.519H223.5C223.641 506.506 224.337 507.123 225.347 507.123C226.367 507.123 227.113 506.311 227.113 505.183C227.113 504.034 226.376 503.198 225.347 503.198C224.559 503.198 223.964 503.6 223.682 504.217H223.045L223.611 500.087H227.295V500.726H224.126L223.742 503.405C224.115 502.949 224.701 502.602 225.488 502.602C226.82 502.602 227.789 503.675 227.789 505.183C227.789 506.68 226.78 507.764 225.357 507.764ZM234.433 507.764C233.473 507.764 232.827 506.918 232.827 505.855C232.827 504.793 233.473 503.947 234.433 503.947C235.382 503.947 236.007 504.793 236.007 505.855C236.007 506.918 235.382 507.764 234.433 507.764ZM230.093 503.817C229.133 503.817 228.487 502.971 228.487 501.908C228.487 500.846 229.133 500 230.093 500C231.042 500 231.667 500.846 231.667 501.908C231.667 502.971 231.042 503.817 230.093 503.817ZM234.433 507.254C235.068 507.254 235.483 506.668 235.483 505.855C235.483 505.042 235.068 504.456 234.433 504.456C233.767 504.456 233.352 505.042 233.352 505.855C233.352 506.668 233.767 507.254 234.433 507.254ZM230.093 503.307C230.728 503.307 231.142 502.721 231.142 501.908C231.142 501.095 230.728 500.509 230.093 500.509C229.427 500.509 229.012 501.095 229.012 501.908C229.012 502.721 229.427 503.307 230.093 503.307ZM229.588 507.677L234.312 500.087H234.907L230.183 507.677H229.588ZM242.605 507.764C240.606 507.764 239.213 506.267 239.213 503.882C239.213 501.496 240.597 500 242.605 500C244.23 500 245.31 501.051 245.471 502.483H244.796C244.603 501.398 243.766 500.639 242.605 500.639C240.98 500.639 239.9 501.897 239.9 503.882C239.9 505.866 240.99 507.123 242.605 507.123C243.796 507.123 244.674 506.224 244.825 505.14H245.512C245.33 506.593 244.23 507.764 242.605 507.764ZM246.841 507.677V500.087H247.517V507.677H246.841ZM249.495 507.732C249.213 507.732 249.001 507.504 249.001 507.2C249.001 506.896 249.213 506.668 249.495 506.668C249.778 506.668 250 506.896 250 507.2C250 507.504 249.778 507.732 249.495 507.732Z" fill="white"/>
<path d="M715 161.912V154.241H718.302C719.917 154.241 720.979 155.151 720.979 156.521C720.979 157.912 719.917 158.811 718.302 158.811H716.38V161.912H715ZM716.38 157.715H718.16C719.033 157.715 719.599 157.244 719.599 156.521C719.599 155.808 719.033 155.348 718.16 155.348H716.38V157.715ZM722.027 161.912V156.389H723.312V161.912H722.027ZM722.675 155.556C722.18 155.556 721.815 155.227 721.815 154.778C721.815 154.329 722.18 154 722.675 154C723.171 154 723.548 154.329 723.548 154.778C723.548 155.227 723.171 155.556 722.675 155.556ZM727.505 162C725.772 162 724.51 160.805 724.51 159.14C724.51 157.485 725.772 156.301 727.505 156.301C729.05 156.301 730.088 157.068 730.277 158.351H728.968C728.85 157.737 728.272 157.332 727.517 157.332C726.55 157.332 725.819 158.077 725.819 159.14C725.819 160.214 726.539 160.97 727.517 160.97C728.355 160.97 728.885 160.499 728.991 159.951H730.336C730.135 161.112 729.097 162 727.505 162ZM731.456 161.912V154.153H732.741V158.482L735.206 156.389H736.927L734.522 158.493L737.128 161.912H735.571L733.578 159.326L732.741 160.06V161.912H731.456ZM743.2 162C741.289 162 740.028 160.992 739.874 159.282H741.23C741.348 160.323 742.079 160.893 743.2 160.893C744.049 160.893 744.733 160.553 744.733 159.764C744.733 158.033 740.193 159.019 740.193 156.269C740.193 154.986 741.454 154.153 742.999 154.153C744.744 154.153 745.817 154.986 746.018 156.422H744.662C744.52 155.688 743.86 155.26 742.964 155.26C742.127 155.26 741.584 155.644 741.584 156.214C741.584 157.77 746.124 156.751 746.124 159.677C746.124 161.2 744.815 162 743.2 162ZM747.467 161.912V154.241H750.627C752.149 154.241 753.186 155.129 753.186 156.444C753.186 157.342 752.632 158.11 751.724 158.449L754 161.912H752.384L750.321 158.647H748.859V161.912H747.467ZM748.859 157.54H750.392C751.252 157.54 751.807 157.09 751.807 156.444C751.807 155.786 751.252 155.348 750.392 155.348H748.859V157.54Z" fill="white"/>
<path d="M874.69 194C873.022 194 872 192.503 872 190C872 187.497 873.022 186 874.69 186C876.359 186 877.39 187.497 877.39 190C877.39 192.503 876.359 194 874.69 194ZM874.69 193.34C875.951 193.34 876.681 192.123 876.681 190C876.681 187.877 875.951 186.659 874.69 186.659C873.428 186.659 872.698 187.877 872.698 190C872.698 192.123 873.428 193.34 874.69 193.34ZM878.701 193.967C878.409 193.967 878.19 193.732 878.19 193.419C878.19 193.106 878.409 192.871 878.701 192.871C878.993 192.871 879.222 193.106 879.222 193.419C879.222 193.732 878.993 193.967 878.701 193.967ZM882.794 194C880.98 194 880.062 192.57 880.062 190.425C880.062 187.731 881.188 186 883.045 186C884.264 186 885.202 186.703 885.348 187.899H884.671C884.525 187.105 883.847 186.636 883.045 186.636C881.49 186.636 880.823 188.235 880.719 190.022C881.126 189.173 881.96 188.749 882.867 188.749C884.326 188.749 885.328 189.809 885.328 191.341C885.328 192.905 884.275 194 882.794 194ZM882.762 193.362C883.858 193.362 884.639 192.525 884.639 191.351C884.639 190.167 883.858 189.34 882.762 189.34C881.657 189.34 880.885 190.179 880.885 191.351C880.885 192.525 881.657 193.362 882.762 193.362ZM888.832 194C887.331 194 886.372 193.017 886.288 191.642H886.955C887.07 192.659 887.758 193.34 888.821 193.34C889.917 193.34 890.698 192.536 890.698 191.453C890.698 190.38 889.989 189.675 889.02 189.675C888.613 189.675 888.269 189.732 887.945 189.844V189.307L890.23 186.748H886.506V186.089H891.064V186.715L888.832 189.161C888.937 189.139 889.051 189.128 889.187 189.128C890.531 189.128 891.398 190.089 891.398 191.475C891.398 192.927 890.334 194 888.832 194ZM896.195 193.911V191.821H892.265V191.195L896.049 186.089H896.904V191.162H898V191.821H896.904V193.911H896.195ZM893.005 191.162H896.195V186.916L893.005 191.162Z" fill="white"/>
<path d="M575.765 255H537.235C531.582 255 527 259.557 527 265.178V426.822C527 432.443 531.582 437 537.235 437H575.765C581.418 437 586 432.443 586 426.822V265.178C586 259.557 581.418 255 575.765 255Z" fill="#77767D"/>
<path d="M575.765 255H537.235C531.582 255 527 259.557 527 265.178V426.822C527 432.443 531.582 437 537.235 437H575.765C581.418 437 586 432.443 586 426.822V265.178C586 259.557 581.418 255 575.765 255Z" stroke="#77767D"/>
<path d="M558 231.606V231H556V231.606H557H558ZM557 275H558V231.606H557H556V275H557Z" fill="white"/>
<path d="M548.593 231H548V232.216H548.593V231.608V231ZM548.593 274.784H548V276H548.593V275.392V274.784ZM565 231.608V231H548.593V231.608V232.216H565V231.608ZM565 275.392V274.784H548.593V275.392V276H565V275.392Z" fill="white"/>
<path d="M504.592 283H465.408C459.66 283 455 287.543 455 293.147V426.853C455 432.457 459.66 437 465.408 437H504.592C510.34 437 515 432.457 515 426.853V293.147C515 287.543 510.34 283 504.592 283Z" fill="#4952D9"/>
<path d="M504.592 283H465.408C459.66 283 455 287.543 455 293.147V426.853C455 432.457 459.66 437 465.408 437H504.592C510.34 437 515 432.457 515 426.853V293.147C515 287.543 510.34 283 504.592 283Z" stroke="#4952D9"/>
<path d="M486 248.601V248H484V248.601H485H486ZM485 312H486V248.601H485H484V312H485Z" fill="white"/>
<path d="M476.628 248H476V249.185H476.628V248.593V248ZM476.628 310.815H476V312H476.628V311.407V310.815ZM494 248.593V248H476.628V248.593V249.185H494V248.593ZM494 311.407V310.815H476.628V311.407V312H494V311.407Z" fill="white"/>
<path d="M432.765 332H394.235C388.582 332 384 336.541 384 342.142V426.858C384 432.459 388.582 437 394.235 437H432.765C438.418 437 443 432.459 443 426.858V342.142C443 336.541 438.418 332 432.765 332Z" fill="#FF8633"/>
<path d="M432.765 332H394.235C388.582 332 384 336.541 384 342.142V426.858C384 432.459 388.582 437 394.235 437H432.765C438.418 437 443 432.459 443 426.858V342.142C443 336.541 438.418 332 432.765 332Z" stroke="#FF8633"/>
<path d="M414 319.593V319H412V319.593H413H414ZM413 342H414V319.593H413H412V342H413Z" fill="white"/>
<path d="M405.593 319H405V320.2H405.593V319.6V319ZM405.593 341.8H405V343H405.593V342.4V341.8ZM422 319.6V319H405.593V319.6V320.2H422V319.6ZM422 342.4V341.8H405.593V342.4V343H422V342.4Z" fill="white"/>
<path d="M903.939 276H866.061C860.505 276 856 280.539 856 286.137V426.863C856 432.462 860.505 437 866.061 437H903.939C909.495 437 914 432.462 914 426.863V286.137C914 280.539 909.495 276 903.939 276Z" fill="#77767D"/>
<path d="M903.939 276H866.061C860.505 276 856 280.539 856 286.137V426.863C856 432.462 860.505 437 866.061 437H903.939C909.495 437 914 432.462 914 426.863V286.137C914 280.539 909.495 276 903.939 276Z" stroke="#77767D"/>
<path d="M885 242.592V242H884V242.592H884.5H885ZM884.5 305H885V242.592H884.5H884V305H884.5Z" fill="white"/>
<path d="M876.593 241H876V242.204H876.593V241.602V241ZM876.593 304.796H876V306H876.593V305.398V304.796ZM893 241.602V241H876.593V241.602V242.204H893V241.602ZM893 305.398V304.796H876.593V305.398V306H893V305.398Z" fill="white"/>
<path d="M831.939 345H794.061C788.505 345 784 349.547 784 355.156V426.844C784 432.453 788.505 437 794.061 437H831.939C837.495 437 842 432.453 842 426.844V355.156C842 349.547 837.495 345 831.939 345Z" fill="#4952D9"/>
<path d="M831.939 345H794.061C788.505 345 784 349.547 784 355.156V426.844C784 432.453 788.505 437 794.061 437H831.939C837.495 437 842 432.453 842 426.844V355.156C842 349.547 837.495 345 831.939 345Z" stroke="#4952D9"/>
<path d="M812.855 310.589L812.853 310L812 310.005L812.002 310.594L812.428 310.592L812.855 310.589ZM812.573 367.998L813 367.995L812.855 310.589L812.428 310.592L812.002 310.594L812.147 368L812.573 367.998Z" fill="white"/>
<path d="M804.586 310H804V311.18H804.586V310.59V310ZM804.586 367.82H804V369H804.586V368.41V367.82ZM821 310.59V310H804.586V310.59V311.18H821V310.59ZM821 368.41V367.82H804.586V368.41V369H821V368.41Z" fill="white"/>
<path d="M759.939 255H722.061C716.505 255 712 259.557 712 265.178V426.822C712 432.443 716.505 437 722.061 437H759.939C765.495 437 770 432.443 770 426.822V265.178C770 259.557 765.495 255 759.939 255Z" fill="#FF8633"/>
<path d="M759.939 255H722.061C716.505 255 712 259.557 712 265.178V426.822C712 432.443 716.505 437 722.061 437H759.939C765.495 437 770 432.443 770 426.822V265.178C770 259.557 765.495 255 759.939 255Z" stroke="#FF8633"/>
<path d="M742 227.596V227H741V227.596H741.5H742ZM741.5 275H742V227.596H741.5H741V275H741.5Z" fill="white"/>
<path d="M732.593 226H732V227.22H732.593V226.61V226ZM732.593 274.78H732V276H732.593V275.39V274.78ZM749 226.61V226H732.593V226.61V227.22H749V226.61ZM749 275.39V274.78H732.593V275.39V276H749V275.39Z" fill="white"/>
<path d="M80.9844 468V461.829C80.6129 462.269 79.8822 462.609 79 462.76V462.169C79.8235 462.04 80.5555 461.629 81.0895 461H81.7737V468H80.9844ZM87.141 468L85.4803 465.9L83.8209 468H82.9851L85.0624 465.369L83.1586 462.96H84.0176L85.4926 464.829L86.9662 462.96H87.791L85.9105 465.349L88 468H87.141Z" fill="white"/>
<path d="M134 467.922V462.994H134.639V464.099C134.943 463.425 135.652 462.916 136.584 462.916C137.648 462.916 138.418 463.542 138.418 464.676V467.922H137.78V464.802C137.78 463.923 137.273 463.473 136.472 463.473C135.358 463.473 134.639 464.402 134.639 465.819V467.922H134ZM141.455 468C140.361 468 139.692 467.433 139.692 466.621C139.692 465.615 140.412 465.145 142.074 464.978L143.229 464.861V464.646C143.229 463.923 142.661 463.464 141.84 463.464C141.03 463.464 140.462 463.874 140.351 464.617H139.712C139.865 463.62 140.705 462.916 141.84 462.916C143.016 462.916 143.867 463.61 143.867 464.696V467.922H143.229V466.905C143.036 467.52 142.286 468 141.455 468ZM143.229 465.36L142.114 465.478C140.867 465.615 140.341 465.888 140.341 466.601C140.341 467.149 140.786 467.481 141.486 467.481C142.52 467.481 143.229 466.7 143.229 465.615V465.36ZM145.377 467.922V462.994H146.025V467.922H145.377ZM145.711 462.026C145.418 462.026 145.195 461.821 145.195 461.537C145.195 461.263 145.418 461.059 145.711 461.059C146.015 461.059 146.228 461.263 146.228 461.537C146.228 461.821 146.015 462.026 145.711 462.026ZM148.99 467.922L147.004 462.994H147.703L149.344 467.168L150.976 462.994H151.645L149.668 467.922H148.99ZM154.646 468C153.187 468 152.165 466.944 152.165 465.458C152.165 463.972 153.198 462.916 154.626 462.916C156.126 462.916 157.069 464.031 156.907 465.458H152.813C152.813 466.67 153.572 467.453 154.646 467.453C155.579 467.453 156.137 466.953 156.247 466.377H156.896C156.724 467.257 156.004 468 154.646 468ZM152.854 464.95H156.258C156.258 464.05 155.579 463.464 154.626 463.464C153.694 463.464 153.025 464.02 152.854 464.95ZM160.206 467.922V467.384L162.972 464.92C163.793 464.187 164.219 463.629 164.219 462.994C164.219 462.134 163.55 461.576 162.627 461.576C161.553 461.576 160.905 462.28 160.986 463.375H160.307C160.226 461.967 161.159 461 162.638 461C163.965 461 164.897 461.772 164.897 462.994C164.897 463.825 164.381 464.529 163.368 465.37L161.148 467.344H164.928V467.922H160.206ZM166.504 467.971C166.22 467.971 166.007 467.765 166.007 467.492C166.007 467.218 166.22 467.012 166.504 467.012C166.788 467.012 167.01 467.218 167.01 467.492C167.01 467.765 166.788 467.971 166.504 467.971ZM170.481 468C168.717 468 167.826 466.749 167.826 464.872C167.826 462.515 168.92 461 170.724 461C171.91 461 172.822 461.615 172.964 462.662H172.304C172.162 461.967 171.504 461.557 170.724 461.557C169.215 461.557 168.566 462.955 168.465 464.52C168.859 463.777 169.67 463.405 170.552 463.405C171.971 463.405 172.943 464.333 172.943 465.673C172.943 467.042 171.919 468 170.481 468ZM170.451 467.442C171.514 467.442 172.275 466.71 172.275 465.682C172.275 464.646 171.514 463.923 170.451 463.923C169.377 463.923 168.627 464.656 168.627 465.682C168.627 466.71 169.377 467.442 170.451 467.442ZM177.25 467.922L175.801 465.869L174.352 467.922H173.623L175.436 465.35L173.774 462.994H174.524L175.811 464.822L177.098 462.994H177.818L176.176 465.33L178 467.922H177.25Z" fill="white"/>
<path d="M199.504 468C198.01 468 197 466.973 197 465.458C197 463.942 198.01 462.916 199.504 462.916C200.332 462.916 201.11 463.346 201.422 463.992V461H202.059V467.922H201.422V466.925C201.11 467.559 200.332 468 199.504 468ZM199.535 467.453C200.625 467.453 201.422 466.621 201.422 465.458C201.422 464.285 200.625 463.464 199.535 463.464C198.444 463.464 197.646 464.285 197.646 465.458C197.646 466.631 198.444 467.453 199.535 467.453ZM205.136 468C204.046 468 203.379 467.433 203.379 466.621C203.379 465.615 204.097 465.145 205.752 464.978L206.903 464.861V464.646C206.903 463.923 206.338 463.464 205.52 463.464C204.712 463.464 204.147 463.874 204.036 464.617H203.4C203.552 463.62 204.389 462.916 205.52 462.916C206.691 462.916 207.539 463.61 207.539 464.696V467.922H206.903V466.905C206.711 467.52 205.964 468 205.136 468ZM206.903 465.36L205.793 465.478C204.55 465.615 204.025 465.888 204.025 466.601C204.025 467.149 204.47 467.481 205.167 467.481C206.197 467.481 206.903 466.7 206.903 465.615V465.36ZM210.579 468C209.762 468 209.237 467.492 209.237 466.562V463.512H208.349V462.994H209.237V461.713H209.873V462.994H211.216V463.512H209.873V466.523C209.873 467.149 210.186 467.442 210.651 467.442C210.853 467.442 211.064 467.403 211.226 467.344V467.883C211.084 467.952 210.832 468 210.579 468ZM213.76 468C212.67 468 212.003 467.433 212.003 466.621C212.003 465.615 212.721 465.145 214.377 464.978L215.528 464.861V464.646C215.528 463.923 214.962 463.464 214.144 463.464C213.336 463.464 212.771 463.874 212.66 464.617H212.024C212.176 463.62 213.013 462.916 214.144 462.916C215.315 462.916 216.163 463.61 216.163 464.696V467.922H215.528V466.905C215.335 467.52 214.588 468 213.76 468ZM215.528 465.36L214.417 465.478C213.175 465.615 212.65 465.888 212.65 466.601C212.65 467.149 213.094 467.481 213.791 467.481C214.821 467.481 215.528 466.7 215.528 465.615V465.36ZM217.385 465.517V464.998H220.192V465.517H217.385ZM223.067 468C221.795 468 221.149 467.237 221.099 466.328H221.745C221.795 466.914 222.169 467.453 223.067 467.453C223.734 467.453 224.229 467.12 224.229 466.543C224.229 465.184 221.241 465.986 221.241 464.196C221.241 463.453 221.887 462.916 222.896 462.916C224.057 462.916 224.662 463.492 224.734 464.344H224.097C224.007 463.796 223.633 463.464 222.896 463.464C222.32 463.464 221.876 463.718 221.876 464.168C221.876 465.428 224.875 464.607 224.875 466.523C224.875 467.433 224.108 468 223.067 468ZM226.076 467.922V462.994H226.722V467.922H226.076ZM226.408 462.026C226.116 462.026 225.894 461.821 225.894 461.537C225.894 461.263 226.116 461.059 226.408 461.059C226.711 461.059 226.924 461.263 226.924 461.537C226.924 461.821 226.711 462.026 226.408 462.026ZM230.463 468C228.969 468 227.96 466.973 227.96 465.458C227.96 463.942 228.969 462.916 230.463 462.916C231.291 462.916 232.068 463.346 232.382 463.992V461H233.017V467.922H232.382V466.925C232.068 467.559 231.291 468 230.463 468ZM230.493 467.453C231.583 467.453 232.382 466.621 232.382 465.458C232.382 464.285 231.583 463.464 230.493 463.464C229.403 463.464 228.606 464.285 228.606 465.458C228.606 466.631 229.403 467.453 230.493 467.453ZM236.732 468C235.278 468 234.258 466.944 234.258 465.458C234.258 463.972 235.288 462.916 236.712 462.916C238.206 462.916 239.145 464.031 238.983 465.458H234.904C234.904 466.67 235.662 467.453 236.732 467.453C237.661 467.453 238.216 466.953 238.327 466.377H238.973C238.801 467.257 238.085 468 236.732 468ZM234.945 464.95H238.337C238.337 464.05 237.661 463.464 236.712 463.464C235.783 463.464 235.117 464.02 234.945 464.95ZM242.271 467.922V467.384L245.027 464.92C245.845 464.187 246.269 463.629 246.269 462.994C246.269 462.134 245.602 461.576 244.684 461.576C243.614 461.576 242.968 462.28 243.049 463.375H242.372C242.291 461.967 243.22 461 244.694 461C246.017 461 246.946 461.772 246.946 462.994C246.946 463.825 246.43 464.529 245.421 465.37L243.21 467.344H246.975V467.922H242.271ZM248.545 467.971C248.263 467.971 248.051 467.765 248.051 467.492C248.051 467.218 248.263 467.012 248.545 467.012C248.828 467.012 249.05 467.218 249.05 467.492C249.05 467.765 248.828 467.971 248.545 467.971ZM252.508 468C250.751 468 249.863 466.749 249.863 464.872C249.863 462.515 250.953 461 252.75 461C253.932 461 254.84 461.615 254.982 462.662H254.325C254.184 461.967 253.528 461.557 252.75 461.557C251.246 461.557 250.6 462.955 250.499 464.52C250.892 463.777 251.7 463.405 252.579 463.405C253.992 463.405 254.962 464.333 254.962 465.673C254.962 467.042 253.941 468 252.508 468ZM252.478 467.442C253.538 467.442 254.295 466.71 254.295 465.682C254.295 464.646 253.538 463.923 252.478 463.923C251.408 463.923 250.661 464.656 250.661 465.682C250.661 466.71 251.408 467.442 252.478 467.442ZM259.253 467.922L257.81 465.869L256.366 467.922H255.639L257.446 465.35L255.791 462.994H256.538L257.819 464.822L259.102 462.994H259.818L258.183 465.33L260 467.922H259.253Z" fill="white"/>
<path d="M410.984 468V461.829C410.613 462.269 409.882 462.609 409 462.76V462.169C409.824 462.04 410.556 461.629 411.09 461H411.774V468H410.984ZM417.141 468L415.48 465.9L413.821 468H412.985L415.062 465.369L413.159 462.96H414.018L415.493 464.829L416.966 462.96H417.791L415.91 465.349L418 468H417.141Z" fill="white"/>
<path d="M464 467.922V462.994H464.639V464.099C464.943 463.425 465.652 462.916 466.584 462.916C467.648 462.916 468.418 463.542 468.418 464.676V467.922H467.78V464.802C467.78 463.923 467.273 463.473 466.472 463.473C465.358 463.473 464.639 464.402 464.639 465.819V467.922H464ZM471.455 468C470.361 468 469.692 467.433 469.692 466.621C469.692 465.615 470.412 465.145 472.074 464.978L473.229 464.861V464.646C473.229 463.923 472.661 463.464 471.84 463.464C471.03 463.464 470.462 463.874 470.351 464.617H469.712C469.865 463.62 470.705 462.916 471.84 462.916C473.016 462.916 473.867 463.61 473.867 464.696V467.922H473.229V466.905C473.036 467.52 472.286 468 471.455 468ZM473.229 465.36L472.114 465.478C470.867 465.615 470.341 465.888 470.341 466.601C470.341 467.149 470.786 467.481 471.486 467.481C472.52 467.481 473.229 466.7 473.229 465.615V465.36ZM475.377 467.922V462.994H476.025V467.922H475.377ZM475.711 462.026C475.418 462.026 475.195 461.821 475.195 461.537C475.195 461.263 475.418 461.059 475.711 461.059C476.015 461.059 476.228 461.263 476.228 461.537C476.228 461.821 476.015 462.026 475.711 462.026ZM478.99 467.922L477.004 462.994H477.703L479.344 467.168L480.976 462.994H481.645L479.668 467.922H478.99ZM484.646 468C483.187 468 482.165 466.944 482.165 465.458C482.165 463.972 483.198 462.916 484.626 462.916C486.126 462.916 487.069 464.031 486.907 465.458H482.813C482.813 466.67 483.572 467.453 484.646 467.453C485.579 467.453 486.136 466.953 486.247 466.377H486.896C486.724 467.257 486.004 468 484.646 468ZM482.854 464.95H486.258C486.258 464.05 485.579 463.464 484.626 463.464C483.694 463.464 483.025 464.02 482.854 464.95ZM490.206 467.922V467.384L492.972 464.92C493.793 464.187 494.219 463.629 494.219 462.994C494.219 462.134 493.55 461.576 492.627 461.576C491.553 461.576 490.905 462.28 490.986 463.375H490.307C490.226 461.967 491.159 461 492.638 461C493.965 461 494.897 461.772 494.897 462.994C494.897 463.825 494.381 464.529 493.368 465.37L491.148 467.344H494.928V467.922H490.206ZM496.504 467.971C496.22 467.971 496.007 467.765 496.007 467.492C496.007 467.218 496.22 467.012 496.504 467.012C496.788 467.012 497.01 467.218 497.01 467.492C497.01 467.765 496.788 467.971 496.504 467.971ZM500.48 468C498.717 468 497.826 466.749 497.826 464.872C497.826 462.515 498.92 461 500.724 461C501.91 461 502.822 461.615 502.964 462.662H502.304C502.162 461.967 501.504 461.557 500.724 461.557C499.215 461.557 498.566 462.955 498.465 464.52C498.859 463.777 499.67 463.405 500.552 463.405C501.971 463.405 502.943 464.333 502.943 465.673C502.943 467.042 501.919 468 500.48 468ZM500.451 467.442C501.514 467.442 502.275 466.71 502.275 465.682C502.275 464.646 501.514 463.923 500.451 463.923C499.377 463.923 498.627 464.656 498.627 465.682C498.627 466.71 499.377 467.442 500.451 467.442ZM507.25 467.922L505.801 465.869L504.352 467.922H503.623L505.436 465.35L503.774 462.994H504.524L505.811 464.822L507.098 462.994H507.818L506.176 465.33L508 467.922H507.25Z" fill="white"/>
<path d="M529.504 468C528.01 468 527 466.973 527 465.458C527 463.942 528.01 462.916 529.504 462.916C530.332 462.916 531.11 463.346 531.422 463.992V461H532.059V467.922H531.422V466.925C531.11 467.559 530.332 468 529.504 468ZM529.535 467.453C530.625 467.453 531.422 466.621 531.422 465.458C531.422 464.285 530.625 463.464 529.535 463.464C528.444 463.464 527.646 464.285 527.646 465.458C527.646 466.631 528.444 467.453 529.535 467.453ZM535.136 468C534.046 468 533.379 467.433 533.379 466.621C533.379 465.615 534.097 465.145 535.752 464.978L536.903 464.861V464.646C536.903 463.923 536.338 463.464 535.52 463.464C534.712 463.464 534.147 463.874 534.036 464.617H533.4C533.552 463.62 534.389 462.916 535.52 462.916C536.691 462.916 537.539 463.61 537.539 464.696V467.922H536.903V466.905C536.711 467.52 535.964 468 535.136 468ZM536.903 465.36L535.793 465.478C534.55 465.615 534.025 465.888 534.025 466.601C534.025 467.149 534.47 467.481 535.167 467.481C536.197 467.481 536.903 466.7 536.903 465.615V465.36ZM540.579 468C539.762 468 539.237 467.492 539.237 466.562V463.512H538.349V462.994H539.237V461.713H539.873V462.994H541.216V463.512H539.873V466.523C539.873 467.149 540.186 467.442 540.651 467.442C540.853 467.442 541.064 467.403 541.226 467.344V467.883C541.084 467.952 540.832 468 540.579 468ZM543.76 468C542.67 468 542.003 467.433 542.003 466.621C542.003 465.615 542.721 465.145 544.377 464.978L545.528 464.861V464.646C545.528 463.923 544.962 463.464 544.144 463.464C543.336 463.464 542.771 463.874 542.66 464.617H542.024C542.176 463.62 543.013 462.916 544.144 462.916C545.315 462.916 546.163 463.61 546.163 464.696V467.922H545.528V466.905C545.335 467.52 544.588 468 543.76 468ZM545.528 465.36L544.417 465.478C543.175 465.615 542.65 465.888 542.65 466.601C542.65 467.149 543.094 467.481 543.791 467.481C544.821 467.481 545.528 466.7 545.528 465.615V465.36ZM547.385 465.517V464.998H550.192V465.517H547.385ZM553.067 468C551.795 468 551.149 467.237 551.099 466.328H551.745C551.795 466.914 552.169 467.453 553.067 467.453C553.734 467.453 554.229 467.12 554.229 466.543C554.229 465.184 551.241 465.986 551.241 464.196C551.241 463.453 551.887 462.916 552.896 462.916C554.057 462.916 554.662 463.492 554.734 464.344H554.097C554.007 463.796 553.633 463.464 552.896 463.464C552.32 463.464 551.876 463.718 551.876 464.168C551.876 465.428 554.875 464.607 554.875 466.523C554.875 467.433 554.108 468 553.067 468ZM556.076 467.922V462.994H556.722V467.922H556.076ZM556.408 462.026C556.116 462.026 555.894 461.821 555.894 461.537C555.894 461.263 556.116 461.059 556.408 461.059C556.711 461.059 556.924 461.263 556.924 461.537C556.924 461.821 556.711 462.026 556.408 462.026ZM560.463 468C558.969 468 557.96 466.973 557.96 465.458C557.96 463.942 558.969 462.916 560.463 462.916C561.291 462.916 562.068 463.346 562.382 463.992V461H563.017V467.922H562.382V466.925C562.068 467.559 561.291 468 560.463 468ZM560.493 467.453C561.583 467.453 562.382 466.621 562.382 465.458C562.382 464.285 561.583 463.464 560.493 463.464C559.403 463.464 558.606 464.285 558.606 465.458C558.606 466.631 559.403 467.453 560.493 467.453ZM566.732 468C565.278 468 564.258 466.944 564.258 465.458C564.258 463.972 565.288 462.916 566.712 462.916C568.206 462.916 569.144 464.031 568.983 465.458H564.904C564.904 466.67 565.662 467.453 566.732 467.453C567.661 467.453 568.216 466.953 568.327 466.377H568.973C568.801 467.257 568.085 468 566.732 468ZM564.945 464.95H568.337C568.337 464.05 567.661 463.464 566.712 463.464C565.783 463.464 565.117 464.02 564.945 464.95ZM572.271 467.922V467.384L575.027 464.92C575.845 464.187 576.269 463.629 576.269 462.994C576.269 462.134 575.602 461.576 574.684 461.576C573.614 461.576 572.968 462.28 573.049 463.375H572.372C572.291 461.967 573.22 461 574.694 461C576.017 461 576.946 461.772 576.946 462.994C576.946 463.825 576.43 464.529 575.42 465.37L573.21 467.344H576.975V467.922H572.271ZM578.545 467.971C578.263 467.971 578.051 467.765 578.051 467.492C578.051 467.218 578.263 467.012 578.545 467.012C578.828 467.012 579.05 467.218 579.05 467.492C579.05 467.765 578.828 467.971 578.545 467.971ZM582.508 468C580.751 468 579.863 466.749 579.863 464.872C579.863 462.515 580.953 461 582.75 461C583.932 461 584.84 461.615 584.982 462.662H584.325C584.184 461.967 583.528 461.557 582.75 461.557C581.246 461.557 580.6 462.955 580.499 464.52C580.892 463.777 581.7 463.405 582.579 463.405C583.992 463.405 584.962 464.333 584.962 465.673C584.962 467.042 583.941 468 582.508 468ZM582.478 467.442C583.538 467.442 584.295 466.71 584.295 465.682C584.295 464.646 583.538 463.923 582.478 463.923C581.408 463.923 580.661 464.656 580.661 465.682C580.661 466.71 581.408 467.442 582.478 467.442ZM589.253 467.922L587.81 465.869L586.366 467.922H585.639L587.446 465.35L585.791 462.994H586.538L587.819 464.822L589.102 462.994H589.818L588.183 465.33L590 467.922H589.253Z" fill="white"/>
<path d="M736.984 468V461.829C736.613 462.269 735.882 462.609 735 462.76V462.169C735.824 462.04 736.556 461.629 737.09 461H737.774V468H736.984ZM743.141 468L741.48 465.9L739.821 468H738.985L741.062 465.369L739.159 462.96H740.018L741.493 464.829L742.966 462.96H743.791L741.91 465.349L744 468H743.141Z" fill="white"/>
<path d="M789 467.922V462.994H789.653V464.099C789.964 463.425 790.69 462.916 791.643 462.916C792.731 462.916 793.518 463.542 793.518 464.676V467.922H792.866V464.802C792.866 463.923 792.348 463.473 791.528 463.473C790.389 463.473 789.653 464.402 789.653 465.819V467.922H789ZM796.625 468C795.505 468 794.821 467.433 794.821 466.621C794.821 465.615 795.558 465.145 797.257 464.978L798.439 464.861V464.646C798.439 463.923 797.858 463.464 797.018 463.464C796.189 463.464 795.609 463.874 795.496 464.617H794.842C794.998 463.62 795.858 462.916 797.018 462.916C798.22 462.916 799.091 463.61 799.091 464.696V467.922H798.439V466.905C798.241 467.52 797.474 468 796.625 468ZM798.439 465.36L797.299 465.478C796.023 465.615 795.485 465.888 795.485 466.601C795.485 467.149 795.941 467.481 796.656 467.481C797.713 467.481 798.439 466.7 798.439 465.615V465.36ZM800.636 467.922V462.994H801.299V467.922H800.636ZM800.977 462.026C800.677 462.026 800.449 461.821 800.449 461.537C800.449 461.263 800.677 461.059 800.977 461.059C801.288 461.059 801.506 461.263 801.506 461.537C801.506 461.821 801.288 462.026 800.977 462.026ZM804.331 467.922L802.3 462.994H803.014L804.693 467.168L806.362 462.994H807.046L805.024 467.922H804.331ZM810.116 468C808.623 468 807.577 466.944 807.577 465.458C807.577 463.972 808.634 462.916 810.095 462.916C811.629 462.916 812.593 464.031 812.427 465.458H808.241C808.241 466.67 809.017 467.453 810.116 467.453C811.069 467.453 811.64 466.953 811.753 466.377H812.416C812.241 467.257 811.504 468 810.116 468ZM808.282 464.95H811.764C811.764 464.05 811.069 463.464 810.095 463.464C809.142 463.464 808.458 464.02 808.282 464.95ZM815.802 467.922V467.384L818.63 464.92C819.47 464.187 819.905 463.629 819.905 462.994C819.905 462.134 819.221 461.576 818.278 461.576C817.179 461.576 816.516 462.28 816.599 463.375H815.905C815.822 461.967 816.776 461 818.289 461C819.646 461 820.599 461.772 820.599 462.994C820.599 463.825 820.071 464.529 819.035 465.37L816.765 467.344H820.631V467.922H815.802ZM822.243 467.971C821.952 467.971 821.734 467.765 821.734 467.492C821.734 467.218 821.952 467.012 822.243 467.012C822.533 467.012 822.761 467.218 822.761 467.492C822.761 467.765 822.533 467.971 822.243 467.971ZM826.31 468C824.506 468 823.595 466.749 823.595 464.872C823.595 462.515 824.714 461 826.558 461C827.771 461 828.704 461.615 828.849 462.662H828.175C828.03 461.967 827.357 461.557 826.558 461.557C825.015 461.557 824.352 462.955 824.248 464.52C824.652 463.777 825.481 463.405 826.383 463.405C827.834 463.405 828.828 464.333 828.828 465.673C828.828 467.042 827.781 468 826.31 468ZM826.279 467.442C827.367 467.442 828.144 466.71 828.144 465.682C828.144 464.646 827.367 463.923 826.279 463.923C825.181 463.923 824.414 464.656 824.414 465.682C824.414 466.71 825.181 467.442 826.279 467.442ZM833.233 467.922L831.751 465.869L830.269 467.922H829.523L831.378 465.35L829.678 462.994H830.445L831.762 464.822L833.077 462.994H833.814L832.135 465.33L834 467.922H833.233Z" fill="white"/>
<path d="M855.504 468C854.01 468 853 466.973 853 465.458C853 463.942 854.01 462.916 855.504 462.916C856.332 462.916 857.11 463.346 857.422 463.992V461H858.059V467.922H857.422V466.925C857.11 467.559 856.332 468 855.504 468ZM855.535 467.453C856.625 467.453 857.422 466.621 857.422 465.458C857.422 464.285 856.625 463.464 855.535 463.464C854.444 463.464 853.646 464.285 853.646 465.458C853.646 466.631 854.444 467.453 855.535 467.453ZM861.136 468C860.046 468 859.379 467.433 859.379 466.621C859.379 465.615 860.097 465.145 861.752 464.978L862.903 464.861V464.646C862.903 463.923 862.338 463.464 861.52 463.464C860.712 463.464 860.147 463.874 860.036 464.617H859.4C859.552 463.62 860.389 462.916 861.52 462.916C862.691 462.916 863.539 463.61 863.539 464.696V467.922H862.903V466.905C862.711 467.52 861.964 468 861.136 468ZM862.903 465.36L861.793 465.478C860.55 465.615 860.025 465.888 860.025 466.601C860.025 467.149 860.47 467.481 861.167 467.481C862.197 467.481 862.903 466.7 862.903 465.615V465.36ZM866.579 468C865.762 468 865.237 467.492 865.237 466.562V463.512H864.349V462.994H865.237V461.713H865.873V462.994H867.216V463.512H865.873V466.523C865.873 467.149 866.186 467.442 866.651 467.442C866.853 467.442 867.064 467.403 867.226 467.344V467.883C867.084 467.952 866.832 468 866.579 468ZM869.76 468C868.67 468 868.003 467.433 868.003 466.621C868.003 465.615 868.721 465.145 870.377 464.978L871.528 464.861V464.646C871.528 463.923 870.962 463.464 870.144 463.464C869.336 463.464 868.771 463.874 868.66 464.617H868.024C868.176 463.62 869.013 462.916 870.144 462.916C871.315 462.916 872.163 463.61 872.163 464.696V467.922H871.528V466.905C871.335 467.52 870.588 468 869.76 468ZM871.528 465.36L870.417 465.478C869.175 465.615 868.65 465.888 868.65 466.601C868.65 467.149 869.094 467.481 869.791 467.481C870.821 467.481 871.528 466.7 871.528 465.615V465.36ZM873.385 465.517V464.998H876.192V465.517H873.385ZM879.067 468C877.795 468 877.149 467.237 877.099 466.328H877.745C877.795 466.914 878.169 467.453 879.067 467.453C879.734 467.453 880.229 467.12 880.229 466.543C880.229 465.184 877.241 465.986 877.241 464.196C877.241 463.453 877.887 462.916 878.896 462.916C880.057 462.916 880.662 463.492 880.734 464.344H880.097C880.007 463.796 879.633 463.464 878.896 463.464C878.32 463.464 877.876 463.718 877.876 464.168C877.876 465.428 880.875 464.607 880.875 466.523C880.875 467.433 880.108 468 879.067 468ZM882.076 467.922V462.994H882.722V467.922H882.076ZM882.408 462.026C882.116 462.026 881.894 461.821 881.894 461.537C881.894 461.263 882.116 461.059 882.408 461.059C882.711 461.059 882.924 461.263 882.924 461.537C882.924 461.821 882.711 462.026 882.408 462.026ZM886.463 468C884.969 468 883.96 466.973 883.96 465.458C883.96 463.942 884.969 462.916 886.463 462.916C887.291 462.916 888.068 463.346 888.382 463.992V461H889.017V467.922H888.382V466.925C888.068 467.559 887.291 468 886.463 468ZM886.493 467.453C887.583 467.453 888.382 466.621 888.382 465.458C888.382 464.285 887.583 463.464 886.493 463.464C885.403 463.464 884.606 464.285 884.606 465.458C884.606 466.631 885.403 467.453 886.493 467.453ZM892.732 468C891.278 468 890.258 466.944 890.258 465.458C890.258 463.972 891.288 462.916 892.712 462.916C894.206 462.916 895.144 464.031 894.983 465.458H890.904C890.904 466.67 891.662 467.453 892.732 467.453C893.661 467.453 894.216 466.953 894.327 466.377H894.973C894.801 467.257 894.085 468 892.732 468ZM890.945 464.95H894.337C894.337 464.05 893.661 463.464 892.712 463.464C891.783 463.464 891.117 464.02 890.945 464.95ZM898.271 467.922V467.384L901.027 464.92C901.845 464.187 902.269 463.629 902.269 462.994C902.269 462.134 901.602 461.576 900.684 461.576C899.614 461.576 898.968 462.28 899.049 463.375H898.372C898.291 461.967 899.22 461 900.694 461C902.017 461 902.946 461.772 902.946 462.994C902.946 463.825 902.43 464.529 901.42 465.37L899.21 467.344H902.975V467.922H898.271ZM904.545 467.971C904.263 467.971 904.051 467.765 904.051 467.492C904.051 467.218 904.263 467.012 904.545 467.012C904.828 467.012 905.05 467.218 905.05 467.492C905.05 467.765 904.828 467.971 904.545 467.971ZM908.508 468C906.751 468 905.863 466.749 905.863 464.872C905.863 462.515 906.953 461 908.75 461C909.932 461 910.84 461.615 910.982 462.662H910.325C910.184 461.967 909.528 461.557 908.75 461.557C907.246 461.557 906.6 462.955 906.499 464.52C906.892 463.777 907.7 463.405 908.579 463.405C909.992 463.405 910.962 464.333 910.962 465.673C910.962 467.042 909.941 468 908.508 468ZM908.478 467.442C909.538 467.442 910.295 466.71 910.295 465.682C910.295 464.646 909.538 463.923 908.478 463.923C907.408 463.923 906.661 464.656 906.661 465.682C906.661 466.71 907.408 467.442 908.478 467.442ZM915.253 467.922L913.81 465.869L912.366 467.922H911.639L913.446 465.35L911.791 462.994H912.538L913.819 464.822L915.102 462.994H915.818L914.183 465.33L916 467.922H915.253Z" fill="white"/>
</svg>
