<svg width="970" height="554" viewBox="0 0 970 554" fill="none" xmlns="http://www.w3.org/2000/svg">
<path d="M936.204 154H327.296C318.986 154 312.25 160.765 312.25 169.111V202.889C312.25 211.235 318.986 218 327.296 218H936.204C944.514 218 951.25 211.235 951.25 202.889V169.111C951.25 160.765 944.514 154 936.204 154Z" fill="white" fill-opacity="0.1"/>
<path d="M936.204 154H327.296C318.986 154 312.25 160.765 312.25 169.111V202.889C312.25 211.235 318.986 218 327.296 218H936.204C944.514 218 951.25 211.235 951.25 202.889V169.111C951.25 160.765 944.514 154 936.204 154Z" stroke="#FF8633"/>
<path d="M575.256 192.757C572.38 192.757 570.481 191.118 570.25 188.339H572.291C572.469 190.031 573.569 190.958 575.256 190.958C576.534 190.958 577.563 190.405 577.563 189.122C577.563 186.307 570.729 187.911 570.729 183.439C570.729 181.354 572.629 180 574.954 180C577.581 180 579.196 181.354 579.498 183.688H577.457C577.244 182.494 576.25 181.8 574.901 181.8C573.64 181.8 572.824 182.423 572.824 183.35C572.824 185.88 579.658 184.223 579.658 188.98C579.658 191.457 577.687 192.757 575.256 192.757ZM582.484 195.857L583.886 192.49L580.389 183.635H582.484L584.898 189.996L587.294 183.635H589.335L584.525 195.857H582.484ZM593.509 192.757C591.254 192.757 589.976 191.439 589.87 189.639H591.698C591.769 190.477 592.302 191.189 593.509 191.189C594.396 191.189 595.017 190.744 595.017 190.013C595.017 188.089 590.083 189.336 590.083 186.022C590.083 184.597 591.254 183.492 593.189 183.492C595.372 183.492 596.562 184.615 596.721 186.272H594.893C594.751 185.523 594.201 185.007 593.189 185.007C592.461 185.007 591.893 185.327 591.893 185.898C591.893 187.697 596.881 186.414 596.881 189.942C596.881 191.635 595.461 192.757 593.509 192.757ZM602.054 192.757C600.296 192.757 599.178 191.653 599.178 189.764V185.238H597.705V183.635H599.178V181.408H601.131V183.635H603.296V185.238H601.131V189.604C601.131 190.566 601.592 191.047 602.355 191.047C602.693 191.047 603.048 190.976 603.314 190.869V192.526C603.03 192.65 602.551 192.757 602.054 192.757ZM608.712 192.757C605.978 192.757 604.186 190.833 604.186 188.125C604.186 185.416 606.049 183.492 608.641 183.492C611.481 183.492 613.221 185.702 612.866 188.481H606.138C606.28 190.174 607.327 191.118 608.712 191.118C609.954 191.118 610.718 190.477 610.895 189.71H612.848C612.511 191.457 611.197 192.757 608.712 192.757ZM606.227 187.002H610.86C610.824 185.808 609.937 185.06 608.641 185.06C607.381 185.06 606.529 185.737 606.227 187.002ZM614.71 192.615V183.635H616.645V185.007C617.159 184.169 618.189 183.492 619.485 183.492C620.816 183.492 621.881 184.187 622.218 185.185C622.893 184.187 624.011 183.492 625.254 183.492C627.153 183.492 628.467 184.757 628.467 186.735V192.615H626.532V187.163C626.532 185.951 625.893 185.203 624.828 185.203C623.408 185.203 622.556 186.539 622.556 188.196V192.615H620.621V187.163C620.621 185.951 620 185.203 618.917 185.203C617.497 185.203 616.645 186.539 616.645 188.196V192.615H614.71ZM634.198 192.615V190.976L638.813 186.931C640.145 185.755 640.801 184.846 640.801 183.866C640.801 182.601 639.896 181.8 638.618 181.8C637.092 181.8 636.186 182.886 636.31 184.633H634.234C634.092 181.96 635.884 180 638.636 180C641.21 180 642.896 181.461 642.896 183.866C642.896 185.47 641.92 186.842 639.985 188.339L637.18 190.815H642.931V192.615H634.198ZM651.585 192.757C649.668 192.757 648.461 191.635 648.461 190.156C648.461 188.374 649.668 187.448 652.437 187.145L654.265 186.967V186.735C654.265 185.684 653.502 185.06 652.366 185.06C651.301 185.06 650.537 185.577 650.395 186.628H648.478C648.745 184.793 650.325 183.492 652.366 183.492C654.602 183.492 656.2 184.757 656.2 186.967V192.615H654.265V191.314C653.875 192.116 652.792 192.757 651.585 192.757ZM654.265 188.41L652.526 188.624C651.034 188.802 650.395 189.176 650.395 190.067C650.395 190.833 650.981 191.261 651.904 191.261C653.307 191.261 654.265 190.085 654.265 188.659V188.41ZM662.386 196C660.007 196 658.516 194.735 658.321 193.114H660.256C660.504 194.04 661.285 194.432 662.386 194.432C663.841 194.432 664.907 193.684 664.907 192.223V190.922C664.427 191.688 663.291 192.187 662.066 192.187C659.652 192.187 657.913 190.459 657.913 187.84C657.913 185.185 659.635 183.492 662.102 183.492C663.327 183.492 664.392 183.973 664.907 184.739V183.635H666.859V192.027C666.859 194.557 665.137 196 662.386 196ZM662.404 190.512C663.841 190.512 664.924 189.408 664.924 187.84C664.924 186.254 663.841 185.167 662.404 185.167C660.948 185.167 659.883 186.254 659.883 187.84C659.883 189.425 660.948 190.512 662.404 190.512ZM673.159 192.757C670.425 192.757 668.632 190.833 668.632 188.125C668.632 185.416 670.496 183.492 673.088 183.492C675.928 183.492 677.667 185.702 677.312 188.481H670.585C670.727 190.174 671.774 191.118 673.159 191.118C674.401 191.118 675.165 190.477 675.342 189.71H677.295C676.957 191.457 675.644 192.757 673.159 192.757ZM670.674 187.002H675.307C675.271 185.808 674.384 185.06 673.088 185.06C671.828 185.06 670.975 185.737 670.674 187.002ZM679.157 192.615V183.635H681.091V184.971C681.606 184.187 682.689 183.492 684.109 183.492C686.026 183.492 687.428 184.722 687.428 186.788V192.615H685.494V187.216C685.494 185.933 684.748 185.203 683.612 185.203C682.05 185.203 681.091 186.539 681.091 188.731V192.615H679.157ZM692.99 192.757C691.232 192.757 690.114 191.653 690.114 189.764V185.238H688.641V183.635H690.114V181.408H692.067V183.635H694.232V185.238H692.067V189.604C692.067 190.566 692.528 191.047 693.291 191.047C693.629 191.047 693.984 190.976 694.25 190.869V192.526C693.966 192.65 693.487 192.757 692.99 192.757Z" fill="white"/>
<path d="M625.18 269H327.32C318.997 269 312.25 275.737 312.25 284.047V384.953C312.25 393.263 318.997 400 327.32 400H625.18C633.503 400 640.25 393.263 640.25 384.953V284.047C640.25 275.737 633.503 269 625.18 269Z" fill="#262626" stroke="#4952D9"/>
<path d="M451.327 286H345.173C336.379 286 329.25 293.079 329.25 301.811V335.189C329.25 343.921 336.379 351 345.173 351H451.327C460.121 351 467.25 343.921 467.25 335.189V301.811C467.25 293.079 460.121 286 451.327 286Z" fill="#4952D9"/>
<path d="M346.25 325.779V316.858H348.17V318.221C348.681 317.389 349.703 316.717 350.989 316.717C352.311 316.717 353.368 317.407 353.703 318.398C354.372 317.407 355.482 316.717 356.715 316.717C358.6 316.717 359.904 317.973 359.904 319.938V325.779H357.984V320.363C357.984 319.159 357.35 318.416 356.292 318.416C354.883 318.416 354.037 319.743 354.037 321.389V325.779H352.117V320.363C352.117 319.159 351.5 318.416 350.426 318.416C349.016 318.416 348.17 319.743 348.17 321.389V325.779H346.25ZM364.783 325.92C362.88 325.92 361.682 324.805 361.682 323.336C361.682 321.566 362.88 320.646 365.629 320.345L367.443 320.168V319.938C367.443 318.894 366.686 318.274 365.558 318.274C364.501 318.274 363.743 318.788 363.602 319.832H361.7C361.964 318.009 363.532 316.717 365.558 316.717C367.778 316.717 369.364 317.973 369.364 320.168V325.779H367.443V324.487C367.056 325.283 365.981 325.92 364.783 325.92ZM367.443 321.602L365.717 321.814C364.237 321.991 363.602 322.363 363.602 323.248C363.602 324.009 364.184 324.434 365.1 324.434C366.492 324.434 367.443 323.265 367.443 321.85V321.602ZM371.539 325.779V316.858H373.46V318.186C373.971 317.407 375.046 316.717 376.455 316.717C378.358 316.717 379.75 317.938 379.75 319.991V325.779H377.829V320.416C377.829 319.142 377.089 318.416 375.962 318.416C374.411 318.416 373.46 319.743 373.46 321.92V325.779H371.539ZM381.938 325.779V316.858H383.858V325.779H381.938ZM382.907 315.513C382.167 315.513 381.621 314.982 381.621 314.257C381.621 313.531 382.167 313 382.907 313C383.647 313 384.211 313.531 384.211 314.257C384.211 314.982 383.647 315.513 382.907 315.513ZM386.161 329V316.858H388.099V318.097C388.61 317.265 389.755 316.717 390.989 316.717C393.614 316.717 395.34 318.54 395.34 321.319C395.34 324.097 393.614 325.92 390.989 325.92C389.773 325.92 388.61 325.354 388.099 324.522V329H386.161ZM390.742 324.257C392.275 324.257 393.385 323.053 393.385 321.319C393.385 319.566 392.275 318.381 390.742 318.381C389.191 318.381 388.099 319.566 388.099 321.319C388.099 323.035 389.191 324.257 390.742 324.257ZM400.333 325.92C398.431 325.92 397.039 324.699 397.039 322.699V316.858H398.977V322.204C398.977 323.478 399.699 324.221 400.844 324.221C402.377 324.221 403.346 322.876 403.346 320.699V316.858H405.267V325.779H403.346V324.451C402.835 325.23 401.76 325.92 400.333 325.92ZM407.56 325.779V313.248H409.481V325.779H407.56ZM414.479 325.92C412.576 325.92 411.378 324.805 411.378 323.336C411.378 321.566 412.576 320.646 415.325 320.345L417.14 320.168V319.938C417.14 318.894 416.382 318.274 415.254 318.274C414.197 318.274 413.44 318.788 413.299 319.832H411.396C411.66 318.009 413.228 316.717 415.254 316.717C417.474 316.717 419.06 317.973 419.06 320.168V325.779H417.14V324.487C416.752 325.283 415.677 325.92 414.479 325.92ZM417.14 321.602L415.413 321.814C413.933 321.991 413.299 322.363 413.299 323.248C413.299 324.009 413.88 324.434 414.796 324.434C416.188 324.434 417.14 323.265 417.14 321.85V321.602ZM424.55 325.92C422.806 325.92 421.696 324.823 421.696 322.947V318.451H420.233V316.858H421.696V314.646H423.634V316.858H425.783V318.451H423.634V322.788C423.634 323.743 424.092 324.221 424.849 324.221C425.184 324.221 425.537 324.15 425.801 324.044V325.69C425.519 325.814 425.043 325.92 424.55 325.92ZM427.385 325.779V316.858H429.305V325.779H427.385ZM428.354 315.513C427.614 315.513 427.068 314.982 427.068 314.257C427.068 313.531 427.614 313 428.354 313C429.094 313 429.658 313.531 429.658 314.257C429.658 314.982 429.094 315.513 428.354 315.513ZM435.678 325.92C433.017 325.92 431.097 323.991 431.097 321.301C431.097 318.611 433.017 316.717 435.678 316.717C438.338 316.717 440.259 318.611 440.259 321.301C440.259 324.009 438.338 325.92 435.678 325.92ZM435.678 324.257C437.228 324.257 438.303 323.053 438.303 321.301C438.303 319.584 437.228 318.381 435.678 318.381C434.145 318.381 433.053 319.566 433.053 321.301C433.053 323.053 434.145 324.257 435.678 324.257ZM442.04 325.779V316.858H443.96V318.186C444.471 317.407 445.546 316.717 446.955 316.717C448.858 316.717 450.25 317.938 450.25 319.991V325.779H448.33V320.416C448.33 319.142 447.59 318.416 446.462 318.416C444.912 318.416 443.96 319.743 443.96 321.92V325.779H442.04Z" fill="white"/>
<path d="M607.327 286H501.173C492.379 286 485.25 293.079 485.25 301.811V335.189C485.25 343.921 492.379 351 501.173 351H607.327C616.121 351 623.25 343.921 623.25 335.189V301.811C623.25 293.079 616.121 286 607.327 286Z" fill="#4952D9"/>
<path d="M513.25 325.667V316.825H515.166V318.14C515.676 317.368 516.748 316.684 518.154 316.684C520.053 316.684 521.442 317.895 521.442 319.93V325.667H519.526V320.351C519.526 319.088 518.787 318.368 517.662 318.368C516.115 318.368 515.166 319.684 515.166 321.842V325.667H513.25ZM526.314 325.807C524.416 325.807 523.22 324.702 523.22 323.246C523.22 321.491 524.416 320.579 527.158 320.281L528.969 320.105V319.877C528.969 318.842 528.213 318.228 527.088 318.228C526.033 318.228 525.277 318.737 525.137 319.772H523.238C523.502 317.965 525.066 316.684 527.088 316.684C529.303 316.684 530.885 317.93 530.885 320.105V325.667H528.969V324.386C528.582 325.175 527.51 325.807 526.314 325.807ZM528.969 321.526L527.246 321.737C525.769 321.912 525.137 322.281 525.137 323.158C525.137 323.912 525.717 324.333 526.631 324.333C528.019 324.333 528.969 323.175 528.969 321.772V321.526ZM535.33 325.667L531.815 316.825H533.906L536.297 323.123L538.688 316.825H540.709L537.194 325.667H535.33ZM542.007 325.667V316.825H543.923V325.667H542.007ZM542.973 315.491C542.235 315.491 541.69 314.965 541.69 314.246C541.69 313.526 542.235 313 542.973 313C543.712 313 544.274 313.526 544.274 314.246C544.274 314.965 543.712 315.491 542.973 315.491ZM550.175 329C547.82 329 546.343 327.754 546.15 326.158H548.066C548.312 327.07 549.085 327.456 550.175 327.456C551.617 327.456 552.671 326.719 552.671 325.281V324C552.197 324.754 551.072 325.246 549.859 325.246C547.468 325.246 545.746 323.544 545.746 320.965C545.746 318.351 547.451 316.684 549.894 316.684C551.107 316.684 552.162 317.158 552.671 317.912V316.825H554.605V325.088C554.605 327.579 552.9 329 550.175 329ZM550.193 323.597C551.617 323.597 552.689 322.509 552.689 320.965C552.689 319.404 551.617 318.333 550.193 318.333C548.751 318.333 547.697 319.404 547.697 320.965C547.697 322.526 548.751 323.597 550.193 323.597ZM559.559 325.807C557.66 325.807 556.465 324.702 556.465 323.246C556.465 321.491 557.66 320.579 560.403 320.281L562.213 320.105V319.877C562.213 318.842 561.457 318.228 560.332 318.228C559.277 318.228 558.522 318.737 558.381 319.772H556.482C556.746 317.965 558.311 316.684 560.332 316.684C562.547 316.684 564.129 317.93 564.129 320.105V325.667H562.213V324.386C561.826 325.175 560.754 325.807 559.559 325.807ZM562.213 321.526L560.49 321.737C559.014 321.912 558.381 322.281 558.381 323.158C558.381 323.912 558.961 324.333 559.875 324.333C561.264 324.333 562.213 323.175 562.213 321.772V321.526ZM569.608 325.807C567.868 325.807 566.761 324.719 566.761 322.86V318.403H565.302V316.825H566.761V314.632H568.694V316.825H570.839V318.403H568.694V322.702C568.694 323.649 569.151 324.123 569.907 324.123C570.241 324.123 570.593 324.053 570.856 323.947V325.579C570.575 325.702 570.101 325.807 569.608 325.807ZM572.437 325.667V316.825H574.353V325.667H572.437ZM573.404 315.491C572.665 315.491 572.12 314.965 572.12 314.246C572.12 313.526 572.665 313 573.404 313C574.142 313 574.704 313.526 574.704 314.246C574.704 314.965 574.142 315.491 573.404 315.491ZM580.709 325.807C578.055 325.807 576.139 323.895 576.139 321.228C576.139 318.561 578.055 316.684 580.709 316.684C583.363 316.684 585.28 318.561 585.28 321.228C585.28 323.912 583.363 325.807 580.709 325.807ZM580.709 324.158C582.256 324.158 583.328 322.965 583.328 321.228C583.328 319.526 582.256 318.333 580.709 318.333C579.18 318.333 578.09 319.509 578.09 321.228C578.09 322.965 579.18 324.158 580.709 324.158ZM587.058 325.667V316.825H588.974V318.14C589.484 317.368 590.557 316.684 591.963 316.684C593.861 316.684 595.25 317.895 595.25 319.93V325.667H593.334V320.351C593.334 319.088 592.596 318.368 591.471 318.368C589.924 318.368 588.974 319.684 588.974 321.842V325.667H587.058Z" fill="white"/>
<path d="M780.327 286H674.173C665.379 286 658.25 293.079 658.25 301.811V335.189C658.25 343.921 665.379 351 674.173 351H780.327C789.121 351 796.25 343.921 796.25 335.189V301.811C796.25 293.079 789.121 286 780.327 286Z" fill="#4952D9"/>
<path d="M683.25 329V316.858H685.204V318.097C685.72 317.265 686.875 316.717 688.118 316.717C690.766 316.717 692.507 318.54 692.507 321.319C692.507 324.097 690.766 325.92 688.118 325.92C686.892 325.92 685.72 325.354 685.204 324.522V329H683.25ZM687.869 324.257C689.415 324.257 690.535 323.053 690.535 321.319C690.535 319.566 689.415 318.381 687.869 318.381C686.306 318.381 685.204 319.566 685.204 321.319C685.204 323.035 686.306 324.257 687.869 324.257ZM698.343 325.92C695.607 325.92 693.813 324.009 693.813 321.319C693.813 318.628 695.678 316.717 698.272 316.717C701.115 316.717 702.856 318.911 702.501 321.673H695.767C695.909 323.354 696.958 324.292 698.343 324.292C699.587 324.292 700.351 323.655 700.529 322.894H702.483C702.146 324.628 700.831 325.92 698.343 325.92ZM695.856 320.204H700.493C700.458 319.018 699.569 318.274 698.272 318.274C697.011 318.274 696.158 318.947 695.856 320.204ZM704.345 325.779V316.858H706.282V318.221C706.797 317.248 707.81 316.717 708.982 316.717C709.356 316.717 709.693 316.77 709.995 316.911V318.752C709.533 318.575 709.196 318.54 708.805 318.54C707.419 318.54 706.282 319.761 706.282 322.327V325.779H704.345ZM714.961 325.92C712.349 325.92 710.448 323.991 710.448 321.301C710.448 318.628 712.349 316.717 714.961 316.717C717.289 316.717 718.852 317.956 719.137 320.027H717.164C716.987 319.035 716.116 318.381 714.979 318.381C713.522 318.381 712.42 319.584 712.42 321.301C712.42 323.035 713.504 324.257 714.979 324.257C716.24 324.257 717.04 323.496 717.2 322.611H719.225C718.923 324.487 717.36 325.92 714.961 325.92ZM724.929 325.92C722.193 325.92 720.398 324.009 720.398 321.319C720.398 318.628 722.264 316.717 724.858 316.717C727.7 316.717 729.442 318.911 729.086 321.673H722.352C722.495 323.354 723.543 324.292 724.929 324.292C726.172 324.292 726.936 323.655 727.114 322.894H729.068C728.731 324.628 727.416 325.92 724.929 325.92ZM722.441 320.204H727.078C727.043 319.018 726.155 318.274 724.858 318.274C723.596 318.274 722.743 318.947 722.441 320.204ZM730.931 329V316.858H732.885V318.097C733.4 317.265 734.555 316.717 735.799 316.717C738.446 316.717 740.187 318.54 740.187 321.319C740.187 324.097 738.446 325.92 735.799 325.92C734.573 325.92 733.4 325.354 732.885 324.522V329H730.931ZM735.55 324.257C737.096 324.257 738.215 323.053 738.215 321.319C738.215 319.566 737.096 318.381 735.55 318.381C733.986 318.381 732.885 319.566 732.885 321.319C732.885 323.035 733.986 324.257 735.55 324.257ZM745.333 325.92C743.574 325.92 742.454 324.823 742.454 322.947V318.451H740.98V316.858H742.454V314.646H744.409V316.858H746.576V318.451H744.409V322.788C744.409 323.743 744.871 324.221 745.635 324.221C745.972 324.221 746.328 324.15 746.594 324.044V325.69C746.31 325.814 745.83 325.92 745.333 325.92ZM748.191 325.779V316.858H750.128V325.779H748.191ZM749.169 315.513C748.423 315.513 747.872 314.982 747.872 314.257C747.872 313.531 748.423 313 749.169 313C749.915 313 750.484 313.531 750.484 314.257C750.484 314.982 749.915 315.513 749.169 315.513ZM756.555 325.92C753.872 325.92 751.935 323.991 751.935 321.301C751.935 318.611 753.872 316.717 756.555 316.717C759.237 316.717 761.174 318.611 761.174 321.301C761.174 324.009 759.237 325.92 756.555 325.92ZM756.555 324.257C758.118 324.257 759.202 323.053 759.202 321.301C759.202 319.584 758.118 318.381 756.555 318.381C755.009 318.381 753.907 319.566 753.907 321.301C753.907 323.053 755.009 324.257 756.555 324.257ZM762.97 325.779V316.858H764.907V318.186C765.422 317.407 766.506 316.717 767.928 316.717C769.846 316.717 771.25 317.938 771.25 319.991V325.779H769.313V320.416C769.313 319.142 768.567 318.416 767.43 318.416C765.866 318.416 764.907 319.743 764.907 321.92V325.779H762.97Z" fill="white"/>
<path d="M936.327 286H830.173C821.379 286 814.25 293.079 814.25 301.811V335.189C814.25 343.921 821.379 351 830.173 351H936.327C945.121 351 952.25 343.921 952.25 335.189V301.811C952.25 293.079 945.121 286 936.327 286Z" fill="#4952D9"/>
<path d="M836.344 325.807C834.446 325.807 833.25 324.702 833.25 323.246C833.25 321.491 834.446 320.579 837.188 320.281L838.999 320.105V319.877C838.999 318.842 838.243 318.228 837.118 318.228C836.063 318.228 835.307 318.737 835.166 319.772H833.268C833.531 317.965 835.096 316.684 837.118 316.684C839.333 316.684 840.916 317.93 840.916 320.105V325.667H838.999V324.386C838.612 325.175 837.54 325.807 836.344 325.807ZM838.999 321.526L837.276 321.737C835.799 321.912 835.166 322.281 835.166 323.158C835.166 323.912 835.747 324.333 836.661 324.333C838.05 324.333 838.999 323.175 838.999 321.772V321.526ZM846.129 325.807C843.896 325.807 842.63 324.509 842.524 322.737H844.335C844.406 323.561 844.933 324.263 846.129 324.263C847.008 324.263 847.623 323.825 847.623 323.105C847.623 321.211 842.735 322.439 842.735 319.175C842.735 317.772 843.896 316.684 845.812 316.684C847.975 316.684 849.153 317.789 849.311 319.421H847.5C847.359 318.684 846.814 318.175 845.812 318.175C845.091 318.175 844.529 318.491 844.529 319.053C844.529 320.825 849.469 319.561 849.469 323.035C849.469 324.702 848.063 325.807 846.129 325.807ZM854.274 325.807C852.041 325.807 850.776 324.509 850.67 322.737H852.481C852.551 323.561 853.079 324.263 854.274 324.263C855.153 324.263 855.769 323.825 855.769 323.105C855.769 321.211 850.881 322.439 850.881 319.175C850.881 317.772 852.041 316.684 853.958 316.684C856.12 316.684 857.298 317.789 857.457 319.421H855.646C855.505 318.684 854.96 318.175 853.958 318.175C853.237 318.175 852.674 318.491 852.674 319.053C852.674 320.825 857.615 319.561 857.615 323.035C857.615 324.702 856.208 325.807 854.274 325.807ZM859.378 325.667V316.825H861.295V325.667H859.378ZM860.345 315.491C859.607 315.491 859.062 314.965 859.062 314.246C859.062 313.526 859.607 313 860.345 313C861.084 313 861.646 313.526 861.646 314.246C861.646 314.965 861.084 315.491 860.345 315.491ZM867.547 329C865.191 329 863.714 327.754 863.521 326.158H865.437C865.683 327.07 866.457 327.456 867.547 327.456C868.989 327.456 870.043 326.719 870.043 325.281V324C869.569 324.754 868.443 325.246 867.23 325.246C864.839 325.246 863.116 323.544 863.116 320.965C863.116 318.351 864.822 316.684 867.265 316.684C868.479 316.684 869.534 317.158 870.043 317.912V316.825H871.977V325.088C871.977 327.579 870.272 329 867.547 329ZM867.564 323.597C868.988 323.597 870.061 322.509 870.061 320.965C870.061 319.404 868.988 318.333 867.564 318.333C866.123 318.333 865.068 319.404 865.068 320.965C865.068 322.526 866.123 323.597 867.564 323.597ZM874.244 325.667V316.825H876.16V318.14C876.67 317.368 877.743 316.684 879.149 316.684C881.048 316.684 882.437 317.895 882.437 319.93V325.667H880.52V320.351C880.52 319.088 879.782 318.368 878.657 318.368C877.11 318.368 876.16 319.684 876.16 321.842V325.667H874.244ZM884.621 325.667V316.825H886.537V318.175C887.047 317.351 888.067 316.684 889.35 316.684C890.669 316.684 891.724 317.368 892.058 318.351C892.726 317.368 893.833 316.684 895.064 316.684C896.945 316.684 898.246 317.93 898.246 319.877V325.667H896.33V320.298C896.33 319.105 895.697 318.368 894.642 318.368C893.236 318.368 892.392 319.684 892.392 321.316V325.667H890.475V320.298C890.475 319.105 889.86 318.368 888.787 318.368C887.381 318.368 886.537 319.684 886.537 321.316V325.667H884.621ZM904.396 325.807C901.689 325.807 899.913 323.912 899.913 321.246C899.913 318.579 901.759 316.684 904.326 316.684C907.139 316.684 908.862 318.86 908.511 321.596H901.847C901.988 323.263 903.025 324.193 904.396 324.193C905.627 324.193 906.383 323.561 906.559 322.807H908.493C908.159 324.526 906.858 325.807 904.396 325.807ZM901.935 320.14H906.524C906.489 318.965 905.61 318.228 904.326 318.228C903.078 318.228 902.234 318.895 901.935 320.14ZM910.337 325.667V316.825H912.254V318.14C912.764 317.368 913.836 316.684 915.243 316.684C917.142 316.684 918.531 317.895 918.531 319.93V325.667H916.614V320.351C916.614 319.088 915.876 318.368 914.75 318.368C913.203 318.368 912.254 319.684 912.254 321.842V325.667H910.337ZM924.041 325.807C922.3 325.807 921.192 324.719 921.192 322.86V318.403H919.733V316.825H921.192V314.632H923.126V316.825H925.271V318.403H923.126V322.702C923.126 323.649 923.584 324.123 924.34 324.123C924.674 324.123 925.025 324.053 925.289 323.947V325.579C925.008 325.702 924.533 325.807 924.041 325.807ZM929.909 325.807C927.677 325.807 926.411 324.509 926.305 322.737H928.116C928.186 323.561 928.714 324.263 929.909 324.263C930.789 324.263 931.404 323.825 931.404 323.105C931.404 321.211 926.516 322.439 926.516 319.175C926.516 317.772 927.677 316.684 929.593 316.684C931.756 316.684 932.933 317.789 933.092 319.421H931.281C931.14 318.684 930.595 318.175 929.593 318.175C928.872 318.175 928.31 318.491 928.31 319.053C928.31 320.825 933.25 319.561 933.25 323.035C933.25 324.702 931.843 325.807 929.909 325.807Z" fill="white"/>
<path d="M633.25 218.883V218H631.465V218.883H632.358H633.25ZM553.191 285.742C553.54 286.086 554.104 286.086 554.454 285.742L560.134 280.122C560.482 279.775 560.482 279.217 560.134 278.871C559.784 278.527 559.22 278.527 558.87 278.871L553.822 283.868L548.775 278.871C548.425 278.527 547.861 278.527 547.511 278.871C547.163 279.217 547.163 279.775 547.511 280.122L553.191 285.742ZM632.358 233.896H633.25V218.883H632.358H631.465V233.896H632.358ZM553.822 285.116H554.715V269.22H553.822H552.93V285.116H553.822ZM571.671 251.558V252.441H614.509V251.558V250.675H571.671V251.558ZM553.822 269.22H554.715C554.715 259.953 562.306 252.441 571.671 252.441V251.558V250.675C561.321 250.675 552.93 258.978 552.93 269.22H553.822ZM632.358 233.896H631.465C631.465 243.163 623.874 250.675 614.509 250.675V251.558V252.441C624.859 252.441 633.25 244.138 633.25 233.896H632.358Z" fill="white"/>
<path d="M633.02 218.885V218H631.25V218.885H632.135H633.02ZM727.105 286.741C727.452 287.086 728.011 287.086 728.358 286.741L733.991 281.112C734.336 280.765 734.336 280.206 733.991 279.861C733.644 279.514 733.085 279.514 732.738 279.861L727.731 284.864L722.725 279.861C722.378 279.514 721.818 279.514 721.471 279.861C721.126 280.206 721.126 280.765 721.471 281.112L727.105 286.741ZM632.135 233.923H633.02V218.885H632.135H631.25V233.923H632.135ZM727.731 286.115H728.616V269.307H727.731H726.846V286.115H727.731ZM710.028 251.615V250.731H649.838V251.615V252.5H710.028V251.615ZM727.731 269.307H728.616C728.616 259.048 720.294 250.731 710.028 250.731V251.615V252.5C719.317 252.5 726.846 260.024 726.846 269.307H727.731ZM632.135 233.923H631.25C631.25 244.183 639.572 252.5 649.838 252.5V251.615V250.731C640.549 250.731 633.02 243.206 633.02 233.923H632.135Z" fill="white"/>
<path d="M633.022 218.885V218H631.25V218.885H632.136H633.022ZM883.099 286.74C883.446 287.087 884.006 287.087 884.353 286.74L889.991 281.11C890.336 280.765 890.336 280.206 889.991 279.859C889.644 279.514 889.084 279.514 888.736 279.859L883.726 284.865L878.715 279.859C878.368 279.514 877.808 279.514 877.461 279.859C877.115 280.206 877.115 280.765 877.461 281.11L883.099 286.74ZM632.136 233.923H633.022V218.885H632.136H631.25V233.923H632.136ZM883.726 286.115H884.612V269.308H883.726H882.84V286.115H883.726ZM866.008 251.615V250.731H649.853V251.615V252.5H866.008V251.615ZM883.726 269.308H884.612C884.612 259.048 876.283 250.731 866.008 250.731V251.615V252.5C875.305 252.5 882.84 260.025 882.84 269.308H883.726ZM632.136 233.923H631.25C631.25 244.183 639.579 252.5 649.853 252.5V251.615V250.731C640.557 250.731 633.022 243.206 633.022 233.923H632.136Z" fill="white"/>
<path d="M633.25 218.883V218H631.48V218.883H632.365H633.25ZM398.14 285.742C398.487 286.086 399.046 286.086 399.393 285.742L405.024 280.122C405.369 279.775 405.369 279.217 405.024 278.871C404.677 278.527 404.118 278.527 403.771 278.871L398.766 283.868L393.762 278.871C393.415 278.527 392.856 278.527 392.509 278.871C392.164 279.217 392.164 279.775 392.509 280.122L398.14 285.742ZM632.365 233.896H633.25V218.883H632.365H631.48V233.896H632.365ZM398.766 285.116H399.651V269.22H398.766H397.882V285.116H398.766ZM416.463 251.558V252.441H614.668V251.558V250.675H416.463V251.558ZM398.766 269.22H399.651C399.651 259.953 407.178 252.441 416.463 252.441V251.558V250.675C406.201 250.675 397.882 258.978 397.882 269.22H398.766ZM632.365 233.896H631.48C631.48 243.163 623.954 250.675 614.668 250.675V251.558V252.441C624.931 252.441 633.25 244.138 633.25 233.896H632.365Z" fill="white"/>
<path d="M649.56 240C648.346 240 647.568 239.201 647.568 237.741V232.947H646.25V232.134H647.568V230.121H648.512V232.134H650.502V232.947H648.512V237.679C648.512 238.663 648.975 239.123 649.664 239.123C649.963 239.123 650.279 239.062 650.518 238.97V239.816C650.309 239.924 649.933 240 649.56 240ZM655.075 240C652.905 240 651.318 238.341 651.318 236.006C651.318 233.67 652.905 232.011 655.075 232.011C657.247 232.011 658.819 233.67 658.819 236.006C658.819 238.341 657.232 240 655.075 240ZM655.075 239.14C656.693 239.14 657.861 237.849 657.861 236.006C657.861 234.162 656.693 232.872 655.075 232.872C653.458 232.872 652.29 234.162 652.29 236.006C652.29 237.849 653.458 239.14 655.075 239.14ZM663.906 240C661.736 240 660.149 238.341 660.149 236.006C660.149 233.67 661.736 232.011 663.906 232.011C666.078 232.011 667.65 233.67 667.65 236.006C667.65 238.341 666.062 240 663.906 240ZM663.906 239.14C665.523 239.14 666.691 237.849 666.691 236.006C666.691 234.162 665.523 232.872 663.906 232.872C662.289 232.872 661.121 234.162 661.121 236.006C661.121 237.849 662.289 239.14 663.906 239.14ZM669.487 239.877V229H670.445V239.877H669.487ZM679.502 240C677.389 240 675.832 238.31 675.832 236.006C675.832 233.701 677.389 232.011 679.502 232.011C681.312 232.011 682.57 233.025 682.796 234.592H681.837C681.642 233.578 680.714 232.872 679.516 232.872C677.958 232.872 676.806 234.176 676.806 236.006C676.806 237.818 677.958 239.14 679.516 239.14C680.909 239.14 681.732 238.294 681.897 237.341H682.886C682.646 238.771 681.432 240 679.502 240ZM686.847 240C685.23 240 684.242 239.109 684.242 237.833C684.242 236.251 685.306 235.514 687.762 235.252L689.469 235.068V234.73C689.469 233.593 688.63 232.872 687.416 232.872C686.218 232.872 685.38 233.517 685.216 234.684H684.272C684.497 233.117 685.739 232.011 687.416 232.011C689.153 232.011 690.411 233.101 690.411 234.807V239.877H689.469V238.279C689.183 239.246 688.075 240 686.847 240ZM689.469 235.852L687.822 236.036C685.979 236.251 685.2 236.682 685.2 237.802C685.2 238.663 685.859 239.185 686.893 239.185C688.42 239.185 689.469 237.958 689.469 236.251V235.852ZM692.643 239.877V229H693.601V239.877H692.643ZM695.93 239.877V229H696.888V239.877H695.93ZM701.571 240C699.684 240 698.726 238.802 698.65 237.372H699.608C699.684 238.294 700.237 239.14 701.571 239.14C702.559 239.14 703.292 238.617 703.292 237.71C703.292 235.575 698.86 236.835 698.86 234.023C698.86 232.855 699.818 232.011 701.315 232.011C703.038 232.011 703.936 232.917 704.04 234.254H703.098C702.962 233.394 702.409 232.872 701.315 232.872C700.463 232.872 699.804 233.271 699.804 233.978C699.804 235.959 704.25 234.668 704.25 237.679C704.25 239.109 703.112 240 701.571 240Z" fill="white"/>
<path d="M446.274 381.872C443.388 381.872 441.482 380.218 441.25 377.413H443.299C443.477 379.121 444.582 380.056 446.274 380.056C447.557 380.056 448.591 379.499 448.591 378.204C448.591 375.364 441.731 376.982 441.731 372.47C441.731 370.366 443.638 369 445.972 369C448.609 369 450.23 370.366 450.533 372.721H448.484C448.27 371.517 447.272 370.816 445.918 370.816C444.653 370.816 443.834 371.445 443.834 372.38C443.834 374.933 450.693 373.261 450.693 378.061C450.693 380.56 448.715 381.872 446.274 381.872ZM453.53 385L454.937 381.602L451.427 372.667H453.53L455.953 379.085L458.358 372.667H460.407L455.579 385H453.53ZM464.596 381.872C462.333 381.872 461.051 380.542 460.944 378.726H462.779C462.85 379.571 463.385 380.29 464.596 380.29C465.487 380.29 466.111 379.84 466.111 379.103C466.111 377.162 461.157 378.42 461.157 375.076C461.157 373.638 462.333 372.524 464.276 372.524C466.467 372.524 467.661 373.656 467.821 375.328H465.986C465.843 374.573 465.291 374.052 464.276 374.052C463.545 374.052 462.975 374.375 462.975 374.951C462.975 376.766 467.982 375.472 467.982 379.031C467.982 380.739 466.556 381.872 464.596 381.872ZM473.174 381.872C471.41 381.872 470.287 380.757 470.287 378.852V374.285H468.808V372.667H470.287V370.42H472.247V372.667H474.421V374.285H472.247V378.69C472.247 379.661 472.71 380.146 473.476 380.146C473.815 380.146 474.171 380.074 474.439 379.966V381.638C474.154 381.764 473.672 381.872 473.174 381.872ZM479.857 381.872C477.113 381.872 475.313 379.93 475.313 377.198C475.313 374.465 477.184 372.524 479.786 372.524C482.636 372.524 484.383 374.753 484.026 377.557H477.273C477.416 379.265 478.467 380.218 479.857 380.218C481.104 380.218 481.87 379.571 482.048 378.798H484.008C483.67 380.56 482.351 381.872 479.857 381.872ZM477.362 376.065H482.013C481.977 374.861 481.086 374.106 479.786 374.106C478.521 374.106 477.665 374.789 477.362 376.065ZM485.877 381.728V372.667H487.82V374.052C488.336 373.207 489.37 372.524 490.67 372.524C492.007 372.524 493.076 373.225 493.414 374.231C494.091 373.225 495.214 372.524 496.461 372.524C498.368 372.524 499.686 373.8 499.686 375.796V381.728H497.744V376.227C497.744 375.004 497.102 374.249 496.033 374.249C494.608 374.249 493.753 375.598 493.753 377.27V381.728H491.811V376.227C491.811 375.004 491.187 374.249 490.1 374.249C488.675 374.249 487.82 375.598 487.82 377.27V381.728H485.877ZM508.148 381.728V371.517C507.524 372.182 506.295 372.703 505.101 372.973V371.139C506.223 370.906 507.524 370.151 508.486 369.144H510.25V381.728H508.148Z" fill="white"/>
<path d="M311.992 187.125C312.336 186.779 312.336 186.221 311.992 185.875L306.377 180.258C306.031 179.914 305.473 179.914 305.127 180.258C304.783 180.604 304.783 181.162 305.127 181.508L310.12 186.5L305.127 191.492C304.783 191.838 304.783 192.396 305.127 192.742C305.473 193.086 306.031 193.086 306.377 192.742L311.992 187.125ZM192.508 185.875C192.164 186.221 192.164 186.779 192.508 187.125L198.123 192.742C198.469 193.086 199.027 193.086 199.373 192.742C199.717 192.396 199.717 191.838 199.373 191.492L194.38 186.5L199.373 181.508C199.717 181.162 199.717 180.604 199.373 180.258C199.027 179.914 198.469 179.914 198.123 180.258L192.508 185.875ZM311.367 186.5V185.617H193.133V186.5V187.383H311.367V186.5Z" fill="white"/>
<path d="M231.984 178.263C230.414 178.263 229.25 177.256 229.25 175.431V170.209H230.202V175.226C230.202 176.642 230.972 177.365 232.15 177.365C233.811 177.365 234.884 175.872 234.884 173.59V170.209H235.835V178.137H234.884V176.39C234.415 177.46 233.374 178.263 231.984 178.263ZM238.217 181V170.209H239.169V171.797C239.637 170.759 240.8 170.083 242.039 170.083C244.274 170.083 245.784 171.734 245.784 174.173C245.784 176.61 244.274 178.263 242.039 178.263C240.8 178.263 239.637 177.554 239.169 176.533V181H238.217ZM241.993 177.382C243.624 177.382 244.802 176.061 244.802 174.173C244.802 172.285 243.624 170.964 241.993 170.964C240.362 170.964 239.169 172.285 239.169 174.173C239.169 176.044 240.362 177.382 241.993 177.382ZM250.887 178.263C248.652 178.263 247.142 176.61 247.142 174.173C247.142 171.734 248.652 170.083 250.887 170.083C252.125 170.083 253.287 170.775 253.756 171.813V167H254.707V178.137H253.756V176.533C253.287 177.554 252.125 178.263 250.887 178.263ZM250.931 177.382C252.562 177.382 253.756 176.044 253.756 174.173C253.756 172.285 252.562 170.964 250.931 170.964C249.3 170.964 248.108 172.285 248.108 174.173C248.108 176.061 249.3 177.382 250.931 177.382ZM259.312 178.263C257.681 178.263 256.684 177.351 256.684 176.044C256.684 174.425 257.756 173.67 260.233 173.401L261.954 173.213V172.866C261.954 171.702 261.108 170.964 259.886 170.964C258.678 170.964 257.832 171.625 257.665 172.82H256.715C256.94 171.216 258.195 170.083 259.886 170.083C261.638 170.083 262.906 171.199 262.906 172.946V178.137H261.954V176.501C261.668 177.491 260.551 178.263 259.312 178.263ZM261.954 174.016L260.293 174.205C258.436 174.425 257.651 174.865 257.651 176.013C257.651 176.893 258.315 177.428 259.357 177.428C260.897 177.428 261.954 176.172 261.954 174.425V174.016ZM267.455 178.263C266.231 178.263 265.445 177.445 265.445 175.95V171.042H264.116V170.209H265.445V168.147H266.398V170.209H268.405V171.042H266.398V175.887C266.398 176.893 266.865 177.365 267.56 177.365C267.862 177.365 268.18 177.302 268.421 177.208V178.074C268.21 178.185 267.832 178.263 267.455 178.263ZM272.943 178.263C270.769 178.263 269.244 176.564 269.244 174.173C269.244 171.782 270.785 170.083 272.913 170.083C275.148 170.083 276.554 171.876 276.312 174.173H270.211C270.211 176.124 271.342 177.382 272.943 177.382C274.333 177.382 275.164 176.579 275.329 175.652H276.296C276.04 177.067 274.967 178.263 272.943 178.263ZM270.271 173.355H275.345C275.345 171.908 274.333 170.964 272.913 170.964C271.524 170.964 270.527 171.86 270.271 173.355ZM280.548 178.263C278.645 178.263 277.678 177.036 277.602 175.572H278.568C278.645 176.516 279.203 177.382 280.548 177.382C281.544 177.382 282.283 176.847 282.283 175.918C282.283 173.733 277.813 175.022 277.813 172.143C277.813 170.947 278.78 170.083 280.29 170.083C282.028 170.083 282.934 171.01 283.039 172.38H282.088C281.951 171.499 281.393 170.964 280.29 170.964C279.43 170.964 278.766 171.373 278.766 172.097C278.766 174.125 283.25 172.804 283.25 175.887C283.25 177.351 282.102 178.263 280.548 178.263Z" fill="white"/>
<path d="M177.158 154H33.3418C25.0068 154 18.25 160.765 18.25 169.111V202.889C18.25 211.235 25.0068 218 33.3418 218H177.158C185.493 218 192.25 211.235 192.25 202.889V169.111C192.25 160.765 185.493 154 177.158 154Z" fill="white" fill-opacity="0.1"/>
<path d="M177.158 154H33.3418C25.0068 154 18.25 160.765 18.25 169.111V202.889C18.25 211.235 25.0068 218 33.3418 218H177.158C185.493 218 192.25 211.235 192.25 202.889V169.111C192.25 160.765 185.493 154 177.158 154Z" stroke="#262626"/>
<path d="M39.3412 191.928C35.863 191.928 33.25 189.58 33.25 185.609C33.25 181.654 35.8277 179.289 39.3412 179.289C42.3426 179.289 44.373 181.107 44.6201 183.631H42.5368C42.272 182.113 41.0361 181.072 39.3412 181.072C36.993 181.072 35.3334 182.766 35.3334 185.609C35.3334 188.451 37.0283 190.145 39.3588 190.145C41.0714 190.145 42.3602 188.98 42.5898 187.462H44.6731C44.3906 189.969 42.3603 191.928 39.3412 191.928ZM50.4659 191.928C47.7999 191.928 45.8754 190.004 45.8754 187.321C45.8754 184.638 47.7999 182.749 50.4659 182.749C53.1319 182.749 55.0563 184.638 55.0563 187.321C55.0563 190.022 53.1319 191.928 50.4659 191.928ZM50.4659 190.269C52.0196 190.269 53.0966 189.069 53.0966 187.321C53.0966 185.609 52.0196 184.408 50.4659 184.408C48.9299 184.408 47.8352 185.591 47.8352 187.321C47.8352 189.069 48.9299 190.269 50.4659 190.269ZM56.843 191.787V182.89H58.7675V184.214C59.2795 183.437 60.3565 182.749 61.7689 182.749C63.6757 182.749 65.0705 183.967 65.0705 186.015V191.787H63.146V186.438C63.146 185.167 62.4045 184.443 61.2746 184.443C59.7209 184.443 58.7675 185.767 58.7675 187.939V191.787H56.843ZM70.6037 191.928C68.8558 191.928 67.7435 190.834 67.7435 188.963V184.479H66.2782V182.89H67.7435V180.683H69.6857V182.89H71.8396V184.479H69.6857V188.804C69.6857 189.757 70.1447 190.234 70.9039 190.234C71.2393 190.234 71.5925 190.163 71.8573 190.057V191.699C71.5748 191.822 71.0981 191.928 70.6037 191.928ZM77.2263 191.928C74.5074 191.928 72.7242 190.022 72.7242 187.339C72.7242 184.655 74.578 182.749 77.1557 182.749C79.9806 182.749 81.7108 184.938 81.3577 187.692H74.6662C74.8075 189.369 75.8492 190.304 77.2263 190.304C78.4622 190.304 79.2214 189.669 79.398 188.91H81.3401C81.0046 190.64 79.6981 191.928 77.2263 191.928ZM74.7546 186.226H79.3626C79.3273 185.044 78.4445 184.302 77.1557 184.302C75.9021 184.302 75.0547 184.973 74.7546 186.226ZM87.9838 191.787L85.9888 188.821L83.9937 191.787H81.7867L84.8764 187.197L81.9633 182.89H84.2232L86.0064 185.538L87.7896 182.89H89.9789L87.1011 187.162L90.2084 191.787H87.9838ZM94.8482 191.928C93.1003 191.928 91.9881 190.834 91.9881 188.963V184.479H90.5227V182.89H91.9881V180.683H93.9302V182.89H96.0841V184.479H93.9302V188.804C93.9302 189.757 94.3892 190.234 95.1484 190.234C95.4839 190.234 95.837 190.163 96.1018 190.057V191.699C95.8193 191.822 95.3426 191.928 94.8482 191.928ZM103.356 194.488C101.997 192.052 101.238 189.051 101.238 186.244C101.238 183.525 101.962 180.489 103.356 178H105.122C103.745 180.683 103.056 183.455 103.056 186.244C103.056 189.227 103.833 191.999 105.122 194.488H103.356ZM106.271 191.787V182.89H108.196V184.249C108.708 183.42 109.732 182.749 111.021 182.749C112.345 182.749 113.404 183.437 113.74 184.426C114.411 183.437 115.523 182.749 116.759 182.749C118.648 182.749 119.954 184.002 119.954 185.962V191.787H118.03V186.385C118.03 185.185 117.394 184.443 116.335 184.443C114.923 184.443 114.075 185.767 114.075 187.409V191.787H112.151V186.385C112.151 185.185 111.533 184.443 110.456 184.443C109.043 184.443 108.196 185.767 108.196 187.409V191.787H106.271ZM126.13 191.928C123.411 191.928 121.628 190.022 121.628 187.339C121.628 184.655 123.482 182.749 126.06 182.749C128.885 182.749 130.615 184.938 130.262 187.692H123.57C123.711 189.369 124.753 190.304 126.13 190.304C127.366 190.304 128.125 189.669 128.302 188.91H130.244C129.909 190.64 128.602 191.928 126.13 191.928ZM123.659 186.226H128.267C128.231 185.044 127.348 184.302 126.06 184.302C124.806 184.302 123.959 184.973 123.659 186.226ZM132.096 191.787V182.89H134.02V184.249C134.533 183.42 135.557 182.749 136.845 182.749C138.17 182.749 139.229 183.437 139.564 184.426C140.235 183.437 141.348 182.749 142.583 182.749C144.473 182.749 145.779 184.002 145.779 185.962V191.787H143.855V186.385C143.855 185.185 143.219 184.443 142.16 184.443C140.747 184.443 139.9 185.767 139.9 187.409V191.787H137.975V186.385C137.975 185.185 137.357 184.443 136.28 184.443C134.868 184.443 134.02 185.767 134.02 187.409V191.787H132.096ZM152.043 191.928C149.377 191.928 147.453 190.004 147.453 187.321C147.453 184.638 149.377 182.749 152.043 182.749C154.709 182.749 156.634 184.638 156.634 187.321C156.634 190.022 154.709 191.928 152.043 191.928ZM152.043 190.269C153.597 190.269 154.674 189.069 154.674 187.321C154.674 185.609 153.597 184.408 152.043 184.408C150.507 184.408 149.413 185.591 149.413 187.321C149.413 189.069 150.507 190.269 152.043 190.269ZM158.42 191.787V182.89H160.345V184.249C160.857 183.278 161.863 182.749 163.028 182.749C163.399 182.749 163.735 182.802 164.035 182.943V184.779C163.576 184.602 163.24 184.567 162.852 184.567C161.475 184.567 160.345 185.785 160.345 188.345V191.787H158.42ZM166.591 195L167.986 191.664L164.508 182.89H166.591L168.993 189.192L171.376 182.89H173.406L168.622 195H166.591ZM173.366 194.488C174.655 191.999 175.431 189.227 175.431 186.244C175.431 183.455 174.761 180.683 173.366 178H175.131C176.526 180.489 177.25 183.525 177.25 186.244C177.25 189.051 176.491 192.052 175.131 194.488H173.366Z" fill="white"/>
</svg>
