<svg width="970" height="554" viewBox="0 0 970 554" fill="none" xmlns="http://www.w3.org/2000/svg">
<path d="M466.189 272.773H380.811C372.631 272.773 366 279.378 366 287.523V317.023C366 325.17 372.631 331.773 380.811 331.773H466.189C474.369 331.773 481 325.17 481 317.023V287.523C481 279.378 474.369 272.773 466.189 272.773Z" fill="#262626"/>
<path d="M466.189 272.773H380.811C372.631 272.773 366 279.378 366 287.523V317.023C366 325.17 372.631 331.773 380.811 331.773H466.189C474.369 331.773 481 325.17 481 317.023V287.523C481 279.378 474.369 272.773 466.189 272.773Z" stroke="#4952D9"/>
<path d="M394.44 309.631V302.269H393V300.668H394.44V299.903C394.44 297.912 395.532 296.773 397.215 296.773C397.736 296.773 398.273 296.863 398.517 296.969V298.659C398.256 298.535 397.91 298.463 397.614 298.463C396.851 298.463 396.348 298.979 396.348 299.975V300.668H398.481V302.269H396.348V309.631H394.44ZM403.026 309.773C401.153 309.773 399.783 308.547 399.783 306.537V300.668H401.691V306.039C401.691 307.32 402.402 308.067 403.53 308.067C405.039 308.067 405.993 306.715 405.993 304.528V300.668H407.884V309.631H405.993V308.298C405.49 309.08 404.432 309.773 403.026 309.773ZM410.142 309.631V297.04H412.033V309.631H410.142ZM414.958 309.631V302.269H413.518V300.668H414.958V299.761C414.958 297.805 415.999 296.773 417.647 296.773C418.081 296.773 418.566 296.827 418.879 296.969V298.659C418.601 298.535 418.289 298.463 417.976 298.463C417.282 298.463 416.866 298.944 416.866 299.868V300.668H422.087V309.631H420.179V302.269H416.866V309.631H414.958ZM421.134 299.317C420.405 299.317 419.868 298.783 419.868 298.054C419.868 297.325 420.405 296.792 421.134 296.792C421.862 296.792 422.417 297.325 422.417 298.054C422.417 298.783 421.862 299.317 421.134 299.317ZM424.352 309.631V297.04H426.242V309.631H424.352ZM428.51 309.631V297.04H430.4V309.631H428.51ZM436.587 309.773C433.915 309.773 432.163 307.853 432.163 305.15C432.163 302.447 433.984 300.526 436.517 300.526C439.292 300.526 440.992 302.731 440.646 305.506H434.071C434.21 307.195 435.233 308.138 436.587 308.138C437.801 308.138 438.547 307.498 438.72 306.733H440.629C440.299 308.476 439.015 309.773 436.587 309.773ZM434.157 304.03H438.685C438.651 302.838 437.784 302.091 436.517 302.091C435.285 302.091 434.453 302.767 434.157 304.03ZM446.247 309.773C443.645 309.773 441.963 307.942 441.963 305.15C441.963 302.358 443.645 300.526 446.247 300.526C447.461 300.526 448.589 301.077 449.075 301.913V297.04H451V309.631H449.075V308.369C448.589 309.204 447.444 309.773 446.247 309.773ZM446.49 308.102C448.016 308.102 449.075 306.875 449.075 305.15C449.075 303.39 448.016 302.198 446.49 302.198C444.963 302.198 443.888 303.39 443.888 305.15C443.888 306.893 444.963 308.102 446.49 308.102Z" fill="white"/>
<path d="M466.189 124.773H380.811C372.631 124.773 366 131.489 366 139.774V169.774C366 178.058 372.631 184.773 380.811 184.773H466.189C474.369 184.773 481 178.058 481 169.774V139.774C481 131.489 474.369 124.773 466.189 124.773Z" fill="#262626"/>
<path d="M466.189 124.773H380.811C372.631 124.773 366 131.489 366 139.774V169.774C366 178.058 372.631 184.773 380.811 184.773H466.189C474.369 184.773 481 178.058 481 169.774V139.774C481 131.489 474.369 124.773 466.189 124.773Z" stroke="#FF8633"/>
<path d="M390.037 161.773C388.173 161.773 387 160.587 387 159.023C387 157.139 388.173 156.16 390.865 155.839L392.641 155.651V155.406C392.641 154.295 391.9 153.635 390.796 153.635C389.761 153.635 389.018 154.182 388.88 155.293H387.017C387.276 153.353 388.811 151.978 390.796 151.978C392.969 151.978 394.522 153.315 394.522 155.651V161.623H392.641V160.248C392.262 161.095 391.21 161.773 390.037 161.773ZM392.641 157.177L390.951 157.403C389.502 157.591 388.88 157.987 388.88 158.929C388.88 159.739 389.45 160.191 390.347 160.191C391.71 160.191 392.641 158.948 392.641 157.441V157.177ZM399.9 161.773C398.191 161.773 397.105 160.605 397.105 158.609V153.824H395.673V152.128H397.105V149.773H399.003V152.128H401.107V153.824H399.003V158.439C399.003 159.456 399.451 159.965 400.193 159.965C400.521 159.965 400.866 159.89 401.125 159.777V161.529C400.849 161.66 400.383 161.773 399.9 161.773ZM409.507 161.773C407.317 161.773 406.075 160.379 405.971 158.477H407.748C407.817 159.362 408.334 160.116 409.507 160.116C410.371 160.116 410.974 159.645 410.974 158.872C410.974 156.838 406.178 158.156 406.178 154.653C406.178 153.146 407.317 151.978 409.197 151.978C411.319 151.978 412.475 153.164 412.63 154.916H410.854C410.716 154.125 410.181 153.579 409.197 153.579C408.49 153.579 407.938 153.918 407.938 154.521C407.938 156.423 412.786 155.067 412.786 158.797C412.786 160.587 411.406 161.773 409.507 161.773ZM418.501 161.773C415.897 161.773 414.016 159.72 414.016 156.857C414.016 153.993 415.897 151.978 418.501 151.978C421.107 151.978 422.987 153.993 422.987 156.857C422.987 159.739 421.107 161.773 418.501 161.773ZM418.501 160.003C420.019 160.003 421.072 158.722 421.072 156.857C421.072 155.029 420.019 153.748 418.501 153.748C417.001 153.748 415.931 155.01 415.931 156.857C415.931 158.722 417.001 160.003 418.501 160.003ZM427.856 161.773C425.992 161.773 424.63 160.474 424.63 158.345V152.128H426.527V157.817C426.527 159.174 427.235 159.965 428.356 159.965C429.857 159.965 430.806 158.533 430.806 156.216V152.128H432.687V161.623H430.806V160.21C430.306 161.039 429.253 161.773 427.856 161.773ZM434.933 161.623V152.128H436.813V153.579C437.314 152.543 438.297 151.978 439.436 151.978C439.798 151.978 440.126 152.034 440.419 152.185V154.144C439.971 153.956 439.643 153.918 439.264 153.918C437.917 153.918 436.813 155.218 436.813 157.949V161.623H434.933ZM445.241 161.773C442.705 161.773 440.859 159.72 440.859 156.857C440.859 154.012 442.705 151.978 445.241 151.978C447.502 151.978 449.02 153.296 449.296 155.5H447.381C447.208 154.445 446.363 153.748 445.258 153.748C443.844 153.748 442.774 155.029 442.774 156.857C442.774 158.703 443.827 160.003 445.258 160.003C446.484 160.003 447.26 159.193 447.415 158.251H449.382C449.089 160.248 447.571 161.773 445.241 161.773ZM454.918 161.773C452.261 161.773 450.519 159.739 450.519 156.876C450.519 154.012 452.33 151.978 454.849 151.978C457.609 151.978 459.301 154.313 458.956 157.252H452.416C452.554 159.042 453.573 160.04 454.918 160.04C456.126 160.04 456.868 159.362 457.04 158.552H458.938C458.611 160.398 457.333 161.773 454.918 161.773ZM452.503 155.689H457.006C456.971 154.427 456.109 153.635 454.849 153.635C453.625 153.635 452.797 154.351 452.503 155.689Z" fill="white"/>
<path d="M675.343 123.773H579.657C571.01 123.773 564 130.911 564 139.716V169.831C564 178.636 571.01 185.773 579.657 185.773H675.343C683.99 185.773 691 178.636 691 169.831V139.716C691 130.911 683.99 123.773 675.343 123.773Z" fill="#262626"/>
<path d="M596 154.567V142.394H597.914V143.636C598.418 142.802 599.548 142.252 600.766 142.252C603.358 142.252 605.062 144.079 605.062 146.865C605.062 149.651 603.358 151.479 600.766 151.479C599.566 151.479 598.418 150.911 597.914 150.077V154.567H596ZM600.522 149.811C602.036 149.811 603.132 148.604 603.132 146.865C603.132 145.109 602.036 143.92 600.522 143.92C598.992 143.92 597.914 145.109 597.914 146.865C597.914 148.587 598.992 149.811 600.522 149.811ZM606.845 151.337V142.394H608.741V143.76C609.246 142.784 610.237 142.252 611.385 142.252C611.751 142.252 612.081 142.305 612.377 142.447V144.292C611.925 144.115 611.594 144.079 611.211 144.079C609.855 144.079 608.741 145.304 608.741 147.877V151.337H606.845ZM617.341 151.479C614.715 151.479 612.819 149.545 612.819 146.848C612.819 144.15 614.715 142.252 617.341 142.252C619.967 142.252 621.863 144.15 621.863 146.848C621.863 149.563 619.967 151.479 617.341 151.479ZM617.341 149.811C618.872 149.811 619.932 148.604 619.932 146.848C619.932 145.126 618.872 143.92 617.341 143.92C615.828 143.92 614.749 145.109 614.749 146.848C614.749 148.604 615.828 149.811 617.341 149.811ZM627.433 151.479C624.824 151.479 623.137 149.651 623.137 146.865C623.137 144.079 624.824 142.252 627.433 142.252C628.651 142.252 629.782 142.802 630.268 143.636V138.773H632.199V151.337H630.268V150.077C629.782 150.911 628.633 151.479 627.433 151.479ZM627.677 149.811C629.207 149.811 630.268 148.587 630.268 146.865C630.268 145.109 629.207 143.92 627.677 143.92C626.146 143.92 625.067 145.109 625.067 146.865C625.067 148.604 626.146 149.811 627.677 149.811ZM637.6 151.479C635.721 151.479 634.347 150.255 634.347 148.249V142.394H636.261V147.753C636.261 149.03 636.974 149.776 638.104 149.776C639.618 149.776 640.574 148.427 640.574 146.244V142.394H642.47V151.337H640.574V150.006C640.07 150.787 639.009 151.479 637.6 151.479ZM648.649 151.479C646.092 151.479 644.231 149.545 644.231 146.848C644.231 144.168 646.092 142.252 648.649 142.252C650.928 142.252 652.458 143.494 652.736 145.57H650.805C650.632 144.576 649.779 143.92 648.666 143.92C647.24 143.92 646.162 145.126 646.162 146.848C646.162 148.587 647.223 149.811 648.666 149.811C649.901 149.811 650.684 149.048 650.84 148.161H652.824C652.528 150.042 650.997 151.479 648.649 151.479ZM657.765 151.479C656.043 151.479 654.948 150.379 654.948 148.498V143.991H653.504V142.394H654.948V140.175H656.86V142.394H658.983V143.991H656.86V148.338C656.86 149.296 657.313 149.776 658.061 149.776C658.391 149.776 658.739 149.705 659 149.598V151.248C658.721 151.373 658.252 151.479 657.765 151.479ZM603.956 172.773C601.747 172.773 600.495 171.46 600.39 169.668H602.182C602.251 170.502 602.774 171.212 603.956 171.212C604.826 171.212 605.435 170.768 605.435 170.041C605.435 168.124 600.599 169.366 600.599 166.066C600.599 164.646 601.747 163.546 603.643 163.546C605.782 163.546 606.948 164.664 607.105 166.314H605.313C605.174 165.569 604.635 165.054 603.643 165.054C602.93 165.054 602.374 165.374 602.374 165.941C602.374 167.734 607.261 166.456 607.261 169.97C607.261 171.656 605.87 172.773 603.956 172.773ZM613.024 172.773C610.397 172.773 608.501 170.839 608.501 168.142C608.501 165.445 610.397 163.546 613.024 163.546C615.651 163.546 617.546 165.445 617.546 168.142C617.546 170.857 615.651 172.773 613.024 172.773ZM613.024 171.105C614.555 171.105 615.616 169.899 615.616 168.142C615.616 166.421 614.555 165.214 613.024 165.214C611.511 165.214 610.432 166.403 610.432 168.142C610.432 169.899 611.511 171.105 613.024 171.105ZM622.455 172.773C620.576 172.773 619.202 171.549 619.202 169.544V163.688H621.116V169.047C621.116 170.325 621.828 171.07 622.959 171.07C624.473 171.07 625.429 169.721 625.429 167.539V163.688H627.325V172.631H625.429V171.301C624.925 172.081 623.864 172.773 622.455 172.773ZM629.59 172.631V163.688H631.486V165.054C631.99 164.078 632.982 163.546 634.13 163.546C634.495 163.546 634.825 163.599 635.121 163.741V165.587C634.669 165.409 634.339 165.374 633.956 165.374C632.599 165.374 631.486 166.598 631.486 169.171V172.631H629.59ZM639.983 172.773C637.426 172.773 635.565 170.839 635.565 168.142C635.565 165.462 637.426 163.546 639.983 163.546C642.262 163.546 643.793 164.788 644.071 166.864H642.14C641.966 165.871 641.113 165.214 640.001 165.214C638.574 165.214 637.496 166.421 637.496 168.142C637.496 169.881 638.557 171.105 640.001 171.105C641.236 171.105 642.018 170.342 642.174 169.455H644.158C643.862 171.336 642.332 172.773 639.983 172.773ZM649.74 172.773C647.06 172.773 645.304 170.857 645.304 168.16C645.304 165.462 647.13 163.546 649.67 163.546C652.453 163.546 654.157 165.746 653.81 168.515H647.217C647.356 170.2 648.383 171.141 649.74 171.141C650.957 171.141 651.705 170.502 651.879 169.739H653.792C653.462 171.478 652.175 172.773 649.74 172.773ZM647.304 167.042H651.844C651.81 165.853 650.94 165.107 649.67 165.107C648.435 165.107 647.6 165.782 647.304 167.042Z" fill="white"/>
<path d="M466.189 420.773H380.811C372.631 420.773 366 427.378 366 435.523V465.023C366 473.17 372.631 479.773 380.811 479.773H466.189C474.369 479.773 481 473.17 481 465.023V435.523C481 427.378 474.369 420.773 466.189 420.773Z" fill="#262626"/>
<path d="M466.189 420.773H380.811C372.631 420.773 366 427.378 366 435.523V465.023C366 473.17 372.631 479.773 380.811 479.773H466.189C474.369 479.773 481 473.17 481 465.023V435.523C481 427.378 474.369 420.773 466.189 420.773Z" stroke="#FF8633"/>
<path d="M386 457.631V448.656H387.895V450.027C388.399 449.048 389.39 448.514 390.538 448.514C390.903 448.514 391.233 448.567 391.529 448.709V450.561C391.077 450.383 390.746 450.348 390.364 450.348C389.008 450.348 387.895 451.576 387.895 454.159V457.631H386ZM396.491 457.773C393.866 457.773 391.97 455.833 391.97 453.126C391.97 450.419 393.866 448.514 396.491 448.514C399.116 448.514 401.011 450.419 401.011 453.126C401.011 455.85 399.116 457.773 396.491 457.773ZM396.491 456.1C398.021 456.1 399.081 454.889 399.081 453.126C399.081 451.398 398.021 450.188 396.491 450.188C394.978 450.188 393.9 451.38 393.9 453.126C393.9 454.889 394.978 456.1 396.491 456.1ZM407.535 457.773C406.335 457.773 405.187 457.204 404.683 456.367V457.631H402.77V445.023H404.683V449.902C405.187 449.066 406.317 448.514 407.535 448.514C410.125 448.514 411.829 450.348 411.829 453.144C411.829 455.94 410.125 457.773 407.535 457.773ZM407.291 456.1C408.804 456.1 409.899 454.889 409.899 453.144C409.899 451.38 408.804 450.188 407.291 450.188C405.761 450.188 404.683 451.38 404.683 453.144C404.683 454.871 405.761 456.1 407.291 456.1ZM417.61 457.773C414.985 457.773 413.089 455.833 413.089 453.126C413.089 450.419 414.985 448.514 417.61 448.514C420.235 448.514 422.13 450.419 422.13 453.126C422.13 455.85 420.235 457.773 417.61 457.773ZM417.61 456.1C419.14 456.1 420.201 454.889 420.201 453.126C420.201 451.398 419.14 450.188 417.61 450.188C416.097 450.188 415.019 451.38 415.019 453.126C415.019 454.889 416.097 456.1 417.61 456.1ZM427.127 457.773C425.406 457.773 424.311 456.67 424.311 454.782V450.259H422.867V448.656H424.311V446.43H426.223V448.656H428.344V450.259H426.223V454.622C426.223 455.583 426.675 456.064 427.423 456.064C427.753 456.064 428.101 455.993 428.361 455.886V457.542C428.083 457.667 427.614 457.773 427.127 457.773ZM433.801 457.631V448.656H435.697V457.631H433.801ZM434.757 447.302C434.027 447.302 433.489 446.769 433.489 446.038C433.489 445.308 434.027 444.773 434.757 444.773C435.488 444.773 436.045 445.308 436.045 446.038C436.045 446.769 435.488 447.302 434.757 447.302ZM441.775 457.773C439.167 457.773 437.48 455.94 437.48 453.144C437.48 450.348 439.167 448.514 441.775 448.514C442.992 448.514 444.122 449.066 444.609 449.902V445.023H446.539V457.631H444.609V456.367C444.122 457.204 442.974 457.773 441.775 457.773ZM442.018 456.1C443.548 456.1 444.609 454.871 444.609 453.144C444.609 451.38 443.548 450.188 442.018 450.188C440.489 450.188 439.411 451.38 439.411 453.144C439.411 454.889 440.489 456.1 442.018 456.1ZM448.79 457.631V445.023H450.685V457.631H448.79ZM456.887 457.773C454.209 457.773 452.454 455.85 452.454 453.144C452.454 450.437 454.279 448.514 456.817 448.514C459.599 448.514 461.303 450.722 460.955 453.499H454.366C454.505 455.192 455.531 456.135 456.887 456.135C458.104 456.135 458.851 455.495 459.026 454.728H460.938C460.607 456.473 459.321 457.773 456.887 457.773ZM454.453 452.022H458.991C458.956 450.828 458.086 450.08 456.817 450.08C455.583 450.08 454.748 450.757 454.453 452.022Z" fill="white"/>
<path d="M262.283 420.773H176.716C168.036 420.773 161 427.797 161 436.459V466.088C161 474.751 168.036 481.773 176.716 481.773H262.283C270.963 481.773 278 474.751 278 466.088V436.459C278 427.797 270.963 420.773 262.283 420.773Z" fill="#262626"/>
<path d="M184.083 447.106C182.191 447.106 181 446.021 181 444.591C181 442.869 182.191 441.973 184.923 441.68L186.727 441.508V441.284C186.727 440.268 185.974 439.665 184.853 439.665C183.802 439.665 183.049 440.165 182.909 441.181H181.018C181.28 439.407 182.839 438.15 184.853 438.15C187.06 438.15 188.636 439.372 188.636 441.508V446.968H186.727V445.71C186.342 446.486 185.274 447.106 184.083 447.106ZM186.727 442.903L185.011 443.11C183.54 443.282 182.909 443.644 182.909 444.505C182.909 445.245 183.487 445.659 184.398 445.659C185.781 445.659 186.727 444.522 186.727 443.144V442.903ZM194.095 447.106C192.362 447.106 191.258 446.038 191.258 444.212V439.837H189.804V438.288H191.258V436.134H193.185V438.288H195.321V439.837H193.185V444.057C193.185 444.987 193.64 445.452 194.393 445.452C194.726 445.452 195.076 445.383 195.339 445.28V446.881C195.059 447.002 194.585 447.106 194.095 447.106ZM205.618 447.106C204.409 447.106 203.254 446.554 202.746 445.745V446.968H200.819V434.773H202.746V439.493C203.254 438.684 204.392 438.15 205.618 438.15C208.227 438.15 209.944 439.924 209.944 442.627C209.944 445.332 208.227 447.106 205.618 447.106ZM205.373 445.487C206.896 445.487 208 444.316 208 442.627C208 440.922 206.896 439.768 205.373 439.768C203.832 439.768 202.746 440.922 202.746 442.627C202.746 444.298 203.832 445.487 205.373 445.487ZM214.4 447.106C212.508 447.106 211.317 446.021 211.317 444.591C211.317 442.869 212.508 441.973 215.241 441.68L217.044 441.508V441.284C217.044 440.268 216.291 439.665 215.17 439.665C214.12 439.665 213.367 440.165 213.226 441.181H211.335C211.598 439.407 213.156 438.15 215.17 438.15C217.377 438.15 218.953 439.372 218.953 441.508V446.968H217.044V445.71C216.659 446.486 215.59 447.106 214.4 447.106ZM217.044 442.903L215.328 443.11C213.857 443.282 213.226 443.644 213.226 444.505C213.226 445.245 213.804 445.659 214.715 445.659C216.099 445.659 217.044 444.522 217.044 443.144V442.903ZM224.413 447.106C222.679 447.106 221.575 446.038 221.575 444.212V439.837H220.122V438.288H221.575V436.134H223.502V438.288H225.639V439.837H223.502V444.057C223.502 444.987 223.958 445.452 224.711 445.452C225.043 445.452 225.394 445.383 225.656 445.28V446.881C225.376 447.002 224.903 447.106 224.413 447.106ZM230.646 447.106C228.912 447.106 227.809 446.038 227.809 444.212V439.837H226.355V438.288H227.809V436.134H229.736V438.288H231.872V439.837H229.736V444.057C229.736 444.987 230.191 445.452 230.944 445.452C231.276 445.452 231.627 445.383 231.889 445.28V446.881C231.61 447.002 231.137 447.106 230.646 447.106ZM237.216 447.106C234.519 447.106 232.749 445.245 232.749 442.627C232.749 440.009 234.589 438.15 237.146 438.15C239.948 438.15 241.665 440.285 241.314 442.972H234.676C234.816 444.608 235.85 445.521 237.216 445.521C238.442 445.521 239.195 444.901 239.37 444.161H241.296C240.964 445.848 239.668 447.106 237.216 447.106ZM234.764 441.543H239.335C239.3 440.389 238.424 439.665 237.146 439.665C235.903 439.665 235.062 440.32 234.764 441.543ZM243.134 446.968V438.288H245.043V439.613C245.551 438.666 246.549 438.15 247.705 438.15C248.073 438.15 248.405 438.201 248.704 438.339V440.13C248.248 439.958 247.915 439.924 247.53 439.924C246.164 439.924 245.043 441.112 245.043 443.609V446.968H243.134ZM251.239 450.102L252.623 446.847L249.173 438.288H251.239L253.622 444.436L255.986 438.288H258L253.253 450.102H251.239ZM196.031 467.773C193.806 467.773 192.545 466.499 192.44 464.759H194.245C194.314 465.569 194.84 466.258 196.031 466.258C196.906 466.258 197.52 465.828 197.52 465.122C197.52 463.261 192.651 464.467 192.651 461.264C192.651 459.886 193.806 458.818 195.715 458.818C197.87 458.818 199.043 459.903 199.201 461.504H197.397C197.257 460.781 196.714 460.282 195.715 460.282C194.997 460.282 194.437 460.592 194.437 461.143C194.437 462.882 199.359 461.642 199.359 465.053C199.359 466.689 197.957 467.773 196.031 467.773ZM204.462 467.773C202.728 467.773 201.625 466.706 201.625 464.88V460.505H200.171V458.955H201.625V456.803H203.552V458.955H205.688V460.505H203.552V464.725C203.552 465.656 204.007 466.121 204.76 466.121C205.093 466.121 205.443 466.052 205.706 465.948V467.55C205.426 467.671 204.952 467.773 204.462 467.773ZM209.958 467.773C208.067 467.773 206.876 466.689 206.876 465.259C206.876 463.537 208.067 462.641 210.799 462.348L212.603 462.176V461.952C212.603 460.936 211.85 460.333 210.729 460.333C209.678 460.333 208.925 460.832 208.785 461.849H206.893C207.156 460.075 208.715 458.818 210.729 458.818C212.936 458.818 214.512 460.04 214.512 462.176V467.636H212.603V466.379C212.218 467.154 211.149 467.773 209.958 467.773ZM212.603 463.571L210.887 463.778C209.415 463.95 208.785 464.312 208.785 465.173C208.785 465.914 209.363 466.327 210.274 466.327C211.657 466.327 212.603 465.19 212.603 463.813V463.571ZM219.971 467.773C218.237 467.773 217.134 466.706 217.134 464.88V460.505H215.68V458.955H217.134V456.803H219.06V458.955H221.197V460.505H219.06V464.725C219.06 465.656 219.516 466.121 220.269 466.121C220.602 466.121 220.952 466.052 221.215 465.948V467.55C220.935 467.671 220.461 467.773 219.971 467.773ZM222.79 467.636V458.955H224.699V467.636H222.79ZM223.752 457.646C223.017 457.646 222.474 457.13 222.474 456.424C222.474 455.717 223.017 455.2 223.752 455.2C224.488 455.2 225.049 455.717 225.049 456.424C225.049 457.13 224.488 457.646 223.752 457.646ZM231.032 467.773C228.387 467.773 226.478 465.896 226.478 463.279C226.478 460.661 228.387 458.818 231.032 458.818C233.676 458.818 235.585 460.661 235.585 463.279C235.585 465.914 233.676 467.773 231.032 467.773ZM231.032 466.155C232.572 466.155 233.641 464.984 233.641 463.279C233.641 461.608 232.572 460.436 231.032 460.436C229.508 460.436 228.422 461.591 228.422 463.279C228.422 464.984 229.508 466.155 231.032 466.155ZM237.358 467.636V458.955H239.267V460.247C239.775 459.489 240.843 458.818 242.244 458.818C244.135 458.818 245.519 460.006 245.519 462.004V467.636H243.61V462.417C243.61 461.177 242.874 460.471 241.754 460.471C240.212 460.471 239.267 461.763 239.267 463.882V467.636H237.358Z" fill="white"/>
<path d="M675.125 420.773H578.875C570.66 420.773 564 427.378 564 435.523V465.023C564 473.17 570.66 479.773 578.875 479.773H675.125C683.34 479.773 690 473.17 690 465.023V435.523C690 427.378 683.34 420.773 675.125 420.773Z" fill="#262626"/>
<path d="M675.125 420.773H578.875C570.66 420.773 564 427.378 564 435.523V465.023C564 473.17 570.66 479.773 578.875 479.773H675.125C683.34 479.773 690 473.17 690 465.023V435.523C690 427.378 683.34 420.773 675.125 420.773Z" stroke="#FF8633"/>
<path d="M576.092 457.773C574.195 457.773 573 456.652 573 455.173C573 453.393 574.195 452.467 576.936 452.164L578.746 451.986V451.754C578.746 450.704 577.99 450.08 576.866 450.08C575.812 450.08 575.056 450.597 574.915 451.648H573.018C573.281 449.814 574.845 448.514 576.866 448.514C579.08 448.514 580.661 449.778 580.661 451.986V457.631H578.746V456.331C578.36 457.133 577.287 457.773 576.092 457.773ZM578.746 453.428L577.024 453.642C575.548 453.821 574.915 454.195 574.915 455.085C574.915 455.85 575.495 456.278 576.409 456.278C577.797 456.278 578.746 455.102 578.746 453.678V453.428ZM586.138 457.773C584.399 457.773 583.291 456.67 583.291 454.782V450.259H581.833V448.656H583.291V446.43H585.225V448.656H587.368V450.259H585.225V454.622C585.225 455.583 585.682 456.064 586.437 456.064C586.771 456.064 587.122 455.993 587.385 455.886V457.542C587.105 457.667 586.63 457.773 586.138 457.773ZM596.732 457.773C594.097 457.773 592.392 455.94 592.392 453.144C592.392 450.348 594.097 448.514 596.732 448.514C597.962 448.514 599.104 449.066 599.596 449.902V445.023H601.546V457.631H599.596V456.367C599.104 457.204 597.944 457.773 596.732 457.773ZM596.978 456.1C598.524 456.1 599.596 454.871 599.596 453.144C599.596 451.38 598.524 450.188 596.978 450.188C595.431 450.188 594.342 451.38 594.342 453.144C594.342 454.889 595.431 456.1 596.978 456.1ZM607.791 457.773C605.085 457.773 603.311 455.85 603.311 453.144C603.311 450.437 605.156 448.514 607.721 448.514C610.532 448.514 612.254 450.722 611.903 453.499H605.243C605.384 455.192 606.421 456.135 607.791 456.135C609.021 456.135 609.777 455.495 609.953 454.728H611.885C611.551 456.473 610.251 457.773 607.791 457.773ZM605.332 452.022H609.917C609.882 450.828 609.004 450.08 607.721 450.08C606.473 450.08 605.63 450.757 605.332 452.022ZM616.768 457.773C614.537 457.773 613.272 456.456 613.166 454.657H614.976C615.046 455.495 615.573 456.207 616.768 456.207C617.647 456.207 618.262 455.761 618.262 455.031C618.262 453.108 613.377 454.354 613.377 451.042C613.377 449.618 614.537 448.514 616.452 448.514C618.613 448.514 619.791 449.635 619.949 451.292H618.139C617.998 450.544 617.453 450.027 616.452 450.027C615.731 450.027 615.169 450.348 615.169 450.918C615.169 452.716 620.107 451.434 620.107 454.96C620.107 456.652 618.701 457.773 616.768 457.773ZM625.227 457.773C623.488 457.773 622.38 456.67 622.38 454.782V450.259H620.922V448.656H622.38V446.43H624.314V448.656H626.457V450.259H624.314V454.622C624.314 455.583 624.77 456.064 625.526 456.064C625.86 456.064 626.211 455.993 626.474 455.886V457.542C626.194 457.667 625.719 457.773 625.227 457.773ZM628.053 457.631V448.656H629.968V457.631H628.053ZM629.019 447.302C628.281 447.302 627.736 446.769 627.736 446.038C627.736 445.308 628.281 444.773 629.019 444.773C629.757 444.773 630.319 445.308 630.319 446.038C630.319 446.769 629.757 447.302 629.019 447.302ZM632.265 457.631V448.656H634.18V449.992C634.689 449.208 635.761 448.514 637.166 448.514C639.065 448.514 640.453 449.742 640.453 451.808V457.631H638.538V452.235C638.538 450.953 637.799 450.223 636.675 450.223C635.129 450.223 634.18 451.559 634.18 453.749V457.631H632.265ZM645.323 457.773C643.426 457.773 642.231 456.652 642.231 455.173C642.231 453.393 643.426 452.467 646.167 452.164L647.976 451.986V451.754C647.976 450.704 647.221 450.08 646.096 450.08C645.042 450.08 644.287 450.597 644.146 451.648H642.249C642.512 449.814 644.076 448.514 646.096 448.514C648.31 448.514 649.892 449.778 649.892 451.986V457.631H647.976V456.331C647.59 457.133 646.518 457.773 645.323 457.773ZM647.976 453.428L646.254 453.642C644.779 453.821 644.146 454.195 644.146 455.085C644.146 455.85 644.726 456.278 645.64 456.278C647.028 456.278 647.976 455.102 647.976 453.678V453.428ZM655.369 457.773C653.63 457.773 652.522 456.67 652.522 454.782V450.259H651.064V448.656H652.522V446.43H654.455V448.656H656.599V450.259H654.455V454.622C654.455 455.583 654.912 456.064 655.668 456.064C656.002 456.064 656.353 455.993 656.616 455.886V457.542C656.336 457.667 655.861 457.773 655.369 457.773ZM658.196 457.631V448.656H660.111V457.631H658.196ZM659.163 447.302C658.424 447.302 657.88 446.769 657.88 446.038C657.88 445.308 658.424 444.773 659.163 444.773C659.9 444.773 660.463 445.308 660.463 446.038C660.463 446.769 659.9 447.302 659.163 447.302ZM666.465 457.773C663.812 457.773 661.897 455.833 661.897 453.126C661.897 450.419 663.812 448.514 666.465 448.514C669.118 448.514 671.034 450.419 671.034 453.126C671.034 455.85 669.118 457.773 666.465 457.773ZM666.465 456.1C668.011 456.1 669.083 454.889 669.083 453.126C669.083 451.398 668.011 450.188 666.465 450.188C664.936 450.188 663.847 451.38 663.847 453.126C663.847 454.889 664.936 456.1 666.465 456.1ZM672.812 457.631V448.656H674.727V449.992C675.236 449.208 676.309 448.514 677.714 448.514C679.612 448.514 681 449.742 681 451.808V457.631H679.085V452.235C679.085 450.953 678.347 450.223 677.222 450.223C675.676 450.223 674.727 451.559 674.727 453.749V457.631H672.812Z" fill="white"/>
<path d="M675.343 271.773H579.657C571.01 271.773 564 278.797 564 287.459V317.088C564 325.751 571.01 332.773 579.657 332.773H675.343C683.99 332.773 691 325.751 691 317.088V287.459C691 278.797 683.99 271.773 675.343 271.773Z" fill="#262626"/>
<path d="M598.467 298.611C595.882 298.611 594 296.694 594 294.021C594 291.366 595.882 289.467 598.467 289.467C600.771 289.467 602.318 290.697 602.6 292.755H600.648C600.472 291.77 599.61 291.12 598.484 291.12C597.043 291.12 595.952 292.316 595.952 294.021C595.952 295.745 597.025 296.958 598.484 296.958C599.733 296.958 600.525 296.202 600.683 295.322H602.688C602.389 297.187 600.841 298.611 598.467 298.611ZM607.049 298.611C605.15 298.611 603.954 297.503 603.954 296.044C603.954 294.285 605.15 293.371 607.893 293.072L609.705 292.896V292.668C609.705 291.63 608.949 291.015 607.823 291.015C606.768 291.015 606.011 291.524 605.871 292.562H603.971C604.235 290.75 605.8 289.467 607.823 289.467C610.039 289.467 611.622 290.716 611.622 292.896V298.47H609.705V297.187C609.318 297.978 608.245 298.611 607.049 298.611ZM609.705 294.32L607.981 294.531C606.504 294.707 605.871 295.076 605.871 295.956C605.871 296.712 606.451 297.134 607.366 297.134C608.755 297.134 609.705 295.973 609.705 294.567V294.32ZM613.794 298.47V289.607H615.71V290.962C616.221 289.994 617.223 289.467 618.384 289.467C618.753 289.467 619.087 289.519 619.386 289.66V291.489C618.929 291.313 618.594 291.278 618.208 291.278C616.836 291.278 615.71 292.492 615.71 295.042V298.47H613.794ZM620.791 298.47V289.607H622.708V290.962C623.218 289.994 624.22 289.467 625.381 289.467C625.751 289.467 626.084 289.519 626.384 289.66V291.489C625.927 291.313 625.592 291.278 625.205 291.278C623.833 291.278 622.708 292.492 622.708 295.042V298.47H620.791ZM628.93 301.671L630.32 298.347L626.855 289.607H628.93L631.322 295.886L633.696 289.607H635.719L630.952 301.671H628.93ZM637.016 298.47V289.607H638.933V298.47H637.016ZM637.983 288.271C637.245 288.271 636.7 287.744 636.7 287.022C636.7 286.301 637.245 285.773 637.983 285.773C638.722 285.773 639.285 286.301 639.285 287.022C639.285 287.744 638.722 288.271 637.983 288.271ZM641.232 298.47V289.607H643.149V290.926C643.659 290.152 644.731 289.467 646.138 289.467C648.038 289.467 649.427 290.68 649.427 292.72V298.47H647.51V293.142C647.51 291.876 646.772 291.155 645.646 291.155C644.099 291.155 643.149 292.474 643.149 294.637V298.47H641.232ZM655.568 301.812C653.212 301.812 651.734 300.563 651.541 298.963H653.458C653.704 299.877 654.478 300.265 655.568 300.265C657.01 300.265 658.066 299.525 658.066 298.084V296.8C657.591 297.556 656.466 298.048 655.252 298.048C652.86 298.048 651.136 296.343 651.136 293.758C651.136 291.138 652.842 289.467 655.287 289.467C656.5 289.467 657.556 289.942 658.066 290.697V289.607H660V297.891C660 300.388 658.295 301.812 655.568 301.812ZM655.586 296.395C657.01 296.395 658.083 295.305 658.083 293.758C658.083 292.193 657.01 291.12 655.586 291.12C654.144 291.12 653.089 292.193 653.089 293.758C653.089 295.322 654.144 296.395 655.586 296.395ZM595.75 322.773V310.71H597.685V311.941C598.194 311.115 599.338 310.569 600.569 310.569C603.189 310.569 604.913 312.381 604.913 315.142C604.913 317.902 603.189 319.714 600.569 319.714C599.355 319.714 598.194 319.151 597.685 318.324V322.773H595.75ZM600.322 318.061C601.852 318.061 602.96 316.865 602.96 315.142C602.96 313.4 601.852 312.222 600.322 312.222C598.775 312.222 597.685 313.4 597.685 315.142C597.685 316.847 598.775 318.061 600.322 318.061ZM606.715 319.573V310.71H608.632V312.064C609.142 311.097 610.144 310.569 611.305 310.569C611.674 310.569 612.009 310.622 612.308 310.763V312.592C611.85 312.416 611.516 312.381 611.129 312.381C609.757 312.381 608.632 313.594 608.632 316.144V319.573H606.715ZM617.327 319.714C614.671 319.714 612.754 317.797 612.754 315.124C612.754 312.451 614.671 310.569 617.327 310.569C619.982 310.569 621.899 312.451 621.899 315.124C621.899 317.815 619.982 319.714 617.327 319.714ZM617.327 318.061C618.874 318.061 619.947 316.865 619.947 315.124C619.947 313.418 618.874 312.222 617.327 312.222C615.797 312.222 614.707 313.4 614.707 315.124C614.707 316.865 615.797 318.061 617.327 318.061ZM627.53 319.714C624.893 319.714 623.186 317.902 623.186 315.142C623.186 312.381 624.893 310.569 627.53 310.569C628.761 310.569 629.905 311.115 630.397 311.941V307.122H632.349V319.573H630.397V318.324C629.905 319.151 628.744 319.714 627.53 319.714ZM627.777 318.061C629.324 318.061 630.397 316.847 630.397 315.142C630.397 313.4 629.324 312.222 627.777 312.222C626.229 312.222 625.138 313.4 625.138 315.142C625.138 316.865 626.229 318.061 627.777 318.061ZM637.81 319.714C635.91 319.714 634.521 318.5 634.521 316.514V310.71H636.455V316.021C636.455 317.287 637.176 318.025 638.319 318.025C639.85 318.025 640.817 316.689 640.817 314.526V310.71H642.734V319.573H640.817V318.254C640.307 319.028 639.234 319.714 637.81 319.714ZM648.98 319.714C646.395 319.714 644.514 317.797 644.514 315.124C644.514 312.469 646.395 310.569 648.98 310.569C651.284 310.569 652.832 311.8 653.113 313.858H651.161C650.985 312.873 650.124 312.222 648.998 312.222C647.556 312.222 646.465 313.418 646.465 315.124C646.465 316.847 647.538 318.061 648.998 318.061C650.246 318.061 651.038 317.305 651.196 316.425H653.201C652.902 318.29 651.355 319.714 648.98 319.714ZM658.197 319.714C656.456 319.714 655.349 318.623 655.349 316.76V312.293H653.889V310.71H655.349V308.512H657.283V310.71H659.429V312.293H657.283V316.601C657.283 317.551 657.74 318.025 658.496 318.025C658.831 318.025 659.182 317.955 659.446 317.849V319.485C659.165 319.608 658.69 319.714 658.197 319.714Z" fill="white"/>
<path d="M627.423 272.521C627.742 272.857 628.257 272.857 628.576 272.521L633.761 267.04C634.08 266.702 634.08 266.158 633.761 265.82C633.442 265.484 632.928 265.484 632.608 265.82L628 270.694L623.392 265.82C623.073 265.484 622.557 265.484 622.238 265.82C621.921 266.158 621.921 266.702 622.238 267.04L627.423 272.521ZM628 271.912H628.814V185.773H628H627.185V271.912H628Z" fill="white"/>
<path d="M690.25 450.713C689.917 451.056 689.917 451.609 690.25 451.952L695.705 457.518C696.041 457.859 696.583 457.859 696.919 457.518C697.253 457.175 697.253 456.622 696.919 456.279L692.069 451.332L696.919 446.386C697.253 446.043 697.253 445.49 696.919 445.147C696.583 444.806 696.041 444.806 695.705 445.147L690.25 450.713ZM708 302.648V301.773H690.857V302.648V303.523H708V302.648ZM690.857 451.332V452.207H708V451.332V450.458H690.857V451.332ZM725.143 433.84H726V320.14H725.143H724.285V433.84H725.143ZM708 451.332V452.207C717.941 452.207 726 443.984 726 433.84H725.143H724.285C724.285 443.018 716.995 450.458 708 450.458V451.332ZM708 302.648V303.523C716.995 303.523 724.285 310.962 724.285 320.14H725.143H726C726 309.997 717.941 301.773 708 301.773V302.648Z" fill="white"/>
<path d="M481.255 450.648C480.915 450.995 480.915 451.552 481.255 451.899L486.807 457.515C487.148 457.859 487.7 457.859 488.042 457.515C488.382 457.169 488.382 456.611 488.042 456.265L483.106 451.273L488.042 446.281C488.382 445.935 488.382 445.377 488.042 445.032C487.7 444.687 487.148 444.687 486.807 445.032L481.255 450.648ZM481.873 451.273V452.156H483.563V451.273V450.391H481.873V451.273ZM486.943 451.273V452.156H490.324V451.273V450.391H486.943V451.273ZM493.703 451.273V452.156H497.085V451.273V450.391H493.703V451.273ZM500.464 451.273V452.156H503.845V451.273V450.391H500.464V451.273ZM507.225 451.273V452.156H510.606V451.273V450.391H507.225V451.273ZM513.985 451.273V452.156H517.367V451.273V450.391H513.985V451.273ZM520.746 451.273V452.156H524.127V451.273V450.391H520.746V451.273ZM527.507 451.273V452.156H530.888V451.273V450.391H527.507V451.273ZM534.267 451.273V452.156H537.648V451.273V450.391H534.267V451.273ZM541.028 451.273V452.156H544.409V451.273V450.391H541.028V451.273ZM547.789 451.273V452.156H551.169V451.273V450.391H547.789V451.273ZM554.549 451.273V452.156H557.93V451.273V450.391H554.549V451.273ZM561.31 451.273V452.156H563V451.273V450.391H561.31V451.273ZM481.255 450.648C480.915 450.995 480.915 451.552 481.255 451.899L486.807 457.515C487.148 457.859 487.7 457.859 488.042 457.515C488.382 457.169 488.382 456.611 488.042 456.265L483.106 451.273L488.042 446.281C488.382 445.935 488.382 445.377 488.042 445.032C487.7 444.687 487.148 444.687 486.807 445.032L481.255 450.648ZM481.873 451.273V452.156H483.563V451.273V450.391H481.873V451.273ZM486.943 451.273V452.156H490.324V451.273V450.391H486.943V451.273ZM493.703 451.273V452.156H497.085V451.273V450.391H493.703V451.273ZM500.464 451.273V452.156H503.845V451.273V450.391H500.464V451.273ZM507.225 451.273V452.156H510.606V451.273V450.391H507.225V451.273ZM513.985 451.273V452.156H517.367V451.273V450.391H513.985V451.273ZM520.746 451.273V452.156H524.127V451.273V450.391H520.746V451.273ZM527.507 451.273V452.156H530.888V451.273V450.391H527.507V451.273ZM534.267 451.273V452.156H537.648V451.273V450.391H534.267V451.273ZM541.028 451.273V452.156H544.409V451.273V450.391H541.028V451.273ZM547.789 451.273V452.156H551.169V451.273V450.391H547.789V451.273ZM554.549 451.273V452.156H557.93V451.273V450.391H554.549V451.273ZM561.31 451.273V452.156H563V451.273V450.391H561.31V451.273Z" fill="white"/>
<path d="M277.255 434.648C276.915 434.995 276.915 435.552 277.255 435.899L282.8 441.515C283.141 441.859 283.692 441.859 284.033 441.515C284.373 441.169 284.373 440.611 284.033 440.265L279.104 435.273L284.033 430.281C284.373 429.935 284.373 429.377 284.033 429.032C283.692 428.687 283.141 428.687 282.8 429.032L277.255 434.648ZM277.872 435.273V436.156H279.548V435.273V434.391H277.872V435.273ZM282.899 435.273V436.156H286.25V435.273V434.391H282.899V435.273ZM289.601 435.273V436.156H292.952V435.273V434.391H289.601V435.273ZM296.303 435.273V436.156H299.654V435.273V434.391H296.303V435.273ZM303.005 435.273V436.156H306.356V435.273V434.391H303.005V435.273ZM309.707 435.273V436.156H313.057V435.273V434.391H309.707V435.273ZM316.409 435.273V436.156H319.76V435.273V434.391H316.409V435.273ZM323.112 435.273V436.156H326.464V435.273V434.391H323.112V435.273ZM329.814 435.273V436.156H333.165V435.273V434.391H329.814V435.273ZM336.516 435.273V436.156H339.867V435.273V434.391H336.516V435.273ZM343.218 435.273V436.156H346.569V435.273V434.391H343.218V435.273ZM349.92 435.273V436.156H353.271V435.273V434.391H349.92V435.273ZM356.622 435.273V436.156H359.973V435.273V434.391H356.622V435.273ZM363.323 435.273V436.156H365V435.273V434.391H363.323V435.273ZM277.255 434.648C276.915 434.995 276.915 435.552 277.255 435.899L282.8 441.515C283.141 441.859 283.692 441.859 284.033 441.515C284.373 441.169 284.373 440.611 284.033 440.265L279.104 435.273L284.033 430.281C284.373 429.935 284.373 429.377 284.033 429.032C283.692 428.687 283.141 428.687 282.8 429.032L277.255 434.648ZM277.872 435.273V436.156H279.548V435.273V434.391H277.872V435.273ZM282.899 435.273V436.156H286.25V435.273V434.391H282.899V435.273ZM289.601 435.273V436.156H292.952V435.273V434.391H289.601V435.273ZM296.303 435.273V436.156H299.654V435.273V434.391H296.303V435.273ZM303.005 435.273V436.156H306.356V435.273V434.391H303.005V435.273ZM309.707 435.273V436.156H313.057V435.273V434.391H309.707V435.273ZM316.409 435.273V436.156H319.76V435.273V434.391H316.409V435.273ZM323.112 435.273V436.156H326.464V435.273V434.391H323.112V435.273ZM329.814 435.273V436.156H333.165V435.273V434.391H329.814V435.273ZM336.516 435.273V436.156H339.867V435.273V434.391H336.516V435.273ZM343.218 435.273V436.156H346.569V435.273V434.391H343.218V435.273ZM349.92 435.273V436.156H353.271V435.273V434.391H349.92V435.273ZM356.622 435.273V436.156H359.973V435.273V434.391H356.622V435.273ZM363.323 435.273V436.156H365V435.273V434.391H363.323V435.273Z" fill="white"/>
<path d="M366.106 156.799C366.443 156.458 366.443 155.908 366.106 155.567L360.618 150.029C360.28 149.688 359.735 149.688 359.397 150.029C359.06 150.369 359.06 150.919 359.397 151.26L364.276 156.183L359.397 161.106C359.06 161.447 359.06 161.997 359.397 162.338C359.735 162.678 360.28 162.678 360.618 162.338L366.106 156.799ZM365.496 156.183V155.312H363.447V156.183V157.053H365.496V156.183ZM359.35 156.183V155.312H355.253V156.183V157.053H359.35V156.183ZM351.157 156.183V155.312H349.11V156.183V157.053H351.157V156.183ZM349.11 156.183V155.312C348.512 155.312 347.92 155.342 347.336 155.4L347.418 156.265L347.503 157.132C348.031 157.079 348.567 157.053 349.11 157.053V156.183ZM344.101 156.928L343.851 156.096C342.706 156.446 341.608 156.907 340.571 157.468L340.978 158.235L341.385 159.003C342.323 158.495 343.317 158.079 344.352 157.762L344.101 156.928ZM338.168 160.134L337.621 159.461C336.704 160.221 335.864 161.069 335.11 161.995L335.777 162.547L336.444 163.099C337.125 162.263 337.885 161.494 338.715 160.806L338.168 160.134ZM333.896 165.383L333.136 164.972C332.58 166.018 332.123 167.127 331.776 168.283L332.601 168.535L333.427 168.787C333.741 167.743 334.153 166.74 334.656 165.793L333.896 165.383ZM331.944 171.882L331.086 171.799C331.029 172.389 331 172.986 331 173.59H331.863H332.725C332.725 173.042 332.751 172.5 332.803 171.968L331.944 171.882ZM331.863 173.59H331V175.34H331.863H332.725V173.59H331.863ZM331.863 178.837H331V182.335H331.863H332.725V178.837H331.863ZM331.863 185.834H331V189.332H331.863H332.725V185.834H331.863ZM331.863 192.83H331V196.329H331.863H332.725V192.83H331.863ZM331.863 199.827H331V203.326H331.863H332.725V199.827H331.863ZM331.863 206.822H331V210.321H331.863H332.725V206.822H331.863ZM331.863 213.82H331V217.317H331.863H332.725V213.82H331.863ZM331.863 220.816H331V224.313H331.863H332.725V220.816H331.863ZM331.863 227.812H331V231.311H331.863H332.725V227.812H331.863ZM331.863 234.808H331V238.307H331.863H332.725V234.808H331.863ZM331.863 241.806H331V245.303H331.863H332.725V241.806H331.863ZM331.863 248.801H331V252.299H331.863H332.725V248.801H331.863ZM331.863 255.798H331V259.296H331.863H332.725V255.798H331.863ZM331.863 262.794H331V266.293H331.863H332.725V262.794H331.863ZM331.863 269.79H331V273.289H331.863H332.725V269.79H331.863ZM331.863 276.788H331V280.284H331.863H332.725V276.788H331.863ZM331.863 283.784H331V287.283H331.863H332.725V283.784H331.863ZM331.863 290.779H331V294.278H331.863H332.725V290.779H331.863ZM331.863 297.776H331V301.274H331.863H332.725V297.776H331.863ZM331.863 304.773H331V308.271H331.863H332.725V304.773H331.863ZM331.863 311.769H331V315.267H331.863H332.725V311.769H331.863ZM331.863 318.766H331V322.264H331.863H332.725V318.766H331.863ZM331.863 325.761H331V329.26H331.863H332.725V325.761H331.863ZM331.863 332.759H331V336.256H331.863H332.725V332.759H331.863ZM331.863 339.755H331V343.252H331.863H332.725V339.755H331.863ZM331.863 346.751H331V350.25H331.863H332.725V346.751H331.863ZM331.863 353.747H331V355.496H331.863H332.725V353.747H331.863ZM331.863 355.496H331C331 356.1 331.029 356.697 331.086 357.288L331.944 357.204L332.803 357.119C332.751 356.586 332.725 356.044 332.725 355.496H331.863ZM332.601 360.552L331.776 360.804C332.123 361.96 332.58 363.068 333.136 364.115L333.896 363.704L334.656 363.293C334.153 362.346 333.741 361.344 333.427 360.299L332.601 360.552ZM335.777 366.539L335.11 367.093C335.864 368.017 336.704 368.865 337.621 369.626L338.168 368.952L338.715 368.28C337.885 367.592 337.125 366.825 336.444 365.988L335.777 366.539ZM340.978 370.851L340.571 371.619C341.608 372.18 342.706 372.641 343.851 372.991L344.101 372.159L344.352 371.325C343.317 371.008 342.323 370.592 341.385 370.084L340.978 370.851ZM347.418 372.822L347.336 373.687C347.92 373.745 348.512 373.774 349.11 373.774V372.904V372.033C348.567 372.033 348.031 372.007 347.503 371.955L347.418 372.822ZM349.11 372.904V373.774H350.916V372.904V372.033H349.11V372.904ZM354.528 372.904V373.774H358.137V372.904V372.033H354.528V372.904ZM361.749 372.904V373.774H365.361V372.904V372.033H361.749V372.904ZM368.972 372.904V373.774H372.583V372.904V372.033H368.972V372.904ZM376.194 372.904V373.774H379.806V372.904V372.033H376.194V372.904ZM383.417 372.904V373.774H387.028V372.904V372.033H383.417V372.904ZM390.639 372.904V373.774H394.251V372.904V372.033H390.639V372.904ZM397.863 372.904V373.774H401.472V372.904V372.033H397.863V372.904ZM405.084 372.904V373.774H406.89V372.904V372.033H405.084V372.904ZM406.89 372.904V373.774C407.433 373.774 407.969 373.801 408.497 373.853L408.582 372.985L408.665 372.12C408.08 372.063 407.488 372.033 406.89 372.033V372.904ZM411.899 373.649L411.648 374.482C412.684 374.799 413.677 375.215 414.615 375.724L415.022 374.956L415.429 374.189C414.393 373.628 413.294 373.166 412.149 372.817L411.899 373.649ZM417.832 376.855L417.285 377.527C418.113 378.214 418.876 378.982 419.557 379.82L420.223 379.268L420.89 378.716C420.136 377.79 419.296 376.942 418.379 376.181L417.832 376.855ZM422.104 382.103L421.344 382.514C421.847 383.461 422.26 384.464 422.573 385.509L423.4 385.256L424.224 385.004C423.877 383.848 423.42 382.739 422.865 381.693L422.104 382.103ZM424.056 388.604L423.197 388.689C423.249 389.221 423.275 389.762 423.275 390.311H424.137H425C425 389.707 424.971 389.11 424.914 388.52L424.056 388.604ZM424.137 390.311H423.275V392.215H424.137H425V390.311H424.137ZM424.137 396.023H423.275V399.831H424.137H425V396.023H424.137ZM424.137 403.638H423.275V407.447H424.137H425V403.638H424.137ZM424.137 411.254H423.275V415.062H424.137H425V411.254H424.137ZM424.137 418.87H423.275V420.773H424.137H425V418.87H424.137Z" fill="white"/>
<path d="M365.745 464.35C366.085 464.031 366.085 463.516 365.745 463.196L360.2 458.012C359.859 457.694 359.308 457.694 358.967 458.012C358.627 458.331 358.627 458.846 358.967 459.165L363.896 463.773L358.967 468.382C358.627 468.701 358.627 469.215 358.967 469.535C359.308 469.853 359.859 469.853 360.2 469.535L365.745 464.35ZM365.128 463.773V462.958H363.452V463.773V464.588H365.128V463.773ZM360.101 463.773V462.958H356.75V463.773V464.588H360.101V463.773ZM353.399 463.773V462.958H350.048V463.773V464.588H353.399V463.773ZM346.697 463.773V462.958H343.346V463.773V464.588H346.697V463.773ZM339.995 463.773V462.958H336.644V463.773V464.588H339.995V463.773ZM333.294 463.773V462.958H329.943V463.773V464.588H333.294V463.773ZM326.591 463.773V462.958H323.24V463.773V464.588H326.591V463.773ZM319.888 463.773V462.958H316.537V463.773V464.588H319.888V463.773ZM313.186 463.773V462.958H309.835V463.773V464.588H313.186V463.773ZM306.484 463.773V462.958H303.133V463.773V464.588H306.484V463.773ZM299.782 463.773V462.958H296.431V463.773V464.588H299.782V463.773ZM293.08 463.773V462.958H289.729V463.773V464.588H293.08V463.773ZM286.378 463.773V462.958H283.027V463.773V464.588H286.378V463.773ZM279.677 463.773V462.958H278V463.773V464.588H279.677V463.773ZM365.745 464.35C366.085 464.031 366.085 463.516 365.745 463.196L360.2 458.012C359.859 457.694 359.308 457.694 358.967 458.012C358.627 458.331 358.627 458.846 358.967 459.165L363.896 463.773L358.967 468.382C358.627 468.701 358.627 469.215 358.967 469.535C359.308 469.853 359.859 469.853 360.2 469.535L365.745 464.35ZM365.128 463.773V462.958H363.452V463.773V464.588H365.128V463.773ZM360.101 463.773V462.958H356.75V463.773V464.588H360.101V463.773ZM353.399 463.773V462.958H350.048V463.773V464.588H353.399V463.773ZM346.697 463.773V462.958H343.346V463.773V464.588H346.697V463.773ZM339.995 463.773V462.958H336.644V463.773V464.588H339.995V463.773ZM333.294 463.773V462.958H329.943V463.773V464.588H333.294V463.773ZM326.591 463.773V462.958H323.24V463.773V464.588H326.591V463.773ZM319.888 463.773V462.958H316.537V463.773V464.588H319.888V463.773ZM313.186 463.773V462.958H309.835V463.773V464.588H313.186V463.773ZM306.484 463.773V462.958H303.133V463.773V464.588H306.484V463.773ZM299.782 463.773V462.958H296.431V463.773V464.588H299.782V463.773ZM293.08 463.773V462.958H289.729V463.773V464.588H293.08V463.773ZM286.378 463.773V462.958H283.027V463.773V464.588H286.378V463.773ZM279.677 463.773V462.958H278V463.773V464.588H279.677V463.773Z" fill="white"/>
<path d="M626.959 272.52C627.299 272.858 627.851 272.858 628.193 272.52L633.744 266.998C634.085 266.658 634.085 266.109 633.744 265.769C633.403 265.431 632.851 265.431 632.511 265.769L627.575 270.678L622.64 265.769C622.298 265.431 621.746 265.431 621.407 265.769C621.064 266.109 621.064 266.658 621.407 266.998L626.959 272.52ZM627.575 271.905H628.448V270.224H627.575H626.702V271.905H627.575ZM627.575 266.863H628.448V263.5H627.575H626.702V266.863H627.575ZM627.575 260.138H628.448V256.775H627.575H626.702V260.138H627.575ZM627.575 253.414H628.448V250.051H627.575H626.702V253.414H627.575ZM627.575 246.69H628.448V245.009H627.575H626.702V246.69H627.575ZM627.575 245.009H628.448C628.448 244.406 628.417 243.811 628.36 243.223L627.493 243.306L626.624 243.391C626.676 243.922 626.702 244.462 626.702 245.009H627.575ZM626.828 239.969L627.664 239.717C627.311 238.565 626.849 237.46 626.287 236.417L625.517 236.827L624.748 237.236C625.257 238.18 625.676 239.18 625.992 240.221L626.828 239.969ZM623.616 234L624.289 233.45C623.527 232.527 622.676 231.681 621.75 230.923L621.195 231.595L620.642 232.265C621.481 232.95 622.251 233.717 622.94 234.55L623.616 234ZM618.353 229.702L618.765 228.936C617.716 228.377 616.604 227.917 615.446 227.569L615.192 228.398L614.94 229.23C615.988 229.545 616.991 229.96 617.941 230.467L618.353 229.702ZM611.837 227.737L611.921 226.875C611.33 226.818 610.731 226.788 610.125 226.788V227.656V228.523C610.675 228.523 611.218 228.549 611.752 228.601L611.837 227.737ZM610.125 227.656V226.788H608.331V227.656V228.523H610.125V227.656ZM604.746 227.656V226.788H601.158V227.656V228.523H604.746V227.656ZM597.572 227.656V226.788H593.985V227.656V228.523H597.572V227.656ZM590.399 227.656V226.788H586.811V227.656V228.523H590.399V227.656ZM583.224 227.656V226.788H579.638V227.656V228.523H583.224V227.656ZM576.05 227.656V226.788H572.465V227.656V228.523H576.05V227.656ZM568.877 227.656V226.788H565.291V227.656V228.523H568.877V227.656ZM561.703 227.656V226.788H558.116V227.656V228.523H561.703V227.656ZM554.53 227.656V226.788H550.942V227.656V228.523H554.53V227.656ZM547.357 227.656V226.788H545.563V227.656V228.523H547.357V227.656ZM545.563 227.656V226.788C545.013 226.788 544.47 226.762 543.936 226.709L543.851 227.574L543.767 228.437C544.359 228.494 544.957 228.523 545.563 228.523V227.656ZM540.495 226.913L540.748 226.082C539.701 225.765 538.696 225.351 537.747 224.844L537.336 225.61L536.923 226.375C537.973 226.933 539.083 227.393 540.243 227.742L540.495 226.913ZM534.493 223.717L535.046 223.046C534.207 222.361 533.437 221.596 532.748 220.761L532.074 221.312L531.399 221.862C532.162 222.785 533.012 223.629 533.939 224.388L534.493 223.717ZM530.17 218.485L530.94 218.075C530.43 217.131 530.013 216.132 529.696 215.091L528.86 215.342L528.026 215.593C528.376 216.746 528.839 217.851 529.401 218.894L530.17 218.485ZM528.196 212.005L529.065 211.92C529.012 211.389 528.985 210.849 528.985 210.303H528.113H527.241C527.241 210.905 527.271 211.5 527.328 212.088L528.196 212.005ZM528.113 210.303H528.985V208.438H528.113H527.241V210.303H528.113ZM528.113 204.707H528.985V200.976H528.113H527.241V204.707H528.113ZM528.113 197.245H528.985V193.514H528.113H527.241V197.245H528.113ZM528.113 189.783H528.985V186.052H528.113H527.241V189.783H528.113ZM528.113 182.321H528.985V178.59H528.113H527.241V182.321H528.113ZM528.113 174.859H528.985V172.994H528.113H527.241V174.859H528.113ZM528.113 172.994H528.985C528.985 172.392 528.956 171.797 528.899 171.208L528.031 171.292L527.162 171.377C527.215 171.908 527.241 172.447 527.241 172.994H528.113ZM527.367 167.955L528.201 167.703C527.85 166.551 527.388 165.445 526.825 164.403L526.056 164.812L525.286 165.222C525.796 166.166 526.213 167.165 526.531 168.206L527.367 167.955ZM524.152 161.985L524.827 161.435C524.065 160.512 523.215 159.667 522.287 158.909L521.734 159.58L521.181 160.25C522.02 160.936 522.789 161.703 523.479 162.535L524.152 161.985ZM518.891 157.687L519.303 156.922C518.254 156.363 517.143 155.903 515.984 155.554L515.731 156.384L515.478 157.215C516.525 157.531 517.53 157.946 518.48 158.452L518.891 157.687ZM512.376 155.723L512.459 154.86C511.868 154.803 511.269 154.773 510.664 154.773V155.641V156.509C511.213 156.509 511.756 156.535 512.29 156.587L512.376 155.723ZM510.664 155.641V154.773H508.811V155.641V156.509H510.664V155.641ZM505.103 155.641V154.773H501.395V155.641V156.509H505.103V155.641ZM497.687 155.641V154.773H493.979V155.641V156.509H497.687V155.641ZM490.271 155.641V154.773H486.563V155.641V156.509H490.271V155.641ZM482.855 155.641V154.773H481V155.641V156.509H482.855V155.641ZM626.959 272.52C627.299 272.858 627.851 272.858 628.193 272.52L633.744 266.998C634.085 266.658 634.085 266.109 633.744 265.769C633.403 265.431 632.851 265.431 632.511 265.769L627.575 270.678L622.64 265.769C622.298 265.431 621.746 265.431 621.407 265.769C621.064 266.109 621.064 266.658 621.407 266.998L626.959 272.52ZM627.575 271.905H628.448V270.224H627.575H626.702V271.905H627.575ZM627.575 266.863H628.448V263.5H627.575H626.702V266.863H627.575ZM627.575 260.138H628.448V256.775H627.575H626.702V260.138H627.575ZM627.575 253.414H628.448V250.051H627.575H626.702V253.414H627.575ZM627.575 246.69H628.448V245.009H627.575H626.702V246.69H627.575ZM627.575 245.009H628.448C628.448 244.406 628.417 243.811 628.36 243.223L627.493 243.306L626.624 243.391C626.676 243.922 626.702 244.462 626.702 245.009H627.575ZM626.828 239.969L627.664 239.717C627.311 238.565 626.849 237.46 626.287 236.417L625.517 236.827L624.748 237.236C625.257 238.18 625.676 239.18 625.992 240.221L626.828 239.969ZM623.616 234L624.289 233.45C623.527 232.527 622.676 231.681 621.75 230.923L621.195 231.595L620.642 232.265C621.481 232.95 622.251 233.717 622.94 234.55L623.616 234ZM618.353 229.702L618.765 228.936C617.716 228.377 616.604 227.917 615.446 227.569L615.192 228.398L614.94 229.23C615.988 229.545 616.991 229.96 617.941 230.467L618.353 229.702ZM611.837 227.737L611.921 226.875C611.33 226.818 610.731 226.788 610.125 226.788V227.656V228.523C610.675 228.523 611.218 228.549 611.752 228.601L611.837 227.737ZM610.125 227.656V226.788H608.331V227.656V228.523H610.125V227.656ZM604.746 227.656V226.788H601.158V227.656V228.523H604.746V227.656ZM597.572 227.656V226.788H593.985V227.656V228.523H597.572V227.656ZM590.399 227.656V226.788H586.811V227.656V228.523H590.399V227.656ZM583.224 227.656V226.788H579.638V227.656V228.523H583.224V227.656ZM576.05 227.656V226.788H572.465V227.656V228.523H576.05V227.656ZM568.877 227.656V226.788H565.291V227.656V228.523H568.877V227.656ZM561.703 227.656V226.788H558.116V227.656V228.523H561.703V227.656ZM554.53 227.656V226.788H550.942V227.656V228.523H554.53V227.656ZM547.357 227.656V226.788H545.563V227.656V228.523H547.357V227.656ZM545.563 227.656V226.788C545.013 226.788 544.47 226.762 543.936 226.709L543.851 227.574L543.767 228.437C544.359 228.494 544.957 228.523 545.563 228.523V227.656ZM540.495 226.913L540.748 226.082C539.701 225.765 538.696 225.351 537.747 224.844L537.336 225.61L536.923 226.375C537.973 226.933 539.083 227.393 540.243 227.742L540.495 226.913ZM534.493 223.717L535.046 223.046C534.207 222.361 533.437 221.596 532.748 220.761L532.074 221.312L531.399 221.862C532.162 222.785 533.012 223.629 533.939 224.388L534.493 223.717ZM530.17 218.485L530.94 218.075C530.43 217.131 530.013 216.132 529.696 215.091L528.86 215.342L528.026 215.593C528.376 216.746 528.839 217.851 529.401 218.894L530.17 218.485ZM528.196 212.005L529.065 211.92C529.012 211.389 528.985 210.849 528.985 210.303H528.113H527.241C527.241 210.905 527.271 211.5 527.328 212.088L528.196 212.005ZM528.113 210.303H528.985V208.438H528.113H527.241V210.303H528.113ZM528.113 204.707H528.985V200.976H528.113H527.241V204.707H528.113ZM528.113 197.245H528.985V193.514H528.113H527.241V197.245H528.113ZM528.113 189.783H528.985V186.052H528.113H527.241V189.783H528.113ZM528.113 182.321H528.985V178.59H528.113H527.241V182.321H528.113ZM528.113 174.859H528.985V172.994H528.113H527.241V174.859H528.113ZM528.113 172.994H528.985C528.985 172.392 528.956 171.797 528.899 171.208L528.031 171.292L527.162 171.377C527.215 171.908 527.241 172.447 527.241 172.994H528.113ZM527.367 167.955L528.201 167.703C527.85 166.551 527.388 165.445 526.825 164.403L526.056 164.812L525.286 165.222C525.796 166.166 526.213 167.165 526.531 168.206L527.367 167.955ZM524.152 161.985L524.827 161.435C524.065 160.512 523.215 159.667 522.287 158.909L521.734 159.58L521.181 160.25C522.02 160.936 522.789 161.703 523.479 162.535L524.152 161.985ZM518.891 157.687L519.303 156.922C518.254 156.363 517.143 155.903 515.984 155.554L515.731 156.384L515.478 157.215C516.525 157.531 517.53 157.946 518.48 158.452L518.891 157.687ZM512.376 155.723L512.459 154.86C511.868 154.803 511.269 154.773 510.664 154.773V155.641V156.509C511.213 156.509 511.756 156.535 512.29 156.587L512.376 155.723ZM510.664 155.641V154.773H508.811V155.641V156.509H510.664V155.641ZM505.103 155.641V154.773H501.395V155.641V156.509H505.103V155.641ZM497.687 155.641V154.773H493.979V155.641V156.509H497.687V155.641ZM490.271 155.641V154.773H486.563V155.641V156.509H490.271V155.641ZM482.855 155.641V154.773H481V155.641V156.509H482.855V155.641Z" fill="white"/>
<path d="M481.256 302.559C480.915 302.898 480.915 303.447 481.256 303.788L486.816 309.318C487.158 309.658 487.71 309.658 488.053 309.318C488.394 308.978 488.394 308.429 488.053 308.09L483.11 303.173L488.053 298.258C488.394 297.917 488.394 297.368 488.053 297.029C487.71 296.688 487.158 296.688 486.816 297.029L481.256 302.559ZM547.4 450.904V451.773H564V450.904V450.036H547.4V450.904ZM481.875 303.173V304.042H512.453V303.173V302.304H481.875V303.173ZM529.926 320.553H529.053V433.525H529.926H530.8V320.553H529.926ZM512.453 303.173V304.042C521.622 304.042 529.053 311.434 529.053 320.553H529.926H530.8C530.8 310.474 522.586 302.304 512.453 302.304V303.173ZM547.4 450.904V450.036C538.232 450.036 530.8 442.644 530.8 433.525H529.926H529.053C529.053 443.604 537.267 451.773 547.4 451.773V450.904Z" fill="white"/>
<path d="M545 218.773V208.753H545.947V210.228C546.413 209.264 547.57 208.636 548.803 208.636C551.027 208.636 552.53 210.17 552.53 212.434C552.53 214.698 551.027 216.232 548.803 216.232C547.57 216.232 546.413 215.574 545.947 214.626V218.773H545ZM548.757 215.414C550.38 215.414 551.552 214.187 551.552 212.434C551.552 210.682 550.38 209.455 548.757 209.455C547.134 209.455 545.947 210.682 545.947 212.434C545.947 214.171 547.134 215.414 548.757 215.414ZM554.375 216.116V208.753H555.337V216.116H554.375ZM554.872 207.307C554.435 207.307 554.104 207 554.104 206.577C554.104 206.167 554.435 205.862 554.872 205.862C555.323 205.862 555.637 206.167 555.637 206.577C555.637 207 555.323 207.307 554.872 207.307ZM560.846 216.232C558.728 216.232 557.165 214.626 557.165 212.434C557.165 210.243 558.728 208.636 560.846 208.636C562.665 208.636 563.927 209.6 564.152 211.09H563.19C562.996 210.126 562.063 209.455 560.862 209.455C559.298 209.455 558.141 210.695 558.141 212.434C558.141 214.158 559.298 215.414 560.862 215.414C562.258 215.414 563.086 214.61 563.25 213.704H564.242C564.001 215.063 562.785 216.232 560.846 216.232ZM565.979 216.116V205.773H566.941V212.026L570.832 208.753H572.14L568.819 211.601L572.425 216.116H571.269L568.097 212.2L566.941 213.194V216.116H565.979ZM580.171 216.232C577.991 216.232 576.398 214.655 576.398 212.434C576.398 210.214 577.991 208.636 580.171 208.636C582.348 208.636 583.927 210.214 583.927 212.434C583.927 214.655 582.334 216.232 580.171 216.232ZM580.171 215.414C581.793 215.414 582.965 214.187 582.965 212.434C582.965 210.682 581.793 209.455 580.171 209.455C578.548 209.455 577.376 210.682 577.376 212.434C577.376 214.187 578.548 215.414 580.171 215.414ZM585.785 216.116V208.753H586.733V210.403C587.123 209.264 588.055 208.636 589.151 208.636C589.467 208.636 589.798 208.695 590.053 208.812V209.689C589.632 209.542 589.347 209.513 589.047 209.513C587.695 209.513 586.733 210.871 586.733 213.165V216.116H585.785ZM594.181 216.232C591.957 216.232 590.455 214.698 590.455 212.434C590.455 210.17 591.957 208.636 594.181 208.636C595.413 208.636 596.569 209.279 597.036 210.243V205.773H597.982V216.116H597.036V214.626C596.569 215.574 595.413 216.232 594.181 216.232ZM594.225 215.414C595.848 215.414 597.036 214.171 597.036 212.434C597.036 210.682 595.848 209.455 594.225 209.455C592.602 209.455 591.416 210.682 591.416 212.434C591.416 214.187 592.602 215.414 594.225 215.414ZM603.51 216.232C601.346 216.232 599.829 214.655 599.829 212.434C599.829 210.214 601.362 208.636 603.48 208.636C605.704 208.636 607.102 210.302 606.862 212.434H600.791C600.791 214.246 601.917 215.414 603.51 215.414C604.893 215.414 605.72 214.668 605.884 213.807H606.846C606.591 215.122 605.524 216.232 603.51 216.232ZM600.851 211.675H605.901C605.901 210.331 604.893 209.455 603.48 209.455C602.098 209.455 601.105 210.287 600.851 211.675ZM608.732 216.116V208.753H609.678V210.403C610.069 209.264 611 208.636 612.098 208.636C612.413 208.636 612.744 208.695 613 208.812V209.689C612.579 209.542 612.293 209.513 611.992 209.513C610.64 209.513 609.678 210.871 609.678 213.165V216.116H608.732Z" fill="white"/>
<path d="M450.287 381.653V374.837H449V374.037H450.287V373.04C450.287 371.559 451.047 370.773 452.217 370.773C452.554 370.773 452.964 370.834 453.168 370.939V371.785C452.948 371.68 452.642 371.604 452.35 371.604C451.661 371.604 451.209 372.104 451.209 373.071V374.037H453.153V374.837H451.209V381.653H450.287ZM457.12 381.773C455.599 381.773 454.472 380.807 454.472 379.054V374.037H455.395V378.857C455.395 380.217 456.139 380.911 457.28 380.911C458.889 380.911 459.927 379.477 459.927 377.285V374.037H460.848V381.653H459.927V379.975C459.473 381.003 458.465 381.773 457.12 381.773ZM463.141 381.653V370.955H464.077V381.653H463.141ZM466.76 381.653V374.837H465.474V374.037H466.76V372.994C466.76 371.514 467.491 370.773 468.648 370.773C468.969 370.773 469.349 370.834 469.583 370.939V371.785C469.349 371.68 469.071 371.604 468.765 371.604C468.106 371.604 467.683 372.087 467.683 373.04V374.037H471.702V381.653H470.767V374.837H467.683V381.653H466.76ZM471.235 372.541C470.812 372.541 470.503 372.225 470.503 371.785C470.503 371.362 470.812 371.046 471.235 371.046C471.673 371.046 471.982 371.362 471.982 371.785C471.982 372.225 471.673 372.541 471.235 372.541ZM473.975 381.653V370.955H474.911V381.653H473.975ZM477.187 381.653V370.955H478.123V381.653H477.187ZM487.052 381.773C484.933 381.773 483.383 380.142 483.383 377.845C483.383 375.548 484.933 373.916 487.052 373.916C489.174 373.916 490.708 375.548 490.708 377.845C490.708 380.142 489.158 381.773 487.052 381.773ZM487.052 380.928C488.632 380.928 489.773 379.658 489.773 377.845C489.773 376.032 488.632 374.763 487.052 374.763C485.474 374.763 484.333 376.032 484.333 377.845C484.333 379.658 485.474 380.928 487.052 380.928ZM492.518 381.653V374.037H493.44V375.744C493.82 374.565 494.727 373.916 495.794 373.916C496.101 373.916 496.423 373.977 496.671 374.098V375.004C496.261 374.854 495.984 374.823 495.692 374.823C494.376 374.823 493.44 376.228 493.44 378.601V381.653H492.518ZM500.686 381.773C498.522 381.773 497.059 380.186 497.059 377.845C497.059 375.503 498.522 373.916 500.686 373.916C501.885 373.916 503.012 374.582 503.464 375.579V370.955H504.386V381.653H503.464V380.112C503.012 381.093 501.885 381.773 500.686 381.773ZM500.731 380.928C502.31 380.928 503.464 379.643 503.464 377.845C503.464 376.032 502.31 374.763 500.731 374.763C499.151 374.763 497.996 376.032 497.996 377.845C497.996 379.658 499.151 380.928 500.731 380.928ZM509.765 381.773C507.66 381.773 506.184 380.142 506.184 377.845C506.184 375.548 507.676 373.916 509.736 373.916C511.9 373.916 513.261 375.639 513.027 377.845H507.12C507.12 379.719 508.216 380.928 509.765 380.928C511.111 380.928 511.916 380.156 512.076 379.265H513.012C512.764 380.625 511.725 381.773 509.765 381.773ZM507.178 377.059H512.092C512.092 375.669 511.111 374.763 509.736 374.763C508.391 374.763 507.426 375.623 507.178 377.059ZM514.848 381.653V374.037H515.767V375.744C516.148 374.565 517.054 373.916 518.123 373.916C518.429 373.916 518.751 373.977 519 374.098V375.004C518.59 374.854 518.312 374.823 518.019 374.823C516.703 374.823 515.767 376.228 515.767 378.601V381.653H514.848Z" fill="white"/>
<path d="M247.371 297.994V290.656H248.304V292.301C248.749 291.297 249.787 290.54 251.15 290.54C252.709 290.54 253.835 291.472 253.835 293.161V297.994H252.901V293.349C252.901 292.039 252.159 291.369 250.989 291.369C249.358 291.369 248.304 292.753 248.304 294.863V297.994H247.371ZM258.28 298.111C256.678 298.111 255.7 297.267 255.7 296.057C255.7 294.559 256.752 293.86 259.183 293.611L260.874 293.437V293.116C260.874 292.039 260.044 291.355 258.843 291.355C257.657 291.355 256.826 291.967 256.662 293.074H255.73C255.951 291.589 257.183 290.54 258.843 290.54C260.563 290.54 261.808 291.573 261.808 293.19V297.994H260.874V296.48C260.593 297.397 259.495 298.111 258.28 298.111ZM260.874 294.18L259.243 294.355C257.42 294.559 256.649 294.966 256.649 296.028C256.649 296.844 257.302 297.339 258.324 297.339C259.836 297.339 260.874 296.176 260.874 294.559V294.18ZM265.89 297.994L262.984 290.656H264.006L266.409 296.872L268.796 290.656H269.775L266.883 297.994H265.89ZM271.212 297.994V290.656H272.161V297.994H271.212ZM271.701 289.214C271.272 289.214 270.946 288.91 270.946 288.487C270.946 288.079 271.272 287.773 271.701 287.773C272.145 287.773 272.458 288.079 272.458 288.487C272.458 288.91 272.145 289.214 271.701 289.214ZM277.567 300.761C275.774 300.761 274.587 299.887 274.364 298.564H275.313C275.58 299.524 276.41 299.946 277.567 299.946C279.109 299.946 280.176 299.101 280.176 297.674V296.248C279.732 297.106 278.634 297.688 277.448 297.688C275.432 297.688 274.009 296.232 274.009 294.122C274.009 291.967 275.417 290.54 277.478 290.54C278.65 290.54 279.732 291.107 280.176 291.967V290.656H281.125V297.601C281.125 299.554 279.718 300.761 277.567 300.761ZM277.567 296.872C279.079 296.872 280.192 295.723 280.192 294.122C280.192 292.476 279.079 291.355 277.567 291.355C276.054 291.355 274.943 292.476 274.943 294.122C274.943 295.737 276.054 296.872 277.567 296.872ZM285.638 298.111C284.037 298.111 283.058 297.267 283.058 296.057C283.058 294.559 284.111 293.86 286.543 293.611L288.234 293.437V293.116C288.234 292.039 287.403 291.355 286.201 291.355C285.015 291.355 284.185 291.967 284.023 293.074H283.088C283.311 291.589 284.54 290.54 286.201 290.54C287.921 290.54 289.166 291.573 289.166 293.19V297.994H288.234V296.48C287.951 297.397 286.853 298.111 285.638 298.111ZM288.234 294.18L286.603 294.355C284.778 294.559 284.007 294.966 284.007 296.028C284.007 296.844 284.659 297.339 285.683 297.339C287.196 297.339 288.234 296.176 288.234 294.559V294.18ZM293.632 298.111C292.432 298.111 291.661 297.354 291.661 295.97V291.427H290.356V290.656H291.661V288.748H292.594V290.656H294.567V291.427H292.594V295.912C292.594 296.844 293.054 297.28 293.737 297.28C294.033 297.28 294.344 297.222 294.581 297.135V297.937C294.373 298.039 294.003 298.111 293.632 298.111ZM299.021 298.111C296.885 298.111 295.389 296.539 295.389 294.325C295.389 292.113 296.901 290.54 298.99 290.54C301.185 290.54 302.565 292.2 302.328 294.325H296.337C296.337 296.131 297.449 297.296 299.021 297.296C300.384 297.296 301.201 296.552 301.363 295.694H302.312C302.061 297.004 301.007 298.111 299.021 298.111ZM296.397 293.569H301.379C301.379 292.229 300.384 291.355 298.99 291.355C297.627 291.355 296.648 292.184 296.397 293.569ZM309.814 298.111C308.614 298.111 307.843 297.354 307.843 295.97V291.427H306.538V290.656H307.843V288.748H308.776V290.656H310.749V291.427H308.776V295.912C308.776 296.844 309.237 297.28 309.919 297.28C310.216 297.28 310.526 297.222 310.763 297.135V297.937C310.555 298.039 310.186 298.111 309.814 298.111ZM315.277 298.111C313.128 298.111 311.557 296.539 311.557 294.325C311.557 292.113 313.128 290.54 315.277 290.54C317.428 290.54 318.984 292.113 318.984 294.325C318.984 296.539 317.412 298.111 315.277 298.111ZM315.277 297.296C316.879 297.296 318.035 296.073 318.035 294.325C318.035 292.579 316.879 291.355 315.277 291.355C313.676 291.355 312.519 292.579 312.519 294.325C312.519 296.073 313.676 297.296 315.277 297.296ZM214 317.773V307.786H214.935V309.256C215.394 308.294 216.537 307.669 217.752 307.669C219.946 307.669 221.429 309.197 221.429 311.455C221.429 313.711 219.946 315.241 217.752 315.241C216.537 315.241 215.394 314.584 214.935 313.639V317.773H214ZM217.707 314.425C219.308 314.425 220.465 313.202 220.465 311.455C220.465 309.708 219.308 308.485 217.707 308.485C216.105 308.485 214.935 309.708 214.935 311.455C214.935 313.186 216.105 314.425 217.707 314.425ZM223.266 315.124V307.786H224.199V309.43C224.585 308.294 225.504 307.669 226.587 307.669C226.898 307.669 227.224 307.727 227.477 307.844V308.718C227.062 308.572 226.779 308.543 226.482 308.543C225.148 308.543 224.199 309.896 224.199 312.183V315.124H223.266ZM231.548 315.241C229.399 315.241 227.828 313.668 227.828 311.455C227.828 309.241 229.399 307.669 231.548 307.669C233.698 307.669 235.255 309.241 235.255 311.455C235.255 313.668 233.683 315.241 231.548 315.241ZM231.548 314.425C233.149 314.425 234.306 313.202 234.306 311.455C234.306 309.708 233.149 308.485 231.548 308.485C229.946 308.485 228.79 309.708 228.79 311.455C228.79 313.202 229.946 314.425 231.548 314.425ZM240.263 315.241C238.068 315.241 236.586 313.711 236.586 311.455C236.586 309.197 238.068 307.669 240.263 307.669C241.478 307.669 242.621 308.31 243.08 309.271V304.816H244.015V315.124H243.08V313.639C242.621 314.584 241.478 315.241 240.263 315.241ZM240.308 314.425C241.91 314.425 243.08 313.186 243.08 311.455C243.08 309.708 241.91 308.485 240.308 308.485C238.707 308.485 237.534 309.708 237.534 311.455C237.534 313.202 238.707 314.425 240.308 314.425ZM248.936 315.241C247.394 315.241 246.251 314.308 246.251 312.619V307.786H247.186V312.43C247.186 313.74 247.941 314.41 249.098 314.41C250.729 314.41 251.782 313.027 251.782 310.915V307.786H252.716V315.124H251.782V313.507C251.322 314.497 250.3 315.241 248.936 315.241ZM258.168 315.241C256.079 315.241 254.537 313.639 254.537 311.455C254.537 309.271 256.079 307.669 258.168 307.669C259.963 307.669 261.208 308.63 261.43 310.115H260.481C260.289 309.154 259.37 308.485 258.184 308.485C256.642 308.485 255.499 309.721 255.499 311.455C255.499 313.173 256.642 314.425 258.184 314.425C259.562 314.425 260.378 313.624 260.541 312.721H261.519C261.282 314.075 260.081 315.241 258.168 315.241ZM266.377 315.241C264.242 315.241 262.745 313.668 262.745 311.455C262.745 309.241 264.257 307.669 266.347 307.669C268.542 307.669 269.921 309.329 269.684 311.455H263.694C263.694 313.26 264.806 314.425 266.377 314.425C267.741 314.425 268.558 313.681 268.719 312.823H269.668C269.417 314.134 268.364 315.241 266.377 315.241ZM263.753 310.698H268.735C268.735 309.358 267.741 308.485 266.347 308.485C264.983 308.485 264.005 309.313 263.753 310.698ZM277.373 315.241C275.505 315.241 274.556 314.104 274.483 312.75H275.432C275.505 313.624 276.054 314.425 277.373 314.425C278.351 314.425 279.079 313.93 279.079 313.07C279.079 311.047 274.691 312.241 274.691 309.576C274.691 308.469 275.64 307.669 277.122 307.669C278.827 307.669 279.716 308.527 279.821 309.795H278.885C278.753 308.98 278.203 308.485 277.122 308.485C276.276 308.485 275.624 308.863 275.624 309.533C275.624 311.41 280.028 310.187 280.028 313.041C280.028 314.396 278.901 315.241 277.373 315.241ZM285.008 315.241C282.859 315.241 281.288 313.668 281.288 311.455C281.288 309.241 282.859 307.669 285.008 307.669C287.159 307.669 288.715 309.241 288.715 311.455C288.715 313.668 287.143 315.241 285.008 315.241ZM285.008 314.425C286.609 314.425 287.766 313.202 287.766 311.455C287.766 309.708 286.609 308.485 285.008 308.485C283.407 308.485 282.25 309.708 282.25 311.455C282.25 313.202 283.407 314.425 285.008 314.425ZM293.145 315.241C291.603 315.241 290.461 314.308 290.461 312.619V307.786H291.396V312.43C291.396 313.74 292.151 314.41 293.307 314.41C294.938 314.41 295.992 313.027 295.992 310.915V307.786H296.925V315.124H295.992V313.507C295.531 314.497 294.509 315.241 293.145 315.241ZM299.265 315.124V307.786H300.2V309.43C300.585 308.294 301.504 307.669 302.586 307.669C302.898 307.669 303.224 307.727 303.475 307.844V308.718C303.06 308.572 302.779 308.543 302.483 308.543C301.148 308.543 300.2 309.896 300.2 312.183V315.124H299.265ZM307.459 315.241C305.368 315.241 303.826 313.639 303.826 311.455C303.826 309.271 305.368 307.669 307.459 307.669C309.252 307.669 310.498 308.63 310.721 310.115H309.772C309.579 309.154 308.659 308.485 307.473 308.485C305.931 308.485 304.79 309.721 304.79 311.455C304.79 313.173 305.931 314.425 307.473 314.425C308.853 314.425 309.668 313.624 309.832 312.721H310.81C310.573 314.075 309.371 315.241 307.459 315.241ZM315.666 315.241C313.531 315.241 312.035 313.668 312.035 311.455C312.035 309.241 313.547 307.669 315.637 307.669C317.831 307.669 319.211 309.329 318.974 311.455H312.983C312.983 313.26 314.094 314.425 315.666 314.425C317.031 314.425 317.847 313.681 318.009 312.823H318.958C318.707 314.134 317.653 315.241 315.666 315.241ZM313.043 310.698H318.025C318.025 309.358 317.031 308.485 315.637 308.485C314.273 308.485 313.294 309.313 313.043 310.698Z" fill="white"/>
<path d="M310.847 409.395V398.773H311.79V409.395H310.847ZM317.28 409.515C315.144 409.515 313.582 407.895 313.582 405.615C313.582 403.334 315.144 401.714 317.28 401.714C319.417 401.714 320.963 403.334 320.963 405.615C320.963 407.895 319.401 409.515 317.28 409.515ZM317.28 408.675C318.871 408.675 320.02 407.415 320.02 405.615C320.02 403.814 318.871 402.554 317.28 402.554C315.688 402.554 314.539 403.814 314.539 405.615C314.539 407.415 315.688 408.675 317.28 408.675ZM324.396 409.395L321.789 401.834H322.79L324.896 408.209L327.005 401.834H327.932L330.054 408.209L332.161 401.834H333.105L330.512 409.395H329.539L327.46 403.154L325.369 409.395H324.396ZM302.729 427.163C301.52 427.163 300.385 426.487 299.929 425.514V427.043H299V416.422H299.929V421.013C300.385 420.023 301.52 419.363 302.729 419.363C304.91 419.363 306.383 420.937 306.383 423.263C306.383 425.588 304.91 427.163 302.729 427.163ZM302.684 426.323C304.275 426.323 305.44 425.064 305.44 423.263C305.44 421.463 304.275 420.203 302.684 420.203C301.093 420.203 299.943 421.463 299.943 423.263C299.943 425.047 301.093 426.323 302.684 426.323ZM310.389 427.163C308.798 427.163 307.825 426.293 307.825 425.047C307.825 423.503 308.87 422.783 311.287 422.527L312.967 422.347V422.017C312.967 420.907 312.142 420.203 310.949 420.203C309.77 420.203 308.945 420.833 308.782 421.973H307.855C308.075 420.443 309.299 419.363 310.949 419.363C312.658 419.363 313.896 420.427 313.896 422.093V427.043H312.967V425.483C312.688 426.428 311.597 427.163 310.389 427.163ZM312.967 423.113L311.346 423.293C309.535 423.503 308.769 423.924 308.769 425.018C308.769 425.858 309.416 426.367 310.432 426.367C311.935 426.367 312.967 425.17 312.967 423.503V423.113ZM318.334 427.163C317.139 427.163 316.373 426.383 316.373 424.957V420.277H315.077V419.483H316.373V417.516H317.302V419.483H319.261V420.277H317.302V424.897C317.302 425.858 317.758 426.307 318.436 426.307C318.731 426.307 319.041 426.248 319.277 426.158V426.983C319.07 427.089 318.702 427.163 318.334 427.163ZM323.109 427.163C321.915 427.163 321.149 426.383 321.149 424.957V420.277H319.852V419.483H321.149V417.516H322.078V419.483H324.037V420.277H322.078V424.897C322.078 425.858 322.534 426.307 323.212 426.307C323.507 426.307 323.817 426.248 324.053 426.158V426.983C323.846 427.089 323.477 427.163 323.109 427.163ZM328.464 427.163C326.342 427.163 324.855 425.543 324.855 423.263C324.855 420.983 326.358 419.363 328.435 419.363C330.616 419.363 331.987 421.073 331.751 423.263H325.798C325.798 425.123 326.902 426.323 328.464 426.323C329.82 426.323 330.631 425.557 330.792 424.674H331.735C331.486 426.023 330.438 427.163 328.464 427.163ZM325.857 422.483H330.808C330.808 421.103 329.82 420.203 328.435 420.203C327.079 420.203 326.107 421.057 325.857 422.483ZM333.585 427.043V419.483H334.513V421.177C334.896 420.007 335.809 419.363 336.886 419.363C337.194 419.363 337.519 419.422 337.77 419.543V420.443C337.357 420.293 337.076 420.262 336.782 420.262C335.455 420.262 334.513 421.657 334.513 424.013V427.043H333.585ZM340.153 429.773L341.185 427.12L338.297 419.483H339.298L341.656 425.858L344.027 419.483H345L341.11 429.773H340.153Z" fill="white"/>
<path d="M302.751 483.515C301.529 483.515 300.382 482.839 299.921 481.865V483.395H298.983V472.773H299.921V477.364C300.382 476.374 301.529 475.714 302.751 475.714C304.955 475.714 306.444 477.288 306.444 479.615C306.444 481.939 304.955 483.515 302.751 483.515ZM302.705 482.675C304.313 482.675 305.491 481.415 305.491 479.615C305.491 477.814 304.313 476.554 302.705 476.554C301.097 476.554 299.935 477.814 299.935 479.615C299.935 481.399 301.097 482.675 302.705 482.675ZM310.493 483.515C308.884 483.515 307.902 482.645 307.902 481.399C307.902 479.854 308.958 479.134 311.401 478.878L313.098 478.698V478.369C313.098 477.259 312.265 476.554 311.059 476.554C309.867 476.554 309.034 477.184 308.869 478.325H307.931C308.154 476.794 309.391 475.714 311.059 475.714C312.786 475.714 314.037 476.778 314.037 478.444V483.395H313.098V481.834C312.816 482.779 311.714 483.515 310.493 483.515ZM313.098 479.464L311.46 479.644C309.629 479.854 308.855 480.275 308.855 481.369C308.855 482.209 309.51 482.719 310.537 482.719C312.056 482.719 313.098 481.521 313.098 479.854V479.464ZM318.522 483.515C317.315 483.515 316.541 482.735 316.541 481.309V476.628H315.231V475.834H316.541V473.868H317.48V475.834H319.46V476.628H317.48V481.249C317.48 482.209 317.941 482.659 318.626 482.659C318.924 482.659 319.238 482.599 319.476 482.509V483.335C319.267 483.44 318.894 483.515 318.522 483.515ZM323.349 483.515C322.142 483.515 321.368 482.735 321.368 481.309V476.628H320.057V475.834H321.368V473.868H322.307V475.834H324.287V476.628H322.307V481.249C322.307 482.209 322.767 482.659 323.453 482.659C323.751 482.659 324.064 482.599 324.302 482.509V483.335C324.094 483.44 323.72 483.515 323.349 483.515ZM328.761 483.515C326.617 483.515 325.113 481.895 325.113 479.615C325.113 477.334 326.632 475.714 328.732 475.714C330.935 475.714 332.321 477.424 332.083 479.615H326.067C326.067 481.475 327.183 482.675 328.761 482.675C330.131 482.675 330.951 481.909 331.114 481.025H332.067C331.815 482.374 330.757 483.515 328.761 483.515ZM326.126 478.834H331.13C331.13 477.454 330.131 476.554 328.732 476.554C327.361 476.554 326.378 477.408 326.126 478.834ZM333.937 483.395V475.834H334.874V477.529C335.262 476.358 336.184 475.714 337.272 475.714C337.584 475.714 337.912 475.774 338.166 475.894V476.794C337.749 476.644 337.465 476.614 337.168 476.614C335.827 476.614 334.874 478.009 334.874 480.365V483.395H333.937ZM340.575 486.125L341.618 483.471L338.699 475.834H339.712L342.094 482.209L344.491 475.834H345.474L341.542 486.125H340.575ZM293.903 501.163C292.027 501.163 291.074 499.994 291 498.597H291.953C292.027 499.498 292.578 500.323 293.903 500.323C294.886 500.323 295.617 499.814 295.617 498.928C295.617 496.843 291.209 498.073 291.209 495.327C291.209 494.187 292.161 493.363 293.651 493.363C295.362 493.363 296.256 494.247 296.361 495.553H295.423C295.289 494.713 294.737 494.203 293.651 494.203C292.801 494.203 292.146 494.593 292.146 495.283C292.146 497.217 296.57 495.957 296.57 498.897C296.57 500.293 295.438 501.163 293.903 501.163ZM299.983 501.043L297.348 493.483H298.36L300.489 499.858L302.62 493.483H303.557L305.701 499.858L307.831 493.483H308.785L306.164 501.043H305.181L303.08 494.803L300.966 501.043H299.983ZM312.338 501.163C310.73 501.163 309.747 500.293 309.747 499.047C309.747 497.503 310.805 496.783 313.247 496.527L314.945 496.347V496.017C314.945 494.907 314.111 494.203 312.904 494.203C311.713 494.203 310.878 494.833 310.715 495.973H309.777C310.001 494.443 311.236 493.363 312.904 493.363C314.631 493.363 315.882 494.427 315.882 496.093V501.043H314.945V499.483C314.661 500.428 313.559 501.163 312.338 501.163ZM314.945 497.113L313.307 497.293C311.474 497.503 310.7 497.923 310.7 499.018C310.7 499.858 311.355 500.367 312.384 500.367C313.902 500.367 314.945 499.17 314.945 497.503V497.113ZM318.116 503.773V493.483H319.055V494.997C319.516 494.007 320.664 493.363 321.884 493.363C324.089 493.363 325.578 494.937 325.578 497.263C325.578 499.588 324.089 501.163 321.884 501.163C320.664 501.163 319.516 500.487 319.055 499.514V503.773H318.116ZM321.839 500.323C323.447 500.323 324.609 499.064 324.609 497.263C324.609 495.463 323.447 494.203 321.839 494.203C320.23 494.203 319.055 495.463 319.055 497.263C319.055 499.047 320.23 500.323 321.839 500.323ZM327.423 503.773V493.483H328.36V494.997C328.822 494.007 329.968 493.363 331.19 493.363C333.393 493.363 334.883 494.937 334.883 497.263C334.883 499.588 333.393 501.163 331.19 501.163C329.968 501.163 328.822 500.487 328.36 499.514V503.773H327.423ZM331.146 500.323C332.754 500.323 333.916 499.064 333.916 497.263C333.916 495.463 332.754 494.203 331.146 494.203C329.538 494.203 328.36 495.463 328.36 497.263C328.36 499.047 329.538 500.323 331.146 500.323ZM339.871 501.163C337.726 501.163 336.222 499.543 336.222 497.263C336.222 494.983 337.74 493.363 339.841 493.363C342.045 493.363 343.429 495.073 343.191 497.263H337.175C337.175 499.123 338.293 500.323 339.871 500.323C341.241 500.323 342.059 499.557 342.224 498.674H343.177C342.923 500.023 341.866 501.163 339.871 501.163ZM337.234 496.483H342.238C342.238 495.103 341.241 494.203 339.841 494.203C338.471 494.203 337.488 495.057 337.234 496.483ZM348.232 501.163C346.027 501.163 344.538 499.588 344.538 497.263C344.538 494.937 346.027 493.363 348.232 493.363C349.452 493.363 350.6 494.023 351.061 495.013V490.422H352V501.043H351.061V499.514C350.6 500.487 349.452 501.163 348.232 501.163ZM348.277 500.323C349.886 500.323 351.061 499.047 351.061 497.263C351.061 495.463 349.886 494.203 348.277 494.203C346.669 494.203 345.491 495.463 345.491 497.263C345.491 499.064 346.669 500.323 348.277 500.323Z" fill="white"/>
<path d="M737.5 374.193V366.713H738.426V368.389C738.867 367.366 739.895 366.594 741.247 366.594C742.788 366.594 743.905 367.544 743.905 369.265V374.193H742.98V369.457C742.98 368.122 742.246 367.439 741.084 367.439C739.468 367.439 738.426 368.85 738.426 371.001V374.193H737.5ZM748.31 374.312C746.723 374.312 745.753 373.451 745.753 372.218C745.753 370.69 746.797 369.978 749.207 369.725L750.882 369.547V369.22C750.882 368.122 750.059 367.425 748.868 367.425C747.693 367.425 746.87 368.048 746.709 369.177H745.782C746.004 367.662 747.222 366.594 748.868 366.594C750.573 366.594 751.807 367.647 751.807 369.295V374.193H750.882V372.649C750.602 373.584 749.515 374.312 748.31 374.312ZM750.882 370.304L749.266 370.483C747.457 370.69 746.694 371.106 746.694 372.189C746.694 373.019 747.34 373.524 748.355 373.524C749.854 373.524 750.882 372.338 750.882 370.69V370.304ZM755.851 374.193L752.971 366.713H753.984L756.365 373.05L758.731 366.713H759.701L756.834 374.193H755.851ZM761.125 374.193V366.713H762.065V374.193H761.125ZM761.61 365.242C761.184 365.242 760.86 364.931 760.86 364.5C760.86 364.084 761.184 363.773 761.61 363.773C762.051 363.773 762.359 364.084 762.359 364.5C762.359 364.931 762.051 365.242 761.61 365.242ZM767.422 377.014C765.645 377.014 764.469 376.123 764.248 374.773H765.189C765.453 375.753 766.276 376.182 767.422 376.182C768.95 376.182 770.008 375.322 770.008 373.867V372.412C769.567 373.287 768.48 373.881 767.305 373.881C765.307 373.881 763.896 372.397 763.896 370.245C763.896 368.048 765.292 366.594 767.334 366.594C768.496 366.594 769.567 367.172 770.008 368.048V366.713H770.948V373.791C770.948 375.782 769.553 377.014 767.422 377.014ZM767.422 373.05C768.921 373.05 770.023 371.878 770.023 370.245C770.023 368.567 768.921 367.425 767.422 367.425C765.924 367.425 764.822 368.567 764.822 370.245C764.822 371.892 765.924 373.05 767.422 373.05ZM775.422 374.312C773.835 374.312 772.865 373.451 772.865 372.218C772.865 370.69 773.907 369.978 776.317 369.725L777.992 369.547V369.22C777.992 368.122 777.169 367.425 775.98 367.425C774.804 367.425 773.982 368.048 773.819 369.177H772.894C773.114 367.662 774.334 366.594 775.98 366.594C777.684 366.594 778.918 367.647 778.918 369.295V374.193H777.992V372.649C777.714 373.584 776.626 374.312 775.422 374.312ZM777.992 370.304L776.376 370.483C774.57 370.69 773.805 371.106 773.805 372.189C773.805 373.019 774.452 373.524 775.465 373.524C776.964 373.524 777.992 372.338 777.992 370.69V370.304ZM783.343 374.312C782.152 374.312 781.389 373.54 781.389 372.13V367.498H780.096V366.713H781.389V364.767H782.315V366.713H784.268V367.498H782.315V372.07C782.315 373.019 782.77 373.465 783.445 373.465C783.739 373.465 784.049 373.405 784.284 373.317V374.134C784.078 374.239 783.71 374.312 783.343 374.312ZM788.683 374.312C786.568 374.312 785.082 372.709 785.082 370.453C785.082 368.197 786.581 366.594 788.653 366.594C790.828 366.594 792.193 368.286 791.959 370.453H786.023C786.023 372.294 787.126 373.481 788.683 373.481C790.035 373.481 790.842 372.723 791.004 371.848H791.945C791.694 373.184 790.652 374.312 788.683 374.312ZM786.082 369.681H791.018C791.018 368.315 790.035 367.425 788.653 367.425C787.302 367.425 786.332 368.27 786.082 369.681ZM799.379 374.312C798.188 374.312 797.424 373.54 797.424 372.13V367.498H796.131V366.713H797.424V364.767H798.351V366.713H800.304V367.498H798.351V372.07C798.351 373.019 798.805 373.465 799.481 373.465C799.775 373.465 800.084 373.405 800.319 373.317V374.134C800.114 374.239 799.746 374.312 799.379 374.312ZM804.793 374.312C802.662 374.312 801.104 372.709 801.104 370.453C801.104 368.197 802.662 366.594 804.793 366.594C806.923 366.594 808.466 368.197 808.466 370.453C808.466 372.709 806.908 374.312 804.793 374.312ZM804.793 373.481C806.38 373.481 807.525 372.234 807.525 370.453C807.525 368.672 806.38 367.425 804.793 367.425C803.206 367.425 802.06 368.672 802.06 370.453C802.06 372.234 803.206 373.481 804.793 373.481ZM740.643 391.773C738.469 391.773 737 390.215 737 387.915C737 385.613 738.469 384.056 740.643 384.056C741.849 384.056 742.981 384.709 743.435 385.688V381.146H744.362V391.655H743.435V390.141C742.981 391.105 741.849 391.773 740.643 391.773ZM740.688 390.943C742.275 390.943 743.435 389.68 743.435 387.915C743.435 386.133 742.275 384.887 740.688 384.887C739.102 384.887 737.94 386.133 737.94 387.915C737.94 389.696 739.102 390.943 740.688 390.943ZM749.767 391.773C747.652 391.773 746.166 390.171 746.166 387.915C746.166 385.659 747.665 384.056 749.737 384.056C751.912 384.056 753.277 385.747 753.043 387.915H747.107C747.107 389.755 748.21 390.943 749.767 390.943C751.119 390.943 751.926 390.185 752.088 389.31H753.028C752.778 390.646 751.736 391.773 749.767 391.773ZM747.166 387.143H752.102C752.102 385.778 751.119 384.887 749.737 384.887C748.386 384.887 747.416 385.732 747.166 387.143ZM757.163 391.773C755.312 391.773 754.371 390.616 754.299 389.235H755.239C755.312 390.125 755.856 390.943 757.163 390.943C758.133 390.943 758.854 390.438 758.854 389.561C758.854 387.499 754.505 388.716 754.505 385.999C754.505 384.871 755.445 384.056 756.915 384.056C758.603 384.056 759.485 384.931 759.588 386.223H758.662C758.53 385.392 757.986 384.887 756.915 384.887C756.076 384.887 755.43 385.273 755.43 385.955C755.43 387.869 759.794 386.622 759.794 389.532C759.794 390.913 758.677 391.773 757.163 391.773ZM763.834 391.773C762.645 391.773 761.881 391.002 761.881 389.591V384.96H760.588V384.174H761.881V382.229H762.805V384.174H764.76V384.96H762.805V389.532C762.805 390.482 763.261 390.927 763.937 390.927C764.231 390.927 764.539 390.868 764.774 390.778V391.596C764.568 391.701 764.202 391.773 763.834 391.773ZM766.274 391.655V384.174H767.215V391.655H766.274ZM766.76 382.704C766.333 382.704 766.01 382.393 766.01 381.962C766.01 381.547 766.333 381.236 766.76 381.236C767.201 381.236 767.508 381.547 767.508 381.962C767.508 382.393 767.201 382.704 766.76 382.704ZM769.516 391.655V384.174H770.442V385.851C770.883 384.827 771.911 384.056 773.262 384.056C774.804 384.056 775.921 385.006 775.921 386.727V391.655H774.996V386.92C774.996 385.584 774.261 384.901 773.1 384.901C771.484 384.901 770.442 386.312 770.442 388.463V391.655H769.516ZM780.328 391.773C778.741 391.773 777.771 390.913 777.771 389.68C777.771 388.152 778.813 387.439 781.223 387.187L782.898 387.008V386.682C782.898 385.584 782.075 384.887 780.885 384.887C779.71 384.887 778.887 385.511 778.725 386.638H777.8C778.02 385.125 779.24 384.056 780.885 384.056C782.59 384.056 783.824 385.109 783.824 386.757V391.655H782.898V390.112C782.619 391.045 781.532 391.773 780.328 391.773ZM782.898 387.766L781.281 387.944C779.475 388.152 778.711 388.568 778.711 389.651C778.711 390.482 779.358 390.986 780.37 390.986C781.869 390.986 782.898 389.801 782.898 388.152V387.766ZM788.248 391.773C787.058 391.773 786.294 391.002 786.294 389.591V384.96H785.002V384.174H786.294V382.229H787.219V384.174H789.174V384.96H787.219V389.532C787.219 390.482 787.675 390.927 788.351 390.927C788.645 390.927 788.952 390.868 789.188 390.778V391.596C788.982 391.701 788.616 391.773 788.248 391.773ZM790.688 391.655V384.174H791.629V391.655H790.688ZM791.174 382.704C790.746 382.704 790.423 382.393 790.423 381.962C790.423 381.547 790.746 381.236 791.174 381.236C791.614 381.236 791.922 381.547 791.922 381.962C791.922 382.393 791.614 382.704 791.174 382.704ZM797.103 391.773C794.973 391.773 793.416 390.171 793.416 387.915C793.416 385.659 794.973 384.056 797.103 384.056C799.234 384.056 800.775 385.659 800.775 387.915C800.775 390.171 799.218 391.773 797.103 391.773ZM797.103 390.943C798.69 390.943 799.836 389.696 799.836 387.915C799.836 386.133 798.69 384.887 797.103 384.887C795.516 384.887 794.37 386.133 794.37 387.915C794.37 389.696 795.516 390.943 797.103 390.943ZM802.594 391.655V384.174H803.52V385.851C803.961 384.827 804.99 384.056 806.341 384.056C807.883 384.056 809 385.006 809 386.727V391.655H808.075V386.92C808.075 385.584 807.341 384.901 806.179 384.901C804.563 384.901 803.52 386.312 803.52 388.463V391.655H802.594Z" fill="white"/>
</svg>
